<?xml version="1.0" encoding="utf-8"?>
<svg version="1.1" xmlns:xlink="http://www.w3.org/1999/xlink" width="42px" height="23px" xmlns="http://www.w3.org/2000/svg">
  <g transform="matrix(1 0 0 1 -853 -101 )">
    <path d="M 41 1  L 29.1604921875 1  L 34.24659379882813 5.901131005859375  L 24.163829931640628 15.979597851562499  L 15.85286474609375 9.762612939453124  C 15.830080175781251 9.744125488281249  15.7988513671875 9.738479296875  15.77476767578125 9.725588037109375  C 15.68807646484375 9.6673275390625  15.59274111328125 9.630502490234374  15.494807470703126 9.59057958984375  C 15.408216162109376 9.56089970703125  15.33286728515625 9.522425781250002  15.243327978515627 9.504088232421875  C 15.146693505859375 9.486949853515625  15.054406054687501 9.489897851562501  14.95492353515625 9.494095019531251  C 14.859788037109375 9.489897851562501  14.770298730468753 9.48560078125  14.673664208984377 9.502639208984375  C 14.587022949218753 9.519627685546874  14.506027880859374 9.560949658203127  14.4235337890625 9.592228466796875  C 14.324251123046876 9.629103466796876  14.22891572265625 9.667377539062501  14.135229248046876 9.72858603515625  C 14.111045654296875 9.74417548828125  14.084063916015623 9.74272646484375  14.06427734375 9.761213916015626  L 1.0974189453124996 19.42191396484375  C 0.4354177734375 19.916278808593752  0.29611220703124985 20.8497458984375  0.7933250976562504 21.513146093750002  C 1.1031650390625005 21.92946381835938  1.5889856445312496 22.138322216796873  2.0691600585937504 22.112689599609375  C 2.3547664062500004 22.0999482421875  2.637474755859375 22.000465673828124  2.884657128906251 21.82153701171875  L 14.952175341796877 12.825686181640622  L 23.406693164062503 19.150547949218748  C 23.484840185546876 19.213155517578123  23.574279541015628 19.241486279296875  23.662419775390628 19.281309277343748  C 23.717882177734378 19.30404384765625  23.768947558593755 19.34091884765625  23.82715810546875 19.35940634765625  C 24.0047376953125 19.424861962890628  24.193759570312505 19.454591796874997  24.38278139648438 19.446047607421875  C 24.38278139648438 19.446047607421875  24.38278139648438 19.446047607421875  24.384180468750003 19.446047607421875  C 24.57874853515625 19.434655322265627  24.770518554687502 19.38074189453125  24.949547167968753 19.291252539062498  C 25.010605761718754 19.2641708984375  25.06042197265625 19.21450458984375  25.11573447265625 19.177629589843747  C 25.19672954101562 19.123566259765624  25.28766791992188 19.083743261718748  25.360118798828125 19.009943261718746  L 36.36056049804688 8.015147753906248  L 41 13.159509863281247  L 41 1  Z " fill-rule="nonzero" fill="#1abc9c" stroke="none" transform="matrix(1 0 0 1 853 101 )" />
  </g>
</svg>