<?xml version="1.0" encoding="utf-8"?>
<svg version="1.1" xmlns:xlink="http://www.w3.org/1999/xlink" width="5px" height="15px" xmlns="http://www.w3.org/2000/svg">
  <g transform="matrix(1 0 0 1 -877 -124 )">
    <path d="M 1.6356819824218753 3.312342236328128  C 1.563281103515628 3.386242138671875  1.4738417480468762 3.4274142089843735  1.3914975585937484 3.4799286132812526  C 1.337434228515626 3.516853564453122  1.2877678710937488 3.5665698730468733  1.2266093750000024 3.5935515625000036  C 1.0461816894531282 3.6831408203125022  0.8544117187500007 3.7385532714843777  0.6598436523437528 3.748546484375005  C 0.6583946289062546 3.749895556640631  0.6583946289062546 3.749895556640631  0.6583946289062546 3.749895556640631  C 0.46937280273437665 3.7569907226562553  0.2805008300781253 3.727210937500004  0.1029212402343802 3.6618052734375084  C 0.08293481445313233 3.6560091796875085  0.06594628906250577 3.6446668945312553  0.047458837890630434 3.6347735839843764  L 0.047458837890630434 12.730056982421878  C 0.047458837890630434 13.534211767578128  0.698067724609384 14.184920605468754  1.5022724609375047 14.184920605468754  L 2.956936181640632 14.184920605468754  C 3.761190917968758 14.184920605468754  4.411849755859386 13.534211767578128  4.411849755859386 12.730056982421878  L 4.411849755859372 0.5377234375000022  L 1.6356819824218753 3.312342236328128  Z " fill-rule="nonzero" fill="#1abc9c" stroke="none" transform="matrix(1 0 0 1 877 124 )" />
  </g>
</svg>