<?xml version="1.0" encoding="utf-8"?>
<svg version="1.1" xmlns:xlink="http://www.w3.org/1999/xlink" width="838px" height="181px" xmlns="http://www.w3.org/2000/svg">
  <g transform="matrix(1 0 0 1 -217 -980 )">
    <path d="M 837 180  L 1.2733911455956242 180  C 1.2733911455956242 180  0 89.71532582839889  0 90.11793307108148  C 12.3775264460762 89.73749384583193  46.04218107831967 87.90359323632643  71.90415335463258 87.90359323632643  C 116.26061159287998 87.90359323632643  112.6526700136924 116.08610022411726  149.1565495207668 116.08610022411726  C 185.66042902784125 116.08610022411726  172.3249824579445 63.95405230408631  228.10680054769506 64.4181707465006  C 268.4308534915564 64.75367678206969  274.30391784953673 82.34929548986825  298.56777727065264 82.53549666722327  C 342.2875399361023 82.87100270279235  338.4673664993154 -0.3344941183046384  381.76266544956644 0.0010119172644524844  C 425.0579643998178 0.33651795283354335  402.5954181037297 86.49819230689997  452.22364217252414 91.9296656631537  C 479.8137836604292 94.94921998327415  491.0620721131906 91.4264066098003  527.778183477864 93.94270187656733  C 564.4942948425378 96.45899714333436  563.8575992697399 147.2881615320285  606.7284345047923 147.62366756759738  C 649.5992697398448 147.95917360316625  640.4012213798908 129.36295839989373  683.1319032405296 129.50634164687472  C 729.3053541858881 129.661277141292  731.5207667731629 148.96569170987306  765.4778639890462 149.63670378101102  C 793.9471340412044 150.19927318263092  816.7530807850297 115.07958211741044  835.0899132816068 116.08610022411726  C 835.599269739845 116.69001108814126  837 180  837 180  Z " fill-rule="nonzero" fill="#49a9ee" stroke="none" transform="matrix(1 0 0 1 217 980 )" />
    <path d="M 1.2733911455956242 180  C 1.2733911455956242 180  0 89.71532582839889  0 90.11793307108148  C 12.3775264460762 89.73749384583193  46.04218107831967 87.90359323632643  71.90415335463258 87.90359323632643  C 116.26061159287998 87.90359323632643  112.6526700136924 116.08610022411726  149.1565495207668 116.08610022411726  C 185.66042902784125 116.08610022411726  172.3249824579445 63.95405230408631  228.10680054769506 64.4181707465006  C 268.4308534915564 64.75367678206969  274.30391784953673 82.34929548986825  298.56777727065264 82.53549666722327  C 342.2875399361023 82.87100270279235  338.4673664993154 -0.3344941183046384  381.76266544956644 0.0010119172644524844  C 425.0579643998178 0.33651795283354335  402.5954181037297 86.49819230689997  452.22364217252414 91.9296656631537  C 479.8137836604292 94.94921998327415  491.0620721131906 91.4264066098003  527.778183477864 93.94270187656733  C 564.4942948425378 96.45899714333436  563.8575992697399 147.2881615320285  606.7284345047923 147.62366756759738  C 649.5992697398448 147.95917360316625  640.4012213798908 129.36295839989373  683.1319032405296 129.50634164687472  C 729.3053541858881 129.661277141292  731.5207667731629 148.96569170987306  765.4778639890462 149.63670378101102  C 793.9471340412044 150.19927318263092  816.7530807850297 115.07958211741044  835.0899132816068 116.08610022411726  C 835.599269739845 116.69001108814126  837 180  837 180  " stroke-width="1" stroke="#2db7f5" fill="none" transform="matrix(1 0 0 1 217 980 )" />
  </g>
</svg>