<?xml version="1.0" encoding="utf-8"?>
<svg version="1.1" xmlns:xlink="http://www.w3.org/1999/xlink" width="7px" height="8px" xmlns="http://www.w3.org/2000/svg">
  <g transform="matrix(1 0 0 1 -586 -978 )">
    <path d="M 589.5 979  C 590.9 979  592 980.32  592 982  C 592 983.68  590.9 985  589.5 985  C 588.1 985  587 983.68  587 982  C 587 980.32  588.1 979  589.5 979  Z " fill-rule="nonzero" fill="#ffffff" stroke="none" />
    <path d="M 589.5 979  C 590.9 979  592 980.32  592 982  C 592 983.68  590.9 985  589.5 985  C 588.1 985  587 983.68  587 982  C 587 980.32  588.1 979  589.5 979  Z " stroke-width="2" stroke="#2db7f5" fill="none" />
  </g>
</svg>