<?xml version="1.0" encoding="utf-8"?>
<svg version="1.1" xmlns:xlink="http://www.w3.org/1999/xlink" width="144px" height="81px" xmlns="http://www.w3.org/2000/svg">
  <defs>
    <mask fill="white" id="clip1">
      <path d="M 0 69.08928571428578  L 0 3.9107142857142208  C 0 1.7207142857143936  2.6399999999999864 0  6 0  L 130 0  C 133.36000000000013 0  136 1.7207142857143936  136 3.9107142857142208  L 136 69.08928571428578  C 136 71.27928571428583  133.36000000000013 73  130 73  L 6 73  C 2.6399999999999864 73  0 71.27928571428583  0 69.08928571428578  Z " fill-rule="evenodd" />
    </mask>
    <filter x="599px" y="959px" width="144px" height="81px" filterUnits="userSpaceOnUse" id="filter2">
      <feOffset dx="0" dy="0" in="SourceAlpha" result="shadowOffsetInner" />
      <feGaussianBlur stdDeviation="2" in="shadowOffsetInner" result="shadowGaussian" />
      <feComposite in2="shadowGaussian" operator="atop" in="SourceAlpha" result="shadowComposite" />
      <feColorMatrix type="matrix" values="0 0 0 0 0  0 0 0 0 0  0 0 0 0 0  0 0 0 0.14901960784313725 0  " in="shadowComposite" />
    </filter>
    <g id="widget3">
      <path d="M 0 69.08928571428578  L 0 3.9107142857142208  C 0 1.7207142857143936  2.6399999999999864 0  6 0  L 130 0  C 133.36000000000013 0  136 1.7207142857143936  136 3.9107142857142208  L 136 69.08928571428578  C 136 71.27928571428583  133.36000000000013 73  130 73  L 6 73  C 2.6399999999999864 73  0 71.27928571428583  0 69.08928571428578  Z " fill-rule="nonzero" fill="#ffffff" stroke="none" transform="matrix(1 0 0 1 603 963 )" />
      <path d="M 0 69.08928571428578  L 0 3.9107142857142208  C 0 1.7207142857143936  2.6399999999999864 0  6 0  L 130 0  C 133.36000000000013 0  136 1.7207142857143936  136 3.9107142857142208  L 136 69.08928571428578  C 136 71.27928571428583  133.36000000000013 73  130 73  L 6 73  C 2.6399999999999864 73  0 71.27928571428583  0 69.08928571428578  Z " stroke-width="2" stroke="#ebebeb" fill="none" transform="matrix(1 0 0 1 603 963 )" mask="url(#clip1)" />
    </g>
  </defs>
  <g transform="matrix(1 0 0 1 -599 -959 )">
    <use xlink:href="#widget3" filter="url(#filter2)" />
    <use xlink:href="#widget3" />
  </g>
</svg>