<?xml version="1.0" encoding="utf-8"?>
<svg version="1.1" xmlns:xlink="http://www.w3.org/1999/xlink" width="12px" height="13px" xmlns="http://www.w3.org/2000/svg">
  <defs>
    <mask fill="white" id="clip5">
      <path d="M 11.66703125 1.1522851562500014  C 11.411523437500001 0.8968164062500001  10.9973046875 0.8968164062500001  10.741835937500001 1.152265625  L 6 5.893906250000001  L 1.2581640625000006 1.152265625  C 1.0026757812499998 0.8967773437500002  0.5884375000000004 0.8967773437500002  0.33298828125000046 1.152265625  C 0.07750000000000057 1.40775390625  0.07750000000000057 1.8219531250000003  0.33298828125000046 2.07740234375  L 5.074824218750001 6.819023437500001  L 0.3329882812499996 11.56068359375  C 0.07749999999999968 11.816171874999998  0.07749999999999968 12.23037109375  0.3329882812499996 12.485820312499998  C 0.5884765624999995 12.741308593749999  1.0027148437500006 12.741308593749999  1.2581640624999988 12.485820312499998  L 6 7.7441992187499995  L 10.741835937500001 12.485820312499998  C 10.997324218750002 12.741308593749999  11.41154296875 12.741308593749999  11.66703125 12.485820312499998  C 11.922519531250002 12.230332031249997  11.922519531250002 11.816132812499998  11.66703125 11.56068359375  L 6.9251953125 6.819042968750001  L 11.66703125 2.0774218750000006  C 11.922519531250002 1.8219335937500016  11.922519531250002 1.4077343750000004  11.66703125 1.1522851562500014  Z " fill-rule="evenodd" />
    </mask>
  </defs>
  <g transform="matrix(1 0 0 1 -1030 -14 )">
    <path d="M 11.66703125 1.1522851562500014  C 11.411523437500001 0.8968164062500001  10.9973046875 0.8968164062500001  10.741835937500001 1.152265625  L 6 5.893906250000001  L 1.2581640625000006 1.152265625  C 1.0026757812499998 0.8967773437500002  0.5884375000000004 0.8967773437500002  0.33298828125000046 1.152265625  C 0.07750000000000057 1.40775390625  0.07750000000000057 1.8219531250000003  0.33298828125000046 2.07740234375  L 5.074824218750001 6.819023437500001  L 0.3329882812499996 11.56068359375  C 0.07749999999999968 11.816171874999998  0.07749999999999968 12.23037109375  0.3329882812499996 12.485820312499998  C 0.5884765624999995 12.741308593749999  1.0027148437500006 12.741308593749999  1.2581640624999988 12.485820312499998  L 6 7.7441992187499995  L 10.741835937500001 12.485820312499998  C 10.997324218750002 12.741308593749999  11.41154296875 12.741308593749999  11.66703125 12.485820312499998  C 11.922519531250002 12.230332031249997  11.922519531250002 11.816132812499998  11.66703125 11.56068359375  L 6.9251953125 6.819042968750001  L 11.66703125 2.0774218750000006  C 11.922519531250002 1.8219335937500016  11.922519531250002 1.4077343750000004  11.66703125 1.1522851562500014  Z " fill-rule="nonzero" fill="#ffffff" stroke="none" transform="matrix(1 0 0 1 1030 14 )" />
    <path d="M 11.66703125 1.1522851562500014  C 11.411523437500001 0.8968164062500001  10.9973046875 0.8968164062500001  10.741835937500001 1.152265625  L 6 5.893906250000001  L 1.2581640625000006 1.152265625  C 1.0026757812499998 0.8967773437500002  0.5884375000000004 0.8967773437500002  0.33298828125000046 1.152265625  C 0.07750000000000057 1.40775390625  0.07750000000000057 1.8219531250000003  0.33298828125000046 2.07740234375  L 5.074824218750001 6.819023437500001  L 0.3329882812499996 11.56068359375  C 0.07749999999999968 11.816171874999998  0.07749999999999968 12.23037109375  0.3329882812499996 12.485820312499998  C 0.5884765624999995 12.741308593749999  1.0027148437500006 12.741308593749999  1.2581640624999988 12.485820312499998  L 6 7.7441992187499995  L 10.741835937500001 12.485820312499998  C 10.997324218750002 12.741308593749999  11.41154296875 12.741308593749999  11.66703125 12.485820312499998  C 11.922519531250002 12.230332031249997  11.922519531250002 11.816132812499998  11.66703125 11.56068359375  L 6.9251953125 6.819042968750001  L 11.66703125 2.0774218750000006  C 11.922519531250002 1.8219335937500016  11.922519531250002 1.4077343750000004  11.66703125 1.1522851562500014  Z " stroke-width="2" stroke="#cccccc" fill="none" transform="matrix(1 0 0 1 1030 14 )" mask="url(#clip5)" />
  </g>
</svg>