<?xml version="1.0" encoding="utf-8"?>
<svg version="1.1" xmlns:xlink="http://www.w3.org/1999/xlink" width="15px" height="13px" xmlns="http://www.w3.org/2000/svg">
  <g transform="matrix(1 0 0 1 -1035 -16 )">
    <path d="M 13.123380859375 8.6775390625  C 13.122521484375 7.018339843749999  12.613220703125002 5.47869921875  11.746861328125 4.205759765625  C 11.734261718750002 4.184019531250001  11.725662109374998 4.16198046875  11.711400390624998 4.1416601562499995  C 11.603820312499998 3.98601953125  11.486179687499998 3.8409394531250003  11.369201171875002 3.6955996093749994  C 11.355761718750003 3.6778593749999997  11.343181640625001 3.6592597656249994  11.328861328125 3.6417988281249993  C 10.535980468750001 2.667837890625  9.540601562500001 1.915619140625  8.412421875000003 1.4237988281249994  C 8.381201171875004 1.4100585937499992  8.350621093750002 1.3948984374999998  8.319162109375002 1.3811582031249996  C 8.139162109375002 1.3061972656249994  7.9546015625000015 1.2398183593749996  7.769242187500003 1.1771582031249994  C 7.702281250000002 1.1548378906249996  7.636761718750002 1.1302382812499996  7.568382812500004 1.1099179687499996  C 7.406722656250002 1.0604179687499995  7.242763671875004 1.0200781249999995  7.077363281250001 0.9814374999999996  C 6.986103515625002 0.9599765624999996  6.8948437500000015 0.9365175781249997  6.802402343750003 0.9182167968749995  C 6.756642578125003 0.9093359374999994  6.713441406250002 0.8956171874999994  6.668242187500002 0.8873164062499994  C 6.5449218750000036 0.8658554687499995  6.421021484375002 0.8564160156249997  6.297421875000001 0.8401171874999993  C 6.211582031250003 0.8292363281249991  6.128021484375001 0.8157968749999996  6.041621093750003 0.8069179687499994  C 5.833900390625002 0.7874570312499996  5.627861328125004 0.7791777343749995  5.421880859375003 0.7754570312499995  C 5.384101562500003 0.7754570312499995  5.347781250000004 0.7694374999999996  5.310300781250003 0.7694374999999996  C 5.3034414062500055 0.7694374999999996  5.297160156250003 0.7714570312499993  5.290281250000003 0.7720175781249994  C 3.703999999999999 0.7731601562499999  2.1578007812499997 1.2581406249999998  0.8301992187499998 2.199759765625  C 0.40559960937499895 2.5001796874999997  0.3022988281249992 3.09187890625  0.5992988281249998 3.5216406250000003  C 0.8957187499999995 3.9514003906249995  1.4813984375000002 4.055541015624999  1.9051386718749992 3.7542402343749997  C 2.9305996093749993 3.027220703125  4.126878906249999 2.6592597656249994  5.353779296874999 2.6704199218749993  C 5.5303183593749985 2.6715605468749994  5.703999999999997 2.6804199218749996  5.8756796875 2.6967402343749995  C 5.928599609375 2.7027597656249993  5.9809804687499994 2.7107597656249998  6.033599609374999 2.7173398437499996  C 6.174679687499999 2.7348007812499997  6.314580078125001 2.7550996093749993  6.452458984374999 2.7825800781249996  C 6.513419921875002 2.7945996093749996  6.57351953125 2.8103203124999996  6.632978515625002 2.8240800781249993  C 6.768337890625 2.8549609374999996  6.903398437500002 2.8881601562499997  7.035578125000001 2.928519531249999  C 7.077337890625001 2.941958984374999  7.118517578125001 2.9571191406249993  7.160298828125002 2.9708593749999994  C 7.3110996093750025 3.0209199218749987  7.459578125000002 3.074718749999999  7.605539062500001 3.1362402343749993  C 7.6203789062500045 3.1425195312499987  7.635578125000003 3.150259765625  7.649878906250002 3.1562597656249993  C 8.523679687500003 3.536798828124999  9.290218750000003 4.1225  9.888218750000002 4.855539062499999  C 9.891958984375002 4.859818359375  9.895638671875002 4.8655585937499986  9.899099609375002 4.869839843749999  C 10.740859375000003 5.907320312499998  11.247599609375001 7.233480468749999  11.248160156250002 8.677539062499998  L 9.870660156250002 8.677539062499998  C 9.835099609375002 8.677539062499998  9.800679687500002 8.696599609375  9.782640625 8.730099609374998  C 9.7646015625 8.763599609374998  9.767601562500001 8.802820312499998  9.7871796875 8.832539062499997  L 12.102259765625 12.347259765624997  C 12.120140625000001 12.374378906249998  12.15087890625 12.392259765624996  12.185798828125002 12.392259765624996  C 12.22069921875 12.392240234374997  12.251439453125002 12.374359374999996  12.269298828125002 12.347240234374997  L 14.583298828125002 8.832519531249996  C 14.602878906250002 8.802798828124997  14.605878906250002 8.763599609374996  14.587818359375003 8.730080078124997  C 14.569779296875002 8.696580078124997  14.535357421875002 8.677519531249997  14.499798828125002 8.677519531249997  L 13.123380000000001 8.677519531249997  Z " fill-rule="nonzero" fill="#999999" stroke="none" transform="matrix(1 0 0 1 1035 16 )" />
  </g>
</svg>