<?xml version="1.0" encoding="utf-8"?>
<svg version="1.1" xmlns:xlink="http://www.w3.org/1999/xlink" width="15px" height="13px" xmlns="http://www.w3.org/2000/svg">
  <g transform="matrix(1 0 0 1 -1031 -20 )">
    <path d="M 14.022117968749999 9.834318359375  C 13.7245390625 9.404  13.139720703125 9.300140625  12.716259765625 9.601419921875001  C 11.683339843750002 10.33419921875  10.474779296875003 10.701560546875  9.239279296875 10.684640625000002  C 9.075919921875 10.682919921875001  8.9136796875 10.674339843750003  8.753439453125 10.660060546875002  C 8.687939453125 10.65380078125  8.622400390625002 10.642941406250001  8.556599609375002 10.634640625  C 8.430419921875002 10.617720703125  8.303958984375 10.6006015625  8.181179687500002 10.576541015625  C 8.105060546875002 10.561941406250002  8.030699218750001 10.542201171875  7.956320312500001 10.524740234375  C 7.835859375000002 10.496099609375001  7.715939453125001 10.467220703125  7.598380859375002 10.431759765625001  C 7.5417207031250015 10.41401953125  7.486521484375002 10.393699218750001  7.430441406250001 10.374539062500002  C 7.294822265625001 10.328478515625001  7.159761718750001 10.281  7.0281621093750015 10.225199218750001  C 6.998421875000002 10.213138671875  6.969802734375001 10.198919921875  6.940042968750001 10.185419921875  C 6.786683593750001 10.11701953125  6.634462890625001 10.045240234375001  6.487962890625001 9.964560546875001  C 6.480822265625001 9.960820312500001  6.474802734375001 9.9576796875  6.467662109375 9.954  C 5.9706621093750005 9.677580078125  5.51572265625 9.3325390625  5.116882812500001 8.929380859375  C 5.110863281250001 8.92312109375  5.104283203125 8.915640625000002  5.097722656250001 8.9085  C 4.973822265625 8.782580078125  4.855662109375 8.65098046875  4.743203125000001 8.513660156250001  C 4.719742187500001 8.4844609375  4.69684375 8.453  4.673103515625001 8.4229609375  C 3.8613828125000005 7.394681640624999  3.3718242187500014 6.093380859374999  3.3718242187500014 4.67762109375  L 4.7487442187500015 4.67762109375  C 4.784304765625001 4.67762109375  4.818724687500002 4.658560546874998  4.836763750000001 4.625060546875  C 4.854824296875001 4.591560546875  4.851802812500001 4.55233984375  4.832244218750001 4.522621093750001  L 2.517720703125 1.0075605468750002  C 2.4998398437500002 0.9804199218750007  2.4691015624999997 0.9625605468750013  2.4342011718750003 0.9625605468750013  C 2.399300781250001 0.9625605468750013  2.3685410156250004 0.9804414062500015  2.350681640625001 1.0075605468750002  L 0.0361191406250001 4.5225390625  C 0.016558593750000128 4.552259765624999  0.013558593750000014 4.591478515624999  0.03159960937499995 4.624978515624999  C 0.04966015625000009 4.658478515624999  0.08406054687499998 4.677539062499999  0.11963867187500021 4.677539062499999  L 1.4968386718750004 4.677539062499999  C 1.4968386718750004 6.341919921874998  2.009278125 7.884658203124999  2.8799382812500003 9.160199218749998  C 2.8905378906250005 9.177978515624998  2.8982585937500005 9.196859374999997  2.9099773437500005 9.214619140624997  C 3.0000964843750006 9.345058593749997  3.100256640625001 9.465519531249997  3.196957812500001 9.588839843749998  C 3.2330183593750013 9.63548046875  3.266778125000001 9.683519531249999  3.30425859375 9.729279296875  C 3.4467585937500003 9.9043984375  3.598098437500001 10.068919921874999  3.75375859375 10.229718749999998  C 3.7686394531249996 10.245738281249999  3.7823777343750002 10.261458984374999  3.7969792968750005 10.275779296874997  C 4.3194402343750005 10.805378906249999  4.910280078125 11.251759765624996  5.55289921875 11.6085390625  C 5.569498828125 11.618578124999999  5.5860984375 11.628898437499998  5.60439921875 11.638318359374999  C 5.789518359375 11.738998046875  5.979780078125 11.829998046874998  6.172639453125001 11.916138671874997  C 6.22071953125 11.936998046874997  6.267639453125 11.960478515624999  6.316559375000001 11.981099609375  C 6.4813796875000005 12.050339843749999  6.6507390625000005 12.11098046875  6.821559375 12.168798828124999  C 6.9022390625000005 12.196558593749998  6.98236015625 12.224878906249998  7.0641785156250005 12.250318359374997  C 7.21325859375 12.294958984375  7.36575859375 12.332437500000001  7.519678515625 12.369337890624998  C 7.6215378906249995 12.393376953125  7.72279765625 12.41941796875  7.826698046875 12.4394375  C 7.869897265624999 12.448318359374998  7.910518359375 12.46177734375  7.952897265625001 12.468337890624998  C 8.09765703125 12.494376953124998  8.243576953125 12.508957031249999  8.388637500000002 12.526697265625  C 8.440996875 12.533017578125001  8.492496875000002 12.541896484374998  8.544877734375001 12.547578125000001  C 8.805537890625 12.573638671874999  9.0653171875 12.590777343750002  9.324858203125 12.590777343750002  C 10.91311796875 12.590777343750002  12.46275859375 12.098957031250002  13.792037890625 11.156177734375  C 14.215537890625 10.854917968750001  14.318838671875001 10.263796875000002  14.022117968749999 9.834318359375  Z " fill-rule="nonzero" fill="#999999" stroke="none" transform="matrix(1 0 0 1 1031 20 )" />
  </g>
</svg>