<?xml version="1.0" encoding="utf-8"?>
<svg version="1.1" xmlns:xlink="http://www.w3.org/1999/xlink" width="22px" height="3px" xmlns="http://www.w3.org/2000/svg">
  <g transform="matrix(1 0 0 1 -67 -508 )">
    <path d="M 10.14375 0.3562499999999993  L 1.784374999999999 0.3562499999999993  C 1.2234608009531005 0.3562499999999993  0.7687499999999989 0.8109608009530973  0.7687499999999989 1.3718749999999993  C 0.7687499999999989 1.9327891990468977  1.2234608009531005 2.3874999999999957  1.784374999999999 2.3874999999999957  L 10.14375 2.387500000000003  L 10.14375 0.3562499999999993  Z M 20.535937499999996 0.3562487980776332  C 20.535416666436134 0.3562487980776332  20.534895832947484 0.3562491987185403  20.534374999999997 0.3562499999999993  L 12.178125000000001 0.3562499999999993  L 12.178125000000001 2.387500000000003  L 20.537499999999994 2.3874999999999957  C 21.097804102488546 2.386637993688481  21.551563701922362 1.9321797655699378  21.551563701922362 1.3718749999999993  C 21.551563701922362 0.8109601371497064  21.096852362850285 0.3562487980776332  20.535937499999996 0.3562487980776332  Z " fill-rule="nonzero" fill="#999999" stroke="none" transform="matrix(1 0 0 1 67 508 )" />
  </g>
</svg>