<?xml version="1.0" encoding="utf-8"?>
<svg version="1.1" xmlns:xlink="http://www.w3.org/1999/xlink" width="33px" height="49px" xmlns="http://www.w3.org/2000/svg">
  <g transform="matrix(1 0 0 1 -295 -483 )">
    <path d="M 32.59259260831049 24.90163940701846  C 33.135802463896525 24.366120239498017  33.135802463896525 23.562841550973367  32.59259260831049 23.02732244620906  C 31.50617283348101 21.95628417392419  29.87654320306549 20.885245964395573  28.246913572649976 19.814207692110703  C 30.148148162687214 17.672131210297216  31.234567873859284 14.994535560963167  31.234567873859284 12.049180390625033  C 31.234567937516697 5.355191298668096  25.802469127026704 0  19.01234570940027 0  C 12.222222291773837 0  6.790123481283844 5.355191298668096  6.790123481283844 12.049180327868896  C 6.790123481283844 14.99453549820703  7.876543256113325 17.672131147540963  9.50617288652884 19.814207629354566  C 3.8024691164171247 23.02732244620906  0 29.185792370645547  0 36.14754098360657  C 0 43.37704918032793  8.148148152077637 49  18.469135790156827 49  C 19.283950605364584 49  19.827160460950616 48.46448089523569  19.827160460950616 47.66120220671116  C 19.827160460950616 46.85792351818651  19.283950605364584 46.322404413422205  18.469135790156827 46.322404413422205  C 9.777777782493152 46.322404413422205  2.7160493415876434 41.77049186603489  2.7160493415876434 36.14754104636271  C 2.7160493415876434 30.256830642930307  6.246913562040398 24.366120302254153  11.950617268494703 21.956284236680325  C 13.851851858532 23.295081967213147  16.296296304155273 24.09836065573768  19.01234570940027 24.09836065573768  C 21.728395114645267 24.09836065573768  24.17283956026854 23.295081967213147  26.074074086648423 21.95628417392419  C 27.70370371706394 22.759562862448835  29.60493830710118 23.83060113473359  30.69135801827325 25.169398928022545  C 30.96296297789497 25.43715851178277  31.234567873859284 25.43715851178277  31.50617283348101 25.43715851178277  C 31.77777779310273 25.43715851178277  32.049382689067045 25.43715851178277  32.59259260831049 24.90163940701846  Z M 19.01234570940027 21.42076506915988  C 13.851851922189354 21.42076506915988  9.506172822871429 17.136612042776655  9.506172822871429 12.049180327868896  C 9.506172822871429 6.961748675717274  13.851851858532 2.677595649334048  19.01234570940027 2.677595649334048  C 24.17283956026854 2.677595649334048  28.5185185322717 6.961748675717274  28.5185185322717 12.049180327868896  C 28.5185185322717 17.13661198002052  24.17283949661119 21.42076506915988  19.01234570940027 21.42076506915988  Z " fill-rule="nonzero" fill="#999999" stroke="none" transform="matrix(1 0 0 1 295 483 )" />
  </g>
</svg>