<?xml version="1.0" encoding="utf-8"?>
<svg version="1.1" xmlns:xlink="http://www.w3.org/1999/xlink" width="6px" height="18px" xmlns="http://www.w3.org/2000/svg">
  <g transform="matrix(1 0 0 1 -437 -512 )">
    <path d="M 2.183429267977364 3.6595894207586737  C 2.083895270770764 3.757059855589729  1.9609374187133555 3.8113638461091033  1.847733733249517 3.88062783238474  C 1.773409506440865 3.9293300759966234  1.7051300717769404 3.9949035079382673  1.621051678374653 4.030491065161797  C 1.3730065023973528 4.148655009067408  1.1093683806421455 4.221741380489916  0.8418835424643716 4.234921950083607  C 0.8398914797027317 4.236701311844353  0.8398914797027317 4.236701311844353  0.8398914797027317 4.236701311844353  C 0.5800314033832943 4.246059496291174  0.3203773400243124 4.206781384733527  0.07624761858349517 4.120514443717452  C 0.048771034349534795 4.112869673423837  0.025415850485523632 4.0979097420695245  0 4.084860938886509  L 0 16.081104501347134  C 0 17.14174618144135  0.8944325551226218 18  2.0000228903289323 18  L 3.999839700570289 18  C 5.105498773890581 18  6 17.14174618144135  6 16.081104501347134  L 5.999999999999934 0  L 2.183429267977364 3.6595894207586737  Z " fill-rule="nonzero" fill="#999999" stroke="none" transform="matrix(1 0 0 1 437 512 )" />
  </g>
</svg>