<?xml version="1.0" encoding="utf-8"?>
<svg version="1.1" xmlns:xlink="http://www.w3.org/1999/xlink" width="837px" height="153px" xmlns="http://www.w3.org/2000/svg">
  <g transform="matrix(1 0 0 1 -216 -980 )">
    <path d="M 0 89.45700448724469  C 0 89.45700448724469  27.785859613428244 88.1118016274981  72.11597151576801 88.1118016274981  C 116.4460834181078 88.1118016274981  112.84028484231938 116.36106168217817  149.322482197355 116.36106168217817  C 185.8046795523906 116.36106168217817  172.47715381677062 64.10553382888976  228.22583926754817 64.5707515819312  C 268.52594099694807 64.90705229686802  274.39551694010606 82.54434797517418  298.64496439471 82.73099018851127  C 342.3387589013223 83.06729090344808  338.5208545269583 -0.3352864008458236  381.79043743641915 0.0010143140909970381  C 425.06002034587993 0.3373150290278177  402.6108160931734 86.70307186638574  452.20956256358085 92.1474102067381  C 479.78331637843337 95.17411664116811  491.0249237029499 91.6429591343331  527.7192268565615 94.16521449635812  C 564.4135300101728 96.68746985838312  563.7772126144456 147.63702817128828  606.6225839267548 147.9733288862249  C 649.467955239064 148.30962960116148  640.2753702294632 129.66936741520252  682.9806714140385 129.81309027964483  C 729.126696787182 129.96839275416886  731.3407934893181 149.31853174597146  765.2777212614444 149.99113317584488  C 799.2146490335706 150.6637346057183  813.0698906198763 112.84241122672535  834 114.34325739255819  " stroke-width="2" stroke="#49a9ee" fill="none" transform="matrix(1 0 0 1 217 981 )" />
  </g>
</svg>