<?xml version="1.0" encoding="utf-8"?>
<svg version="1.1" xmlns:xlink="http://www.w3.org/1999/xlink" width="8px" height="8px" xmlns="http://www.w3.org/2000/svg">
  <g transform="matrix(1 0 0 1 -494 -1369 )">
    <path d="M 498 1370  C 499.68 1370  501 1371.32  501 1373  C 501 1374.68  499.68 1376  498 1376  C 496.32 1376  495 1374.68  495 1373  C 495 1371.32  496.32 1370  498 1370  Z " fill-rule="nonzero" fill="#ffffff" stroke="none" />
    <path d="M 498 1370  C 499.68 1370  501 1371.32  501 1373  C 501 1374.68  499.68 1376  498 1376  C 496.32 1376  495 1374.68  495 1373  C 495 1371.32  496.32 1370  498 1370  Z " stroke-width="2" stroke="#2db7f5" fill="none" />
  </g>
</svg>