<?xml version="1.0" encoding="utf-8"?>
<svg version="1.1" xmlns:xlink="http://www.w3.org/1999/xlink" width="26px" height="25px" xmlns="http://www.w3.org/2000/svg">
  <g transform="matrix(1 0 0 1 -319 -511 )">
    <path d="M 12.734693919428077 4.891304403207704  C 14.326530651583996 4.891304403207704  15.653061178805713 4.07608694959903  16.714285687636647 3.2608695596792234  C 17.244897910961573 3.5326087108820756  17.77551019646758 3.804347798396177  18.306122419792505 4.07608694959903  C 18.0408162770395 5.706521729438641  18.306122419792505 7.336956509278253  19.102040785870436 8.695652137915012  C 19.897959151948363 10.054347766551654  21.22448974135122 11.141304307674432  22.551020392935218 11.684782546391267  C 22.551020392935218 11.956521697594237  22.551020392935218 12.228260785108219  22.551020392935218 12.499999936311072  C 22.551020392935218 12.771739087514042  22.551020392935218 13.043478175028026  22.551020392935218 13.315217326230878  C 21.224489803532364 13.858695564947832  19.897959151948363 14.94565210607049  19.102040785870436 16.30434773470725  C 18.306122419792505 17.66304336334401  18.0408162770395 19.29347814318362  18.306122419792505 20.923912923023234  C 17.77551019646758 21.195652074226086  17.244897910961573 21.467391161740068  16.714285687636647 21.73913031294304  C 15.653061178805654 20.652173771820262  14.061224446649796 20.108695533103425  12.469387714493935 20.108695533103425  C 10.877550982338075 20.108695533103425  9.285714250182213 20.652173771820262  8.224489741351222 21.73913031294304  C 7.693877518026354 21.467391161740068  7.163265232520289 21.195652074226086  6.632653009195363 20.923912923023234  C 6.897959151948425 19.29347814318362  6.632653009195363 17.66304336334401  5.836734643117432 16.30434773470725  C 5.306122419792506 14.673913018556506  4.244897973142712 13.8586956286367  2.653061240986852 13.315217389919749  C 2.653061240986852 13.043478238716894  2.653061240986852 12.771739151202913  2.653061240986852 12.49999999999994  C 2.653061240986852 12.228260848797088  2.653061240986852 11.956521761283105  2.653061240986852 11.684782610080134  C 3.97959183038965 11.141304371363299  5.306122481973646 10.054347830240523  6.102040848051575 8.695652201603881  C 6.897959214129505 7.3369565729671224  7.163265356882567 5.706521793127511  6.897959214129505 4.076087013287898  C 7.428571437454432 3.804347862085047  7.959183722960497 3.5326087745709445  8.489795946285366 3.2608696233680927  C 9.551020455116358 4.34782616449075  11.142857187272218 4.891304403207704  12.734693919428077 4.891304403207704  Z M 15.918367321558716 0  C 15.38775509823379 1.3586956286367597  14.061224446649796 2.1739130185565654  12.469387714493935 2.1739130185565654  C 10.877550982338075 2.1739130185565654  9.816326473507141 1.3586956286367597  9.02040810742921 0  C 6.897959151948425 0.5434782387169538  5.040816277039503 1.6304347798396117  3.4489795448836427 3.2608695596792234  C 4.244897910961573 4.347826100801882  4.244897910961573 5.978260880641494  3.4489795448836427 7.336956509278253  C 2.653061178805713 8.695652137915012  1.59183673215586 9.239130440320716  0.26530614275300357 9.239130440320716  L 0 9.239130440320716  C 0 10.054347830240523  0 11.141304371363299  0 12.49999999999994  C 0 13.8586956286367  0 14.673913018556506  0.5306122233249264 15.760869559679163  L 0.79591836607793 15.760869559679163  C 2.1224489554807864 15.760869559679163  3.4489796070647816 16.57608694959897  3.97959183038965 17.663043490721748  C 4.77551019646758 19.02173911935839  4.510204053714577 20.652173899198  3.97959183038965 21.739130440320775  C 5.571428562545568 23.36956522016039  7.428571437454432 24.456521761283046  9.551020392935218 25  C 10.081632616260144 23.64130437136324  11.40816326784414 22.82608698144343  13 22.82608698144343  C 14.59183673215586 22.82608698144343  15.653061240986794 23.64130437136324  16.44897960706472 25  C 18.571428562545567 24.456521761283046  20.428571437454433 23.36956522016039  22.020408169610292 21.739130440320775  C 21.224489803532364 20.652173899198  21.224489803532364 19.02173911935839  22.020408169610292 17.663043490721748  C 22.816326535688223 16.304347862084985  23.877551044519215 15.760869559679163  25.20408163392207 15.760869559679163  L 25.469387776675074 15.760869559679163  C 25.73469391942808 14.673913018556506  26 13.586956541122715  26 12.49999999999994  C 26 11.413043458877283  26 10.326086981443494  25.469387776675074 9.239130440320716  L 25.20408163392207 9.239130440320716  C 23.877551044519215 9.239130440320716  22.551020392935218 8.42391305040091  22.020408169610292 7.336956509278253  C 21.224489803532364 5.978260880641494  21.489795946285366 4.347826100801882  22.020408169610292 3.2608695596792234  C 19.897959151948363 1.6304347798396117  18.0408162770395 0.5434782387169538  15.918367321558716 0  Z " fill-rule="nonzero" fill="#999999" stroke="none" transform="matrix(1 0 0 1 319 511 )" />
  </g>
</svg>