<?xml version="1.0" encoding="utf-8"?>
<svg version="1.1" xmlns:xlink="http://www.w3.org/1999/xlink" width="50px" height="26px" xmlns="http://www.w3.org/2000/svg">
  <g transform="matrix(1 0 0 1 -408 -485 )">
    <path d="M 50 0  L 34.94938081560391 0  L 41.150399901233726 6.208455120184687  L 28.857406965923193 18.510944113415487  L 18.72460631152911 10.922052903745458  C 18.696827166289253 10.899485814123876  18.658752732683773 10.892593673812065  18.629389687767393 10.87685769096828  C 18.523695013405717 10.805740809111608  18.40746132801148 10.760789551661594  18.288059783732493 10.712056837633474  C 18.182486911172603 10.675827474853214  18.090620908529964 10.628863481649024  17.98145381124742 10.606479373423673  C 17.863636226176666 10.58555905676392  17.751118567306808 10.589157591548991  17.6298286188469 10.594280951433792  C 17.51383859658789 10.589157591548991  17.404732459737954 10.58391228380209  17.286914815135543 10.60471059299666  C 17.1812810416747 10.625447928260183  17.082531153622995 10.675888448784264  16.981953643227822 10.714069573387532  C 16.86090735790314 10.759081804768714  16.744673612977245 10.805801842645742  16.63045025262909 10.880517259287366  C 16.600965405910983 10.899546847658009  16.5680690371729 10.897778067230998  16.543945077088186 10.92034515685258  L 0.7346391382764877 22.712878469425128  C -0.07247841760619644 23.316335140165403  -0.24232096933491215 24.455791048902313  0.36388528842437495 25.265584217435602  C 0.7416448254873454 25.77377105806376  1.33396151062676 26.02871838162588  1.9193943103570432 25.997429397334425  C 2.2676080402693 25.98187639588675  2.612288505891569 25.8604409413681  2.9136553935449783 25.64202796944742  L 17.626477997727875 14.661056605835055  L 27.93429926871819 22.38162993019049  C 28.029576793380745 22.458053153328073  28.138622029329845 22.492635683543305  28.24608336560237 22.541246449709444  C 28.313703606358565 22.568997873146877  28.375962960481317 22.614010104527942  28.446933762824877 22.636577253752606  C 28.66344033504645 22.716477004210084  28.893897440320558 22.752767340921277  29.124354486062952 22.742337699358526  C 29.124354486062952 22.742337699358526  29.124354486062952 22.742337699358526  29.126060247072914 22.742337699358526  C 29.36327931689094 22.7284314708728  29.597086983752362 22.662620930297045  29.815360217884844 22.553383897768157  C 29.889803383617565 22.520326133049807  29.950539738964626 22.45969992629002  30.017977217486486 22.414687694908956  C 30.116727105538253 22.348694172937204  30.2275999638307 22.300083406771066  30.315932702183346 22.209997910474804  L 43.72776638935979 8.78897338476981  L 50 15.068545386811167  L 50 0  Z " fill-rule="nonzero" fill="#999999" stroke="none" transform="matrix(1 0 0 1 408 485 )" />
  </g>
</svg>