<?xml version="1.0" encoding="utf-8"?>
<svg version="1.1" xmlns:xlink="http://www.w3.org/1999/xlink" width="39px" height="50px" xmlns="http://www.w3.org/2000/svg">
  <g transform="matrix(1 0 0 1 -584 -98 )">
    <path d="M 19.028270595308438 13.559074487966265  C 18.376952411217857 13.48578957789948  17.944769302100127 13.308684363660072  17.719547067398434 13.039973026748566  C 17.57954405824478 12.868974903259408  17.463889450204896 12.526978596635754  17.384757324935318 12.020091257273162  L 15.083838829643284 12.020091257273162  C 15.065577588258014 13.131579209066071  15.546457380703108 13.919392066840638  16.51430406587165 14.377422739846676  C 17.068228883307732 14.633919954903075  17.902159719051234 14.804918078392216  19.022183495030085 14.896524260709734  L 19.022183495030085 16.093511244424484  L 19.850027230495 16.093511244424484  L 19.850027230495 14.884310138854625  C 20.732654690115726 14.835453532143413  21.49354044141798 14.670562439759118  22.138771584680466 14.389636921347144  C 23.19183749539682 13.93160618869575  23.72141397116928 13.198757028382598  23.72141397116928 12.191089380762318  C 23.72141397116928 11.427704826343327  23.33792754537892 10.829211304663271  22.570954693798193 10.413930147618187  C 22.108336142738256 10.16354002331205  21.20136034145402 9.870400323399547  19.850027230495 9.54061819827636  L 19.850027230495 7.250464475374028  C 20.410039148209556 7.280999869479854  20.79961267427839 7.433676780363638  21.012660648973004 7.720709389525934  C 21.134402357291243 7.885600481910172  21.21962158283929 8.148204728071475  21.26223116588819 8.50241515655024  L 23.50836593702464 8.50241515655024  C 23.47184339480396 7.543604175286515  22.97878946125218 6.847397440184051  22.023116917190325 6.4137950108882915  C 21.499627541696448 6.145083673976783  20.769177172886153 5.986299672342751  19.850027230495 5.931335974881277  L 19.850027230495 5.119094813751132  L 19.022183495030085 5.119094813751132  L 19.022183495030085 5.919121793380809  C 18.44391033593026 5.949657187486649  17.99955302625571 5.9985137941978035  17.701285826013276 6.071798704264593  C 17.20823183301136 6.18172609918747  16.757787482508363 6.377152526032203  16.35603981533273 6.65807810408958  C 16.045598414533355 6.877932834289892  15.80211499789676 7.140537140096553  15.62558944652243 7.445890961864163  C 15.449063954598238 7.751244783631759  15.363844729050422 8.087133999505152  15.363844788500446 8.459665640589291  C 15.363844788500446 9.027623768163561  15.589066963752003 9.510082804170521  16.033424213976417 9.907042748610234  C 16.477781523651085 10.310109783800211  17.24475431578167 10.621570696318027  18.334342768718706 10.84753257691399  L 19.028270595308438 10.994102397047566  L 19.028270595308438 13.559074487966265  Z M 19.862201371601802 11.195635914642548  L 19.85611427132345 11.195635914642493  C 20.330906963489955 11.317777431420492  20.665696705953067 11.439918948198438  20.860483498712554 11.555953433871519  C 21.195273241175546 11.7574869514665  21.3596245325428 12.026198348023424  21.3596245325428 12.374301685751927  C 21.3596245325428 12.826225327653102  21.183099040618607 13.14379333092118  20.83004805677046 13.333112667015651  C 20.629174223182527 13.436932971188268  20.306558681276467 13.510217881255054  19.862201371601802 13.546860366111144  L 19.862201371601802 11.195635914642548  Z M 19.028270595308438 9.369620015141802  C 18.608261627297512 9.278013892469698  18.303907326776613 9.180300619401931  18.103033493188793 9.070373284124454  C 17.743895409062056 8.874946857279737  17.56736991713798 8.60623546072287  17.56736991713798 8.270346244849417  C 17.56736991713798 7.964992423081808  17.689111625456338 7.720709389525934  17.926508001264718 7.537497084536267  C 18.163904377072985 7.3603918702969064  18.529129502028052 7.268785747624759  19.028270595308438 7.256571566124291  L 19.028270595308438 9.369620015141802  Z M 0.03656201689233726 12.130018592550638  C -0.04257010837712321 12.765154539441436  0.030474916613867257 24.093781458238944  0.03656201689233726 12.130018592550638  Z M 39 9.22305019500828  C 38.726081141421076 -2.2155040590667023  0.036562076342476685 -4.395730387046156  0.03656201689233726 10.627677787068276  L 0.03656201689233726 12.1361256833009  C 0.042649117170807264 12.10559028919506  0.042649117170807264 12.099483198444798  0 12.117804470695528  L 0 39.086654297892956  L 0.18265212632457328 39.086654297892956  C 0.5235289690660401 45.23037327774625  8.765443484244734 50  19.259579870838465 50  C 29.741542056875144 50  38.513033107276435 45.24258739960132  38.866084091124705 39.086654297892956  L 39 39.086654297892956  L 39 9.22305019500828  Z M 3.2688047740327426 10.627677787068276  C 3.2688047740327426 6.884039865394738  9.836770636346476 2.7190136959259656  19.259579870838465 2.719013755571324  C 28.68238910533034 2.719013755571324  35.5120996851162 6.890147015790417  35.5120996851162 10.627677787068276  C 35.5120996851162 14.371315708741772  28.68238910533034 18.536341878210603  19.259579870838465 18.536341878210603  C 9.836770636346476 18.536341878210603  3.2688047740327426 14.365208617991565  3.2688047740327426 10.627677787068276  Z M 3.098366322936997 19.116514127639924  L 3.098366322936997 17.107285982795027  C 6.543657054771904 20.20968086682752  12.435956331881059 22.21890901167246  19.253492770559998 22.21890901167246  C 26.07711625006715 22.21890901167246  32.23116030409845 20.20968086682752  35.67645097648333 17.107285982795027  L 35.67645097648333 19.110407036889722  C 34.77556221602743 23.116649204724503  27.349317235756708 26.463327122312887  19.253492770559998 26.463327181958284  C 11.163755405641755 26.463327181958284  4.005342183671372 23.116649264369862  3.098366322936997 19.116514127639924  Z M 3.098366322936997 25.92590444848985  L 3.098366322936997 24.362492854795825  C 6.458437829223974 27.507637254789252  12.368998407168421 29.565722006345357  19.253492770559998 29.565722006345357  C 26.13798713395146 29.565722006345357  32.31637947019624 27.507637254789252  35.67645097648333 24.356385764045562  L 35.67645097648333 25.91979735773965  C 34.77556221602743 29.92603952557439  27.349317235756708 33.27271744316281  19.253492770559998 33.27271744316281  C 11.163755405641755 33.27271744316281  4.005342183671372 29.92603952557439  3.098366322936997 25.92590444848985  Z M 3.098366322936997 32.73529470969438  L 3.098366322936997 31.17188311600035  C 6.458437829223974 34.31702751599378  12.368998407168421 36.37511226754992  19.253492770559998 36.3751123271953  C 26.13798713395146 36.3751123271953  32.31637947019624 34.31702757563917  35.67645097648333 31.16577608489549  L 35.67645097648333 32.729187618944174  C 34.77556221602743 36.73542978677896  27.349317235756708 40.08210770436737  19.253492770559998 40.08210776401274  C 11.163755405641755 40.08210776401274  4.005342183671372 36.73542984642431  3.098366322936997 32.73529470969438  Z M 35.73123476008905 39.0805472071427  C 35.29905165097133 43.28221586146759  27.65367153627761 46.89149802521726  19.259579870838465 46.89149802521726  C 10.859401105120737 46.89149802521726  3.4818527487272437 43.28221580182222  3.0435825393311617 39.0805472071427  L 3.098366322936997 39.0805472071427  L 3.098366322936997 37.98127343685028  C 6.458437829223974 41.12641783684371  12.368998407168421 43.18450258839982  19.253492770559998 43.18450258839982  C 26.13798713395146 43.18450258839982  32.31637947019624 41.12641783684371  35.67645097648333 37.97516634610002  L 35.67645097648333 39.0805472071427  L 35.73123476008905 39.0805472071427  Z " fill-rule="nonzero" fill="#1abc9c" stroke="none" transform="matrix(1 0 0 1 584 98 )" />
  </g>
</svg>