<?xml version="1.0" encoding="utf-8"?>
<svg version="1.1" xmlns:xlink="http://www.w3.org/1999/xlink" width="12px" height="13px" xmlns="http://www.w3.org/2000/svg">
  <g transform="matrix(1 0 0 1 -1042 -925 )">
    <path d="M 2.487479125 0.267111859375  L 2.487479125 1.7896494218749999  L 0.69782971875 1.7896494218749999  L 0.69782971875 0.267111859375  C 0.69782971875 0.11574846874999997  0.8224819218750001 0  0.9649415625 0  L 2.2203672812499997 0  C 2.3717306718749995 0  2.487479140625 0.124652203125  2.487479125 0.267111859375  Z M 11.364496390625 0.258208125  L 11.364496390625 1.7896494218749999  L 9.57484696875 1.7896494218749999  L 9.57484696875 0.267111859375  C 9.57484696875 0.11574846874999997  9.699499171875 0  9.8419588125 0  L 11.106288265625 0  C 11.248747921875001 0  11.364496390625 0.11574846874999999  11.364496390625 0.258208125  Z M 3.3066221406249996 8.868113515625  L 3.3066221406249996 7.078464109375  L 5.0962715625 7.078464109375  L 5.0962715625 8.868113515625  L 3.3066221406249996 8.868113515625  Z M 6.8503060625 8.868113515625  L 6.8503060625 7.078464109375  L 8.639955484375 7.078464109375  L 8.639955484375 8.868113515625  L 6.8503060625 8.868113515625  Z M 3.3066221406249996 12.429604890624999  L 3.3066221406249996 10.639955484375  L 5.0962715625 10.639955484375  L 5.0962715625 12.429604890624999  L 3.3066221406249996 12.429604890624999  Z M 6.8503060625 12.429604890624999  L 6.8503060625 10.639955484375  L 8.639955484375 10.639955484375  L 8.639955484375 12.429604890624999  L 6.8503060625 12.429604890624999  Z " fill-rule="nonzero" fill="#999999" stroke="none" transform="matrix(1 0 0 1 1042 925 )" />
  </g>
</svg>