<?xml version="1.0" encoding="utf-8"?>
<svg version="1.1" xmlns:xlink="http://www.w3.org/1999/xlink" width="10px" height="6px" xmlns="http://www.w3.org/2000/svg">
  <g transform="matrix(1 0 0 1 -1014 -21 )">
    <path d="M 9.814453125 0.1979166666666572  C 9.938151041666629 0.32986111111111427  10 0.48611111111111427  10 0.6666666666666572  C 10 0.8472222222222285  9.938151041666629 1.0034722222222285  9.814453125 1.1354166666666572  L 5.439453125 5.802083333333343  C 5.3157552083332575 5.9340277777777715  5.1692708333332575 6  5 6  C 4.8307291666667425 6  4.6842447916667425 5.9340277777777715  4.560546875 5.802083333333343  L 0.185546875 1.1354166666666572  C 0.06184895833337123 1.0034722222222285  0 0.8472222222222285  0 0.6666666666666572  C 0 0.48611111111111427  0.06184895833337123 0.32986111111111427  0.185546875 0.1979166666666572  C 0.30924479166662877 0.06597222222222854  0.45572916666662877 0  0.625 0  L 9.375 0  C 9.544270833333371 0  9.690755208333371 0.06597222222222854  9.814453125 0.1979166666666572  Z " fill-rule="nonzero" fill="#cccccc" stroke="none" transform="matrix(1 0 0 1 1014 21 )" />
  </g>
</svg>