<?xml version="1.0" encoding="utf-8"?>
<svg version="1.1" xmlns:xlink="http://www.w3.org/1999/xlink" width="47px" height="47px" xmlns="http://www.w3.org/2000/svg">
  <g transform="matrix(1 0 0 1 -350 -308 )">
    <path d="M 39.889638671875 40.1887109375  C 49.24318359375 30.842822265625  49.24318359375 16.157177734375  40.223642578125 6.811767578125  C 30.87009765625 -2.2001171875  16.1710546875 -2.2001171875  6.81750976562501 6.811767578125  C -2.20203125 16.157177734375  -2.20203125 30.84330078125  6.81750976562501 40.1887109375  C 15.83705078125 49.200595703125  30.87009765625 49.200595703125  39.889638671875 40.1887109375  Z M 32.4856334293797 26.8020039731372  L 30.87009765625 37.852119140625  L 20.18005859375 31.5103515625  L 20.18005859375 38.853173828125  L 16.50505859375 38.853173828125  L 16.50505859375 29.507763671875  L 27.19509765625 16.490703125  L 13.4990234375 23.16599609375  L 16.171533203125 24.5010546875  L 13.83302734375 27.50517578125  L 5.147490234375 23.16599609375  L 35.21310546875 8.14634765625  L 32.4856334293797 26.8020039731372  Z " fill-rule="nonzero" fill="#43a6f9" stroke="none" transform="matrix(1 0 0 1 350 308 )" />
  </g>
</svg>