<?xml version="1.0" encoding="utf-8"?>
<svg version="1.1" xmlns:xlink="http://www.w3.org/1999/xlink" width="25px" height="31px" xmlns="http://www.w3.org/2000/svg">
  <g transform="matrix(1 0 0 1 -171 -315 )">
    <path d="M 23.6704961888136 28.7013386979167  C 22.5645091261062 30.1936511154514  20.4631337717782 30.9972039453125  17.9193635923673 31  L 7.30188796321902 31  C 4.42632164339045 30.9972039453125  2.54614370160394 30.3084443576389  1.32955795423125 28.8161319401042  C 0.223570891523764 27.4386128096065  -0.108225205683041 25.4871273336227  0.223570934734482 22.9616755570023  L 1.21895926956581 10.7935897323495  L 1.21895926956581 10.678796490162  C 1.88255150719024 7.23499859664351  4.31572300193587 6.08706599537037  6.08530221584621 6  L 19.0253506118639 6  C 20.9055285968612 6.08706599537037  23.1175026790653 7.23499864149306  23.891693601355 10.678796490162  L 23.891693601355 10.7935897323495  L 24.8870819361864 23.0764687991898  C 25.2188780333933 25.3723340465857  24.7764832515211 27.3238195225694  23.6704961888136 28.7013386979167  Z M 6.19590094372236 8  C 5.53230870609794 8.15334466869214  3.76272944897676 8.38293119791668  3.20973593922848 11.0231762615741  L 2.21434760439715 23.1912620862269  C 1.88255150719024 25.1427475622107  2.10374891973171 26.6350599797454  2.87793979881084 27.4386128096065  C 3.6521307211007 28.3569589265046  5.08991388101488 28.8161319401042  7.30188796321902 28.8161319401042  L 17.9193635923673 28.8161319401042  C 19.3571467522816 28.8161319401042  21.2373247372788 28.5865454108796  22.2327130288993 27.2090262803819  C 23.0069039511891 26.2906801634838  23.2281013637306 24.9131610329861  23.0069039511891 23.1912620862269  L 22.0115156163578 10.9083830193866  C 21.5691207912749 9.07169083043982  20.4631337717782 8.03855147135417  19.1359493397401 8  L 6.19590094372236 8  Z M 9.62446077329921 4.47996033564816  C 9.73505945796464 5.05392663628473  9.29266467609241 5.39830645254631  8.73967112313331 5.39830640769675  L 8.51847371059182 5.39830640769675  C 7.96548020084344 5.28351316550926  7.63368406042592 4.70954682002315  7.74428278830197 4.13558051938658  C 8.18667761338492 1.72492202980324  10.2880530109236 0.00302308304397059  12.6106257777931 0.00302308304397059  C 14.9331985446627 0.00302308304397059  16.9239752575359 1.72492202980324  17.3663700394082 4.02078727719908  C 17.4769687240736 4.59475357783565  17.1451726268667 5.16871992332176  16.5921791171184 5.28351316550926  C 16.03918560737 5.39830640769677  15.4861920544109 5.05392663628473  15.3755933697456 4.47996033564816  C 15.1543959572041 3.10244120515046  13.9378102098313 2.06930184606482  12.5000270931278 2.06930180121527  C 11.0622439764242 2.06930175636573  9.95625691371683 3.10244116030093  9.62446077329921 4.47996033564816  Z " fill-rule="nonzero" fill="#ffffff" stroke="none" transform="matrix(1 0 0 1 171 315 )" />
  </g>
</svg>