<?xml version="1.0" encoding="utf-8"?>
<svg version="1.1" xmlns:xlink="http://www.w3.org/1999/xlink" width="11px" height="5px" xmlns="http://www.w3.org/2000/svg">
  <g transform="matrix(1 0 0 1 -178 -334 )">
    <path d="M 10.6623235451211 1.87390341796875  C 9.6523090959821 3.87352797851563  7.74450400589922 4.998316796875  5.61225129942602 4.998316796875  C 3.47999854910711 4.998316796875  1.57219350286994 3.87352797851563  0.337731393494892 1.87390341796875  C 0.0010599250638279 1.37399726562501  0.113283733258982 0.624138037109375  0.562179053730915 0.24920844726563  C 1.01107437420285 -0.125721142578115  1.68441735491069 -0.000744628906247158  2.02108882334187 0.499161523437508  C 2.80665561224487 1.74892690429688  4.15334157366067 2.62376264648438  5.50002749123087 2.62376264648438  C 6.95893726084182 2.62376264648438  8.19339937021687 1.87390341796876  8.97896615911986 0.499161523437508  C 9.31563762755104 -0.000744628906247158  9.87675680006373 -0.125721142578115  10.4378758848852 0.24920844726563  C 10.8867712053571 0.624138037109375  10.9989950135523 1.24902075195313  10.6623235451211 1.87390341796875  Z " fill-rule="nonzero" fill="#ffffff" stroke="none" transform="matrix(1 0 0 1 178 334 )" />
  </g>
</svg>