<?xml version="1.0" encoding="utf-8"?>
<svg version="1.1" xmlns:xlink="http://www.w3.org/1999/xlink" width="39px" height="39px" xmlns="http://www.w3.org/2000/svg">
  <g transform="matrix(1 0 0 1 -164 -429 )">
    <path d="M 14.5971428571429 38.3592857142857  C 16.1849999999999 38.7771428571428  17.8285714285714 39  19.5 39  C 30.2528571428571 39  39 30.2528571428571  39 19.5  C 39 8.74714285714285  30.2528571428571 0  19.5 0  C 8.74714285714288 0  0 8.74714285714285  0 19.5  C 0 26.6314285714286  3.87214285714288 33.1778571428571  10.14 36.6042857142857  C 10.4185714285715 36.7435714285714  10.6692857142857 36.8828571428571  10.9478571428572 37.0221428571429  C 12.1178571428571 37.5792857142857  13.3435714285714 38.0528571428571  14.5971428571429 38.3592857142857  Z M 18.2464285714286 31.5064285714286  L 18.1907142857143 31.3671428571429  L 17.2435714285714 30.42  L 19.2492857142857 28.4142857142857  L 21.255 30.42  L 20.1685714285715 31.5064285714286  L 20.7814285714286 32.175  L 20.7814285714286 36.7435714285714  C 20.3357142857143 36.7714285714286  19.9178571428572 36.7992857142857  19.4721428571429 36.7992857142857  C 18.8592857142858 36.7992857142857  18.2742857142857 36.7714285714286  17.6614285714286 36.7157142857143  L 17.6614285714286 32.2028571428571  L 18.2464285714286 31.5064285714286  Z M 11.895 35.0164285714286  C 11.6721428571428 34.905  11.4492857142857 34.7935714285714  11.1985714285714 34.6542857142857  C 10.8085714285714 34.4314285714286  10.4464285714286 34.2085714285714  10.0564285714286 33.9857142857143  L 10.0564285714286 27.6621428571428  C 10.0564285714286 27.3278571428571  10.0564285714286 26.91  10.3907142857142 26.3807142857143  C 10.8085714285714 25.74  11.2821428571428 25.155  11.8392857142857 24.6257142857143  C 12.87 23.6507142857143  14.1235714285714 22.8707142857143  15.4885714285714 22.3692857142857  C 12.3407142857143 20.9207142857143  10.14 17.7171428571428  10.14 14.04  C 10.14 8.97  14.2628571428571 4.84714285714284  19.3328571428572 4.84714285714284  C 24.4028571428571 4.84714285714284  28.5257142857142 8.97  28.5257142857142 14.04  C 28.5257142857142 17.7171428571428  26.325 20.9207142857143  23.205 22.3692857142857  C 24.96 23.01  26.5478571428572 24.0685714285714  27.6900000000001 25.4892857142857  C 27.7178571428572 25.545  27.7735714285715 25.5728571428571  27.8014285714286 25.6285714285714  C 28.1357142857142 26.0185714285714  28.665 26.6314285714286  28.665 27.495  L 28.665 34.0971428571428  C 27.9685714285714 34.5428571428571  27.2164285714285 34.9328571428571  26.4364285714286 35.295  L 26.4364285714286 28.0521428571429  L 26.4364285714286 27.495  C 26.4085714285715 27.4392857142857  26.2135714285714 27.2164285714286  26.1021428571429 27.0771428571429  C 26.0464285714286 27.0214285714286  26.0185714285715 26.9657142857143  25.9628571428572 26.91  C 24.4307142857143 25.0435714285714  21.9514285714286 23.9292857142857  19.3607142857143 23.9292857142857  C 18.3578571428571 23.9292857142857  17.4107142857143 24.0685714285714  16.4914285714285 24.375  C 15.3214285714286 24.765  14.235 25.4057142857143  13.3714285714286 26.2414285714286  C 12.9535714285714 26.6314285714286  12.5914285714285 27.0771428571429  12.2571428571429 27.5507142857143  L 12.2571428571429 35.1835714285714  C 12.1457142857142 35.1278571428572  12.0064285714286 35.0721428571429  11.895 35.0164285714286  Z " fill-rule="nonzero" fill="#43a6f9" stroke="none" transform="matrix(1 0 0 1 164 429 )" />
  </g>
</svg>