<?xml version="1.0" encoding="utf-8"?>
<svg version="1.1" xmlns:xlink="http://www.w3.org/1999/xlink" width="47px" height="47px" xmlns="http://www.w3.org/2000/svg">
  <g transform="matrix(1 0 0 1 -160 -425 )">
    <path d="M 46.9440476190476 23.5  C 46.9440476190476 10.575  36.425 0.0839285714285722  23.5 0.0839285714285722  C 10.575 0.0839285714285722  0.0559523809523625 10.6029761904762  0.0559523809523625 23.5279761904762  C 0.0559523809523625 30.3821428571429  3.04940476190473 36.9005952380952  8.28095238095239 41.3488095238095  C 8.64464285714291 41.6565476190476  9.17619047619053 41.6005952380953  9.45595238095234 41.264880952381  C 9.7636904761905 40.9011904761905  9.70773809523814 40.3696428571429  9.37202380952385 40.089880952381  C 4.53214285714284 35.9494047619048  1.73452380952381 29.9065476190476  1.73452380952381 23.5279761904762  C 1.73452380952381 11.5261904761905  11.4982142857143 1.76250000000002  23.5 1.76250000000002  C 35.5017857142857 1.76250000000002  45.2654761904762 11.5261904761905  45.2654761904762 23.5279761904762  C 45.2654761904762 35.5297619047619  35.5017857142857 45.2934523809524  23.5 45.2934523809524  C 21.3458333333333 45.2934523809524  19.1916666666667 44.9857142857143  17.1494047619047 44.3422619047619  C 16.7017857142857 44.202380952381  16.2261904761905 44.4541666666667  16.1142857142858 44.9017857142857  C 15.9744047619048 45.3494047619048  16.2261904761905 45.825  16.6738095238095 45.9369047619048  C 18.8839285714286 46.6083333333333  21.1779761904762 46.9440476190476  23.5 46.9440476190476  C 36.425 46.9440476190476  46.9440476190476 36.425  46.9440476190476 23.5  Z " fill-rule="nonzero" fill="#43a6f9" stroke="none" transform="matrix(1 0 0 1 160 425 )" />
  </g>
</svg>