<?xml version="1.0" encoding="utf-8"?>
<svg version="1.1" xmlns:xlink="http://www.w3.org/1999/xlink" width="24px" height="24px" xmlns="http://www.w3.org/2000/svg">
  <g transform="matrix(1 0 0 1 -367 -436 )">
    <path d="M 4.56031063092911 2.26412182344768  C 3.30425616370741 2.26412182344768  2.28551057889013 3.28138537961586  2.28368199405571 4.53743851579484  L 2.28368199405571 15.6970434782609  C 2.28514536704728 16.9533557463607  3.30399837863683 17.9710226725563  4.56031149901673 17.9710226725563  C 4.56119648179623 17.9710226725563  4.56208146449353 17.9710221565343  4.56296644667123 18  L 19.4486310494225 18  C 19.4499585685309 17.9710234467526  19.4512860894196 17.9710246078844  19.4526136105591 17.9710246078844  C 20.7086684930978 17.9710246078844  21.7274142504606 16.9537604040821  21.729242248981 15.6977068517323  L 21.729242248981 4.53810184391983  C 21.7277775716734 3.28101219975371  20.7077111409072 2.26302452727758  19.4506211244905 2.26412424303668  L 4.56362982014264 2.26412424303668  C 4.5625234244726 2.26412262997756  4.56141702777506 2.26412182344768  4.56031063092911 2.26412182344768  Z M 4.40110808101224 0.320496881453806  L 19.7405068517323 0.320496881453806  C 19.7427198960669 0.32049314509203  19.744932943163 0.320491276910147  19.7471459906516 0.320491276910147  C 21.9163420411229 0.320491276910147  23.6758469904091 2.07703311764574  23.6795031185462 4.24622608695653  L 23.6795031185462 16.085105577106  C 23.6776735427074 18.255594399294  21.9176313953943 20.014153574947  19.7471418021019 20.014153574947  C 19.7458146194557 20.014153574947  19.7444874368912 20.0141529030556  19.7431602549253 20  L 4.40110808101224 20  C 4.3993382344118 20.0141539481462  4.39756838639619 20.0141551425831  4.39579853818356 20.0141551425831  C 2.22509360948408 20.0141551425831  0.464672220386944 18.2558089957702  0.462111814198352 16.085105577106  L 0.462111814198352 4.24954286362092  C 0.464672220386944 2.07883944495675  2.22509360948408 0.320493298143766  4.39579853818356 0.320493298143766  C 4.39756838639704 0.320493298143766  4.39933823441095 0.320494492580714  4.40110808101224 0.320496881453806  Z M 7.50892173913041 21.5173118141984  L 16.6300397450747 21.5173118141984  C 17.1880065030272 21.5173118141984  17.6403279308764 21.9696332420475  17.6403279308764 22.5276  C 17.6403279308764 23.0855667579525  17.1880065030272 23.5378881858016  16.6300397450747 23.5378881858016  L 7.50892173913041 23.5378881858016  C 6.95095498117797 23.5378881858016  6.49863355332883 23.0855667579525  6.49863355332883 22.5276  C 6.49863355332883 21.9696332420475  6.95095498117797 21.5173118141984  7.50892173913041 21.5173118141984  Z M 5.20442982014265 14.2117938082541  L 5.20376644667118 14.2124571363791  C 5.04976252343801 14.3582822322842  4.84573488115905 14.4395519525159  4.63364488383019 14.4395519525159  C 4.17569449283405 14.4395519525159  3.8044523502025 14.0683098098844  3.8044523502025 13.6103594188882  C 3.8044523502025 13.3583684038151  3.91904203970336 13.1200508378218  4.11586583203126 12.9626981560802  L 7.97658634188178 9.59484967000679  C 8.12773151475864 9.46262855389347  8.32172460550231 9.38975135931422  8.52254115569235 9.38975135931422  C 8.90541443129075 9.38975135931422  9.23850635252876 9.65189359542819  9.32850184391981 10.0240397450747  L 9.88306583203126 12.3225614842052  L 11.9659974960937 7.79848695652174  C 12.101751267556 7.50536127837591  12.3953806343821 7.31775802295312  12.7184158486463 7.31775802295312  C 12.9701809146194 7.31775802295312  13.2083101615306 7.43214326193981  13.3656745276834 7.6286683359375  L 15.4399826086956 10.2290161620245  L 18.8529391304348 6.61771677666439  C 19.0096893674612 6.4519390363022  19.2277769158412 6.35800829783823  19.4559279535496 6.35800829783823  C 19.9142476759984 6.35800829783823  20.2857892209287 6.72954984276863  20.2857892209287 7.18786956521738  C 20.2857892209287 7.39992670758813  20.2046097687438 7.6039386632337  20.0589167766644 7.75802235377037  L 15.9912298201427 12.0618633734715  C 15.8345735909754 12.2278766162803  15.6164105873902 12.3219702468802  15.3881529020326 12.3219702468802  C 15.1359666345717 12.3219702468802  14.8974863910864 12.2072037390633  14.7401440929008 12.0101217391304  L 12.9086235830503 9.7149167766644  L 10.3878782608696 15.1842707944973  C 10.0595180059443 15.8987030731997  9.01473539724861 15.7972099249321  8.82965964028534 15.0316993853601  L 8.03562485767662 11.7427900750679  L 5.20442982014265 14.2117938082541  Z " fill-rule="nonzero" fill="#ffffff" stroke="none" transform="matrix(1 0 0 1 367 436 )" />
  </g>
</svg>