<?xml version="1.0" encoding="utf-8"?>
<svg version="1.1" xmlns:xlink="http://www.w3.org/1999/xlink" width="26px" height="20px" xmlns="http://www.w3.org/2000/svg">
  <g transform="matrix(1 0 0 1 -549 -436 )">
    <path d="M 4.76833974873307 12.676518902658  L 2.92792792792784 12.676518902658  C 2.37580439541102 12.676518902658  2.00772199465086 13.0377668372845  2.00772199465086 13.5796387392241  L 2.00772199465086 17.1921182201868  C 2.00772199465086 17.7339901221264  2.37580434966208 18.0952381016523  2.92792792792784 18.0952381016523  L 4.76833974873307 18.0952381016523  C 5.32046328125011 18.0952381016523  5.68854568201004 17.7339901670259  5.68854568201004 17.1921182201868  L 5.68854568201004 13.5796387392241  C 5.68854568201004 13.0377668372845  5.32046332699883 12.6765188577586  4.76833974873307 12.676518902658  Z M 0.167310173845635 13.5796387392241  C 0.167310173845635 12.0446633890086  1.36391250351903 10.870279139727  2.92792792792784 10.870279139727  L 4.76833974873307 10.870279139727  C 6.3330244334179 10.870279139727  7.52895750281527 12.0446633890086  7.52895754856422 13.5796387392241  L 7.52895754856422 17.1921182201868  C 7.52895754856422 18.7277504040948  6.33302447916662 19.9014778196839  4.76833974873307 19.9014778196839  L 2.92792792792784 19.9014778196839  C 1.36391250351903 19.9014778196839  0.167310173845635 18.7277504040948  0.167310173845635 17.1921182201868  L 0.167310173845635 13.5796387392241  Z M 9.36936936936945 9.96715925826149  C 9.36936936936945 8.43218390804597  10.5659716990428 7.25779965876437  12.1299871234517 7.25779965876437  L 13.9703989900056 7.25779965876437  C 15.5350836746902 7.25779965876437  16.7310167440878 8.43218390804597  16.7310167440878 9.96715925826149  L 16.7310167440878 17.1921182201868  C 16.7310167440878 18.7277504040948  15.5350836746902 19.9014778196839  13.9703989900056 19.9014778196839  L 12.1299871234517 19.9014778196839  C 10.5659716990428 19.9014778196839  9.36936936936945 18.7277504040948  9.36936936936945 17.1921182201868  L 9.36936936936945 9.96715925826149  Z M 13.9703989900056 9.0640394216954  L 12.1299871234517 9.0640394216954  C 11.5778635909346 9.0640394216954  11.2097811901745 9.42528735632183  11.2097811901745 9.96715925826149  L 11.2097811901745 17.1921182201868  C 11.2097811901745 17.7339901221264  11.5778635451859 18.0952381016523  12.1299871234517 18.0952381016523  L 13.9703989900056 18.0952381016523  C 14.5225225225224 18.0952381016523  14.8906049232826 17.7339901670259  14.8906048775339 17.1921182201868  L 14.8906048775339 9.96715925826149  C 14.8906048775339 9.42528735632183  14.5225225225224 9.06403937679598  13.9703989900056 9.0640394216954  Z M 18.571428564893 2.74220034123563  C 18.571428564893 1.20722499102011  19.7680308945664 0.0328407417384966  21.3320463189752 0.0328407417385108  L 23.1724581855292 0.0328407417385108  C 24.737142870214 0.0328407417385108  25.9330759396114 1.20722499102011  26 2.74220034123563  L 26 17.1921182201868  C 25.9330759396114 18.7277504040948  24.737142870214 19.9014778196839  23.1724581855292 19.9014778196839  L 21.3320463189752 19.9014778196839  C 19.7680308945664 19.9014778196839  18.571428564893 18.7277504040948  18.571428564893 17.1921182201868  L 18.571428564893 2.74220034123563  Z M 23.1724581855292 1.83908045977012  L 21.3320463189752 1.83908045977012  C 20.7799227864584 1.83908045977012  20.4118403856983 2.20032839439655  20 2.74220034123563  L 20 17.1921182201868  C 20.411840431447 17.7339901221264  20.7799227864584 18.0952381016523  21.3320463189752 18.0952381016523  L 23.1724581855292 18.0952381016523  C 23.7245817180462 18.0952381016523  24.0926641188064 17.7339901670259  24 17.1921182201868  L 24 2.74220034123563  C 24.0926640730574 2.20032843929597  23.7245817180462 1.83908045977012  23.1724581855292 1.83908045977012  Z " fill-rule="nonzero" fill="#ffffff" stroke="none" transform="matrix(1 0 0 1 549 436 )" />
  </g>
</svg>