<?xml version="1.0" encoding="utf-8"?>
<svg version="1.1" xmlns:xlink="http://www.w3.org/1999/xlink" width="32px" height="26px" xmlns="http://www.w3.org/2000/svg">
  <g transform="matrix(1 0 0 1 -895 -135 )">
    <path d="M 26.9197337654518 21.23813334375  C 26.9197337654518 22.9154666875  25.5552005349687 24.28  23.8778673617005 24.28  C 22.2008008446601 24.28  20.836267614177 22.91546665625  20.836267614177 21.23813334375  C 20.836267614177 19.5610666875  22.2008008446601 18.19653334375  23.8778673617005 18.19653334375  C 25.5552005662187 18.19653334375  26.9197337654518 19.5610666875  26.9197337654518 21.23813334375  Z M 11.0154684293801 21.23813334375  C 11.0154684293801 22.9154666875  9.65120188637484 24.28  7.9738686818566 24.28  C 6.29653547733836 24.28  4.93200227810528 22.91546665625  4.93200224685528 21.23813334375  C 4.93200224685528 19.5610666875  6.29653547733836 18.19653334375  7.9738686818566 18.19653334375  C 9.65120188637484 18.19653334375  11.0154684293801 19.5610666875  11.0154684293801 21.23813334375  Z M 32 0.2  L 9.41173521875245 0.2  C 8.96990745556297 0.2  8.61173528515869 0.558172200135366  8.61173528515869 1  L 8.61173528515869 3.93173334375  C 8.61177365766599 4.18650469798663  8.49046090077716 4.42606027993931  8.28506865602457 4.5768  L 0.326669316633895 10.41733334375  C 0.121352802809956 10.5680174666103  4.91953409687236E-05 10.8074559388561  0 11.06213334375  L 0 19.71813334375  C 0 20.1378697536214  0.340266218133843 20.47813334375  0.760002593163847 20.47813334375  C 1.17973896819385 20.47813334375  1.52000253007792 20.1378697536214  1.52000253007792 19.71813334375  L 1.52000253007792 11.83226665625  C 1.5198792187078 11.5774013502188  1.64120115460627 11.3377286310004  1.84666919046203 11.18693334375  L 9.51120186674594 5.56266665625  L 9.80506852985271 5.34693334375  C 10.0103850318779 5.19624921424006  10.1316886271988 4.95681074306764  10.1317351589868 4.70213334375  L 10.1317351589868 2.2  C 10.1317351589868 1.93490332008122  10.3466384612294 1.72  10.6117351191431 1.72  C 10.6117351191431 1.72  10.6117351191431 1.72  10.6117351191431 2  L 30 2  L 30 19.99813334375  C 30.4800001261719 20.2632300236688  30.2650968239293 20.47813334375  30.0000001660156 20.47813334375  L 28.3754669883646 20.47813334375  C 28.0136003621523 18.3208  26.1381338303307 16.67653334375  23.8778673617005 16.67653334375  C 21.6176008930702 16.67653334375  19.7424010487265 18.3210666875  19.3805343912642 20.47813334375  L 12.4712016210428 20.47813334375  C 12.1093349948306 18.3208  10.233868463009 16.67653334375  7.9738686818566 16.67653334375  C 5.454402234742 16.67653334375  3.41200240427714 18.71893334375  3.41200237302715 21.23813334375  C 3.41200237302715 23.7576  5.45466885971987 25.8  7.9738686818566 25.8  C 10.2341351504868 25.8  12.1093349948306 24.15573334375  12.4712016210428 21.99813334375  L 19.3805343912642 21.99813334375  C 19.7424010174765 24.15573334375  21.6178675492981 25.8  23.8778673617005 25.8  C 26.1384005178086 25.8  28.0138670183802 24.15573334375  28.3754669883646 21.99813334375  L 31.2000000664063 21.99813334375  C 31.6418278295957 21.99813334375  32 21.6399611436146  32 21.19813334375  L 32 0.2  Z " fill-rule="nonzero" fill="#ffffff" stroke="none" transform="matrix(1 0 0 1 895 135 )" />
  </g>
</svg>