<?xml version="1.0" encoding="utf-8"?>
<svg version="1.1" xmlns:xlink="http://www.w3.org/1999/xlink" width="28px" height="28px" xmlns="http://www.w3.org/2000/svg">
  <g transform="matrix(1 0 0 1 -815 -132 )">
    <path d="M 27.7083333242188 14  C 27.7083333242188 6.24166667578123  21.2916666757812 0  13.475 0.291666675781272  C 6.35833332421875 0.583333324218728  0.583333324218756 6.35833332421876  0.291666675781244 13.475  C 0 21.2916666757812  6.24166667578125 27.7083333242188  14 27.7083333242188  C 15.1666666757812 27.7083333242188  16.275 27.5625  17.3541666757812 27.3  C 17.6166666757812 27.2416666757812  17.7916666757812 27.0083333242188  17.7916666757812 26.7458333242188  C 17.7916666757812 26.3666666484375  17.4416666757812 26.1041666484375  17.0625 26.1916666757812  C 15.75 26.5125  14.35 26.6583333515625  12.9208333242187 26.5125  C 6.825 25.9875  1.925 21.0291666757813  1.4875 14.9041666757813  C 0.962500000000006 7.55416667578123  6.76666667578125 1.45833332421873  14 1.45833332421873  C 20.9125 1.45833332421873  26.5416666757812 7.08750000000001  26.5416666757812 14  C 26.5416666757812 14.5541666757812  26.5125 15.1375  26.425 15.6625  C 26.3666666757812 16.0125  26.6583333242187 16.3333333242187  27.0083333242188 16.3333333242187  C 27.3 16.3333333242187  27.5625 16.1  27.5916666757813 15.8083333242188  C 27.6791666757813 15.225  27.7083333515625 14.6125  27.7083333242188 14  Z " fill-rule="nonzero" fill="#ffffff" stroke="none" transform="matrix(1 0 0 1 815 132 )" />
  </g>
</svg>