<?xml version="1.0" encoding="utf-8"?>
<svg version="1.1" xmlns:xlink="http://www.w3.org/1999/xlink" width="11px" height="13px" xmlns="http://www.w3.org/2000/svg">
  <g transform="matrix(1 0 0 1 -824 -140 )">
    <path d="M 10.6027777682292 6.12444443541665  C 10.6027777682292 5.80666663958334  10.3277777682292 5.54666666666668  9.99166666666666 5.54666666666668  L 5.98888889843749 5.54666666666668  L 5.98888889843749 4.44888889791667  L 9.04444443489584 1.56  C 9.28888886979166 1.32888889791667  9.28888886979166 0.953333333333319  9.04444443489584 0.751111102083343  L 9.0138888984375 0.722222231249987  C 8.76944446354167 0.491111129166683  8.37222223177083 0.491111129166683  8.15833333333333 0.722222231249987  L 5.37777776822917 3.35111110208334  L 2.59722223177083 0.722222231249987  C 2.352777796875 0.491111129166683  1.95555556510416 0.491111129166683  1.74166666666666 0.722222231249987  L 1.71111110156249 0.751111102083343  C 1.46666666666667 0.982222204166646  1.46666666666667 1.35777776875  1.71111110156249 1.56  L 4.76666666666667 4.44888889791667  L 4.76666666666667 5.54666666666668  L 0.7638888984375 5.54666666666668  C 0.427777796875006 5.54666666666668  0.152777796875 5.80666666666664  0.152777768229171 6.12444443541665  C 0.152777739583328 6.44222220416665  0.427777768229163 6.70222220416667  0.7638888984375 6.70222223125  L 4.76666666666667 6.70222223125  L 4.76666666666667 8.46444443541668  L 1.55833333333334 8.46444443541668  C 1.22222223177083 8.46444443541668  0.947222231770837 8.72444443541667  0.947222231770837 9.04222223125001  C 0.947222231770837 9.36000002708332  1.22222223177083 9.62  1.55833333333334 9.62  L 4.76666666666667 9.62  L 4.76666666666667 12.0755555645833  C 4.76666666666667 12.3933333333333  5.04166666666667 12.6533333333333  5.37777776822917 12.6533333333333  C 5.71388886979166 12.6533333333333  5.98888886979167 12.3933333333333  5.98888889843749 12.0755555645833  L 5.98888889843749 9.62  L 9.19722223177084 9.62  C 9.53333333333333 9.62  9.80833333333334 9.36000000000001  9.80833333333334 9.04222223125001  C 9.80833333333334 8.7244444625  9.53333333333333 8.46444446249998  9.19722223177084 8.46444443541668  L 5.98888889843749 8.46444443541668  L 5.98888889843749 6.70222223125  L 9.99166666666667 6.70222223125  C 10.3277777682292 6.70222223125  10.6027777682292 6.44222223125001  10.6027777682292 6.12444443541665  Z " fill-rule="nonzero" fill="#ffffff" stroke="none" transform="matrix(1 0 0 1 824 140 )" />
  </g>
</svg>