<?xml version="1.0" encoding="utf-8"?>
<svg version="1.1" xmlns:xlink="http://www.w3.org/1999/xlink" width="28px" height="25px" xmlns="http://www.w3.org/2000/svg">
  <g transform="matrix(1 0 0 1 -987 -136 )">
    <path d="M 23.0790005275732 14.0909090909091  C 23.0766863710434 18.4321567715857  19.0141396543601 21.9516831472413  14.0000015009194 21.9563636363636  C 8.98581052183232 21.9563636363638  4.92100420132806 18.437050427458  4.92100420132806 14.0957575757577  C 4.92100420132806 9.75446472405747  8.98581052183232 6.23515151515167  14.0000032279818 6.23515151515167  C 19.0120091378521 6.23515151515167  23.075909082139 9.75151039499059  23.0790005275732 14.0909090909091  Z M 21.7896006658078 14.0909090909091  C 21.7818887297979 10.3695251014051  18.2982030821257 7.35497299251202  14.0000015009194 7.35030303030302  C 9.69792580713573 7.35030303030294  6.21040346830986 10.3698032144744  6.21040346830986 14.0945454545454  C 6.21040346830986 17.8192876946163  9.69792580713573 20.8387878787878  14.0000026331983 20.8387878787878  C 18.3020794592609 20.8387878787878  21.7896017980867 17.8192876946163  21.7896017980867 14.0945454545454  C 21.7896017980867 14.0933333332669  21.7896014206605 14.0921212120114  21.7896006658078 14.0909090909091  Z M 25.2420002956811 17.0921212121212  L 25.2462002952308 17.0884848484849  C 24.5019299438037 17.0878167401353  23.8987721048304 16.5656021049518  23.8980004397694 15.9212121212121  L 23.8980004397694 12.2727272727273  C 23.9019212742637 11.6573810554027  24.4569101521157 11.1503529463959  25.1664003037861 11.1139393939394  L 25.2280002971821 11.1139393939394  L 25.2280002971821 11.0618181818182  C 24.8890228863997 5.91098032189734  19.9658679757453 1.88446376136758  14.0070015001689 1.88446376136758  C 8.04813502459254 1.88446376136758  3.12498011393808 5.91098032189734  2.78600270315584 11.0618181818182  L 2.78600270315584 11.1139393939394  L 2.84760269655177 11.1139393939394  C 3.55409588863085 11.1534385653772  4.10465844615135 11.6597760943984  4.10760256146904 12.2727272727273  L 4.10760256146904 15.9248484848485  C 4.10683266213709 16.5687660954541  3.50452626507507 17.0907856277722  2.76080270585749 17.0921212121212  L 1.36080285594943 17.0921212121212  C 1.35706860281795 17.092148051108  1.3533342371062 17.0921614707748  1.34959985531137 17.0921614707748  C 0.60423643684905 17.0921614707748  0 16.5690129845165  0 15.92367662229  C 0 15.9228551212456  0 15.9220336204293  0 15.9212121212121  L 0 12.2727272727273  C 0.00154327225948236 11.6292829739313  0.603624772016076 11.1080002342734  1.34680285745034 11.1066666666667  L 1.47140284409215 11.1066666666667  L 1.47140284409215 11.0606060606061  C 1.80970609324643 5.28631330874532  7.31581931764458 0.754803988516471  13.9937015015948 0.754803988516471  C 20.671583685545 0.754803988516471  26.1776969099432 5.28631330874532  26.5160001590974 11.0606060606061  L 26.5160001590974 11.1066666666667  L 26.6420001455891 11.1066666666667  C 27.3859514279308 11.1080002397573  27.9886597242961 11.6298256605199  27.9902000010507 12.2739393939394  L 27.9902000010507 15.9260606060606  C 27.9886574012929 16.569977176581  27.385724906105 17.0914546325416  26.6420001455891 17.0921212121212  L 25.2420002956811 17.0921212121212  Z M 25.1888003013846 12.2145454545455  L 25.1888003013846 15.9721212121212  L 26.7106001382347 15.9721212121212  L 26.7106001382347 12.2145454545455  L 25.1888003013846 12.2145454545455  Z M 1.2880028637542 15.9721212121212  L 1.2894028636041 15.9721212121212  L 2.81120270045417 15.9721212121212  L 2.81120270045417 12.2145454545455  L 1.2880028637542 12.2145454545455  L 1.2880028637542 15.9721212121212  Z M 8.42940209813523 25  L 8.42940209813523 23.8836363636364  L 19.5594009049043 23.8836363636364  L 19.5594009049043 25  L 8.42940209813523 25  Z " fill-rule="nonzero" fill="#ffffff" stroke="none" transform="matrix(1 0 0 1 987 136 )" />
  </g>
</svg>