<?xml version="1.0" encoding="utf-8"?>
<svg version="1.1" xmlns:xlink="http://www.w3.org/1999/xlink" width="27px" height="25px" xmlns="http://www.w3.org/2000/svg">
  <g transform="matrix(1 0 0 1 -1079 -135 )">
    <path d="M 8.18307691874998 12.2115384521485  C 8.18307691874998 12.1153845947265  8.18307691874998 12.2115384521485  8.18307691874998 12.2115384521485  C 8.07230767499999 12.3076923095703  7.96153845937499 12.4038461425781  7.96153845937499 12.5961538574219  L 6.85384616250002 15.8653846191406  C 6.74307691874998 16.0576923095703  6.85384616250002 16.25  6.96461537812502 16.3461538574219  C 7.075384621875 16.5384615478516  7.29692308124999 16.6346154052734  7.40769229687498 16.6346153808594  L 7.96153845937499 16.6346153808594  L 12.50307691875 15.9615384521484  C 12.724615378125 15.9615384521484  12.835384621875 15.8653845947265  12.9461538375 15.7692307617187  L 13.05692308125 15.6730769287109  L 26.127692296875 4.71153845214843  C 26.90307691875 4.03846152343749  27.013846134375 2.98076921386718  26.238461540625 2.21153845214843  C 26.238461540625 2.21153845214843  26.238461540625 2.11538459472658  26.127692296875 2.11538461914063  L 24.687692296875 0.961538452148431  C 23.801538459375 0.288461523437519  22.472307675 0.288461523437519  21.69692308125 0.961538452148431  L 8.18307691874998 12.2115384521485  Z M 8.73692308124998 15.0961538574219  L 9.40153845937499 13.0769230712891  L 22.804615378125 1.92307692871094  C 23.0261538375 1.73076923828125  23.358461540625 1.73076923828125  23.58 1.92307692871094  L 25.02 3.07692307128906  C 25.241538459375 3.26923076171875  25.241538459375 3.46153845214843  25.02 3.65384614257812  L 11.94923075625 14.6153846191406  L 8.73692308124998 15.0961538574219  Z M 26.90307691875 11.3461538574219  C 26.792307675 11.0576923095703  26.46 10.6730769287109  26.01692308125 10.6730769287109  C 25.5738461625 10.6730769287109  25.241538459375 10.9615384765625  25.241538459375 11.3461538574219  L 25.241538459375 19.3269230712891  C 25.241538459375 19.8076923095703  24.798461540625 20.0961538330078  24.355384621875 20.0961538574219  L 17.2661538375 20.0961538574219  L 15.8261538375 21.3461538574219  L 14.0538461625 22.7884615478516  L 11.838461540625 21.4423076904297  L 10.287692296875 20.1923076904297  L 2.75538462187501 20.1923076904297  C 2.201538459375 20.1923076904297  1.86923078437502 19.8076923095703  2 19.4230769287109  L 2 5.09615385742188  C 1.86923075624998 4.61538461914063  2.312307675 4.32692309570311  2.75538462187501 4.32692307128906  L 9.18000000000001 4.32692307128906  C 9.62307691874997 4.32692307128906  9.955384621875 3.94230769042969  9.955384621875 3.55769230957031  C 9.955384621875 3.26923076171875  9.62307691874997 2.88461538085937  9.18000000000001 2.88461538085937  L 2.75538462187501 2.88461538085937  C 1.31538462187501 2.88461538085937  0.207692296874995 3.84615385742188  0.207692296874995 5.09615385742188  L 0.207692296874995 19.3269230712891  C 0.207692296874995 20.5769230712891  1.31538459375003 21.5384615234375  2.75538462187501 21.5384615478516  L 9.62307691874997 21.5384615478516  L 13.167692296875 24.3269230712891  C 13.278461540625 24.4230769287109  13.5 24.5192307617187  13.721538459375 24.5192307617187  C 13.94307691875 24.5192307617187  14.0538461625 24.4230769042969  14.275384621875 24.3269230712891  L 17.70923075625 21.5384615478516  L 24.355384621875 21.5384615478516  C 25.795384621875 21.5384615478516  26.90307691875 20.5769230957031  26.90307691875 19.3269230712891  L 26.90307691875 11.3461538574219  Z " fill-rule="nonzero" fill="#ffffff" stroke="none" transform="matrix(1 0 0 1 1079 135 )" />
  </g>
</svg>