<?xml version="1.0" encoding="utf-8"?>
<svg version="1.1" xmlns:xlink="http://www.w3.org/1999/xlink" width="28px" height="28px" xmlns="http://www.w3.org/2000/svg">
  <g transform="matrix(1 0 0 1 -1163 -132 )">
    <path d="M 27.6343030195313 14.0008484765625  C 27.6413231056088 11.5185136731062  26.9615049893479 9.08262110253088  25.670060609375 6.96266667578126  C 25.5161440313277 6.709496867073  25.2413160874027 6.55494828169168  24.9450303046875 6.55494828169168  C 24.4764132288975 6.55494828169168  24.0965240297385 6.93483748085058  24.0965240297385 7.40345455664064  C 24.0965240297385 7.55892115695443  24.1392371402311 7.71139958185816  24.22 7.84424243749999  C 25.3493221619684 9.69877260081509  25.9436798349877 11.829533116243  25.9373333242187 14.0008484765625  C 25.9373333242187 20.5503030195313  20.6088484765625 25.8787878671875  14.0585454570312 25.8787878671875  C 7.50824243749997 25.8787878671875  2.17975758984375 20.5503030195313  2.17975756250002 14.0008484765625  C 2.17975756250002 7.45054545703124  7.50824241015624 2.12121210546877  14.0585454570312 2.1212121328125  C 16.9579892099183 2.11552444051895  19.7583142583317 3.17610262968648  21.9265454570312 5.1010909140625  C 22.0817376457974 5.23846397343831  22.2818326864905 5.3143023962042  22.4890909140625 5.3143023962042  C 22.957829691064 5.3143023962042  23.3378175485479 4.93431453872029  23.3378175485479 4.46557576171875  C 23.3378175485479 4.22253313447555  23.2336234397241 3.9911519670222  23.0516363710938 3.83006060937501  C 20.5730133479644 1.63039598586752  17.3724647737876 0.418300322867481  14.0585454570312 0.424242437499998  C 6.5732121328125 0.424242437499998  0.48278789453127 6.51466667578126  0.482787867187483 14.0008484765625  C 0.482787867187483 21.4861818007813  6.57321210546877 27.5757575625  14.0585454570312 27.5757575625  C 21.5438788085938 27.5757575625  27.6343030195313 21.4861818007813  27.6343030195313 14.0008484765625  Z " fill-rule="nonzero" fill="#ffffff" stroke="none" transform="matrix(1 0 0 1 1163 132 )" />
  </g>
</svg>