<?xml version="1.0" encoding="utf-8"?>
<svg version="1.1" xmlns:xlink="http://www.w3.org/1999/xlink" width="17px" height="15px" xmlns="http://www.w3.org/2000/svg">
  <g transform="matrix(1 0 0 1 -1169 -137 )">
    <path d="M 9.3054800756579 1.25304813419118  C 9.29003213817356 1.22656009909912  9.273236657491 1.20085887395376  9.25515789473684 1.17604279411765  C 9.07642744407895 0.933903750000013  8.69640829769736 0.528342270220605  8.15848165953946 0.528342242647057  C 7.54593939309211 0.528342242647057  7.16678788980261 1.03058823529412  7.02015947861844 1.26673797794118  L 0.244019146381561 12.84064171875  C 0.0600829490131787 13.1845989430147  -0.037090896381585 13.7604278216912  0.294341299342079 14.2498395772059  C 0.595406685855266 14.6956149816176  1.12639234703948 14.8265240625  1.28169696546053 14.8564705974265  C 1.33573224123882 14.866762557879  1.39064394521455 14.8719198568162  1.44567781907892 14.8718716544118  L 14.4782519868421 14.8718716544118  C 14.5112216973684 14.8718716544118  14.5441913799342 14.8701604136029  14.5771610904605 14.8667379595588  C 14.7966698717105 14.8419251194853  15.5419585394737 14.7187165808824  15.9211100427631 14.1865240533088  C 16.2881148223684 13.6697326102941  16.1562360361842 13.0091978492647  15.9002870838816 12.5463101470588  L 9.3054800756579 1.25304813419118  Z M 14.2578755904605 13  L 2.05995534375 13  L 8.16889315296055 2.73668448529412  L 14.2578755904605 13  Z " fill-rule="nonzero" fill="#ffffff" stroke="none" transform="matrix(1 0 0 1 1169 137 )" />
  </g>
</svg>