<?xml version="1.0" encoding="utf-8"?>
<svg version="1.1" xmlns:xlink="http://www.w3.org/1999/xlink" width="26px" height="26px" xmlns="http://www.w3.org/2000/svg">
  <g transform="matrix(1 0 0 1 -947 -375 )">
    <path d="M 7.36146666666662 8.19928571428574  L 10.9581333333333 8.19928571428574  L 10.9581333333333 16.4821428571429  C 10.9581333333333 16.9928571428572  11.3481333333333 17.4107142857143  11.8248 17.4107142857143  L 14.3554666666666 17.4107142857143  C 14.8321333333333 17.4107142857143  15.2221333333333 16.9928571428572  15.2221333333333 16.4821428571429  L 15.2221333333333 8.19928571428574  L 18.8205333333333 8.19928571428574  C 19.1706666666666 7.82228571428573  19.1706666666666 7.21128571428571  18.8205333333333 6.83428571428573  L 13.7245333333333 0.846857142857146  C 13.3744 0.469857142857137  12.8041333333333 0.469857142857137  12.454 0.846857142857146  L 7.36146666666662 6.83428571428573  C 7.00959999999998 7.21128571428571  7.00959999999998 7.82228571428573  7.36146666666662 8.19928571428574  Z M 25.1645333333333 11.5885714285714  C 25.1645333333333 9.56614285714284  23.8472 7.89657142857141  22.1312 7.58271428571427  C 22.1208 8.13242857142859  21.9717333333333 8.67842857142858  21.6909333333333 9.16314285714284  C 22.7777333333333 9.24857142857144  23.6426666666666 10.2941428571429  23.6513333333334 11.4641428571429  L 22.2282666666666 21.2178571428571  C 21.7862666666666 23.8085714285714  21.5332 23.8085714285714  20.1257333333333 23.8085714285714  L 5.8638666666667 23.8085714285714  C 4.45640000000003 23.8085714285714  4.20333333333338 23.8085714285714  3.76480000000004 21.2401428571428  L 2.34866666666665 11.5885714285714  C 2.34866666666665 10.3015714285714  3.20666666666671 9.256  4.28826666666669 9.16314285714284  C 4.00919999999996 8.68028571428573  3.86186666666663 8.13428571428571  3.85146666666662 7.58457142857142  C 2.14066666666668 7.904  0.828533333333326 9.58285714285714  0.835466666666662 11.7148571428571  L 2.26546666666661 21.5094285714286  C 2.8721333333333 25.0658571428571  3.82893333333334 25.4354285714286  5.8638666666667 25  L 20.1274666666667 25  C 22.1624 25.4354285714286  23.1192 25.064  23.7293333333333 21.489  L 25.1645333333333 11.5885714285714  Z " fill-rule="nonzero" fill="#ffffff" stroke="none" transform="matrix(1 0 0 1 947 375 )" />
  </g>
</svg>