<?xml version="1.0" encoding="utf-8"?>
<svg version="1.1" xmlns:xlink="http://www.w3.org/1999/xlink" width="26px" height="20px" xmlns="http://www.w3.org/2000/svg">
  <g transform="matrix(1 0 0 1 -1060 -380 )">
    <path d="M 25.1608275862069 4.58000000000001  C 25.1590344827587 2.41399999999999  23.7980689655172 0.623999999999995  22.0246896551724 0.286000000000001  C 22.0139310344828 0.876000000000005  21.859724137931 1.46000000000001  21.5710344827586 1.97999999999999  C 22.6953103448276 2.072  23.5882758620689 3.19  23.5972413793104 4.446  L 22.1268965517241 14.896  C 21.6696551724137 17.67  21.4078620689655 17.67  19.9536551724138 17.67  L 5.20537931034482 17.67  C 3.75117241379314 17.67  3.48937931034482 17.67  3.03393103448275 14.918  L 1.57075862068962 4.58000000000001  C 1.57075862068962 3.202  2.45834482758619 2.08000000000001  3.57544827586207 1.97999999999999  C 3.28675862068962 1.46199999999999  3.13613793103445 0.877999999999986  3.12537931034478 0.288000000000011  C 1.35558620689653 0.632000000000005  0 2.43000000000001  0.00896551724133587 4.714  L 1.4864827586207 15.208  C 2.11406896551728 19.018  3.10206896551722 19.414  5.20717241379316 19.414  L 19.9536551724138 19.414  C 22.0587586206897 19.414  23.0467586206896 19.016  23.6779310344828 15.186  L 25.1608275862069 4.58000000000001  Z " fill-rule="nonzero" fill="#ffffff" stroke="none" transform="matrix(1 0 0 1 1060 380 )" />
  </g>
</svg>