<?xml version="1.0" encoding="utf-8"?>
<svg version="1.1" xmlns:xlink="http://www.w3.org/1999/xlink" width="13px" height="18px" xmlns="http://www.w3.org/2000/svg">
  <g transform="matrix(1 0 0 1 -1066 -374 )">
    <path d="M 0.395571428571429 8.88999999999999  L 4.24914285714283 8.88999999999999  L 4.24914285714283 1.96199999999999  C 4.24914285714283 1.41200000000001  4.66700000000003 0.961999999999989  5.17771428571427 0.961999999999989  L 7.88914285714282 0.961999999999989  C 8.39985714285717 0.961999999999989  8.81771428571426 1.41200000000001  8.81771428571426 1.96199999999999  L 8.81771428571426 8.88999999999999  L 12.6731428571428 8.88999999999999  C 13.0482857142857 9.29599999999999  13.0482857142857 9.95400000000001  12.6731428571428 10.36  L 7.21314285714288 16.806  C 6.83799999999997 17.212  6.22699999999998 17.212  5.85185714285717 16.806  L 0.395571428571429 10.36  C 0.0185714285714766 9.95400000000001  0.0185714285714766 9.29599999999999  0.395571428571429 8.88999999999999  Z " fill-rule="nonzero" fill="#ffffff" stroke="none" transform="matrix(1 0 0 1 1066 374 )" />
  </g>
</svg>