<?xml version="1.0" encoding="utf-8"?>
<svg version="1.1" xmlns:xlink="http://www.w3.org/1999/xlink" width="3px" height="16px" xmlns="http://www.w3.org/2000/svg">
  <g transform="matrix(1 0 0 1 -1179 -379 )">
    <path d="M 2.58593740968752 1.80315551944443  C 2.58593740968752 1.23113910611113  2.2038483210938 0.754458761111096  1.72120947257815 0.754458761111096  L 1.27879052742185 0.754458761111096  C 0.79615167867189 0.754458761111096  0.414062590078174 1.23113910583334  0.414062590312483 1.77932150249998  L 0.414062590312483 9.62071317194443  C 0.414062590312483 10.1927295852778  0.816261631171869 10.6455759125  1.27879052742185 10.6455759125  L 1.72120947257815 10.6455759125  C 2.20384832132811 10.6455759125  2.58593740992183 10.1688955677778  2.58593740968752 9.62071317194443  L 2.58593740968752 1.80315551944443  Z M 2.5457175053906 14.4351846530556  C 2.5457175053906 13.7439981533334  2.08318860843747 13.1958157577778  1.5 13.1958157566666  C 0.91681139085938 13.1958157566666  0.454282494609402 13.7439981530555  0.454282494609402 14.4351846530556  C 0.454282494609402 15.1263711527778  0.916811391562533 15.6745535483333  1.5 15.6745535483333  C 2.08318860914062 15.6745535483333  2.5457175053906 15.1263711519445  2.5457175053906 14.4351846530556  Z " fill-rule="nonzero" fill="#ffffff" stroke="none" transform="matrix(1 0 0 1 1179 379 )" />
  </g>
</svg>