<?xml version="1.0" encoding="utf-8"?>
<svg version="1.1" xmlns:xlink="http://www.w3.org/1999/xlink" width="28px" height="28px" xmlns="http://www.w3.org/2000/svg">
  <g transform="matrix(1 0 0 1 -1167 -373 )">
    <path d="M 27.2792716639844 14.4926938247656  C 27.4669645498828 9.96460295714846  25.3554195855079 5.92920591484375  22.0238708637501 3.41881356851565  C 19.7950178461327 1.72957759679687  17.0265477817969 0.697266725585934  14 0.697266725859379  C 10.9734522179298 0.697266725859379  8.20498215386726 1.70611598609375  5.97612913624994 3.41881356851565  C 2.76188846800778 5.83535947203126  0.697266725859436 9.68306362871095  0.697266725859436 14  C 0.697266725859436 18.316936371289  2.76188846855473 22.1646405279687  5.97612913624994 24.5811864314844  C 8.34575181835942 26.3642688460156  11.3019147683203 27.3965797169531  14.5161554354688 27.2792716639844  C 17.3315487209375 27.1619636107422  19.912325899375 26.1765759606641  22.0238708637501 24.5577248207813  C 25.0973418669531 22.2115637496484  27.1385019992188 18.5984756994531  27.2792716639844 14.4926938247656  Z M 25.0269570353905 13.9765383892969  C 25.0269570353905 16.9327013392578  23.877338110664 19.5838633495312  22.0238708637501 21.5546386491406  C 20.0061723427343 23.6896452242187  17.1673174460157 25.0269570345703  14 25.0269570353906  C 10.8326825539843 25.0269570353906  7.97036604683592 23.6896452244922  5.97612913624994 21.5546386491406  C 3.95843061523431 19.3961704633594  2.78535007953121 16.4400075136719  2.99650457585938 13.2023052358203  C 3.18419746175778 10.5980664469532  4.28689316535156 8.25190537527345  5.97612913624994 6.44536135085937  C 7.82959638234377 4.47458605097657  10.3869119503515 3.16073585105471  13.2257668467969 2.97304296460939  C 16.6980852322266 2.73842685757813  19.8654026787891 4.12266188933592  22.0238708637501 6.42189973960939  C 23.8773381098438 8.39267503949219  25.0269570348438 11.0438370503125  25.0269570353905 13.9765383892969  Z " fill-rule="nonzero" fill="#ffffff" stroke="none" transform="matrix(1 0 0 1 1167 373 )" />
  </g>
</svg>