<?xml version="1.0" encoding="utf-8"?>
<svg version="1.1" xmlns:xlink="http://www.w3.org/1999/xlink" width="20px" height="20px" xmlns="http://www.w3.org/2000/svg">
  <g transform="matrix(1 0 0 1 -816 -378 )">
    <path d="M 19.3125 12.6674107142856  C 19.3103448275863 11.5625  18.4461206896551 10.6674107142857  17.3793103448277 10.6674107142857  L 12.2306034482758 10.6674107142857  C 11.1637931034483 10.6674107142857  10.2995689655172 11.5625  10.2995689655172 12.6674107142856  L 10.2995689655172 18.0000000000001  C 10.2995689655172 19.1049107142857  11.1637931034483 20  12.2306034482758 20  L 14.8060344827586 20  C 15.1616379310345 20  15.4504310344828 19.7008928571427  15.4504310344828 19.3325892857143  C 15.4504310344828 18.964285714286  15.1616379310345 18.6651785714287  14.8060344827586 18.6651785714287  L 12.875 18.6651785714287  C 12.1637931034483 18.6651785714287  11.5883620689656 18.0691964285717  11.5883620689656 17.3325892857144  L 11.5883620689656 13.3325892857141  C 11.5883620689656 12.5959821428569  12.1637931034483 11.9999999999999  12.875 11.9999999999999  L 16.7370689655172 11.9999999999999  C 17.4482758620691 11.9999999999999  18.0237068965517 12.5959821428569  18.0237068965517 13.3325892857141  L 18.0237068965517 15.332589285714  C 18.0237068965517 15.7008928571429  18.3125 16.0000000000002  18.6681034482758 16.0000000000002  C 19.0237068965517 16.0000000000002  19.3125 15.7008928571429  19.3125 15.332589285714  L 19.3125 12.6674107142856  Z M 9.01077586206907 12.6674107142856  C 9.01077586206907 11.5625  8.14655172413791 10.6674107142857  7.07974137931046 10.6674107142857  L 1.93103448275861 10.6674107142857  C 0.864224137931046 10.6674107142857  0 11.5625  0 12.6674107142856  L 0 18.0000000000001  C 0 19.1049107142857  0.864224137931046 20  1.93103448275861 20  L 7.07974137931046 20  C 8.14655172413791 20  9.01077586206907 19.1049107142857  9.01077586206907 18.0000000000001  L 9.01077586206907 12.6674107142856  Z M 7.72413793103453 13.3325892857141  L 7.72413793103453 17.3325892857144  C 7.72413793103453 18.0691964285717  7.14870689655174 18.6651785714287  6.4375 18.6651785714287  L 2.57543103448268 18.6651785714287  C 1.86422413793105 18.6651785714287  1.28879310344826 18.0691964285717  1.28879310344826 17.3325892857144  L 1.28879310344826 13.3325892857141  C 1.28879310344826 12.5959821428569  1.86422413793105 11.9999999999999  2.57543103448268 11.9999999999999  L 6.4375 11.9999999999999  C 7.14870689655174 11.9999999999999  7.72413793103453 12.5959821428569  7.72413793103453 13.3325892857141  Z M 19.3103448275863 1.99999999999989  C 19.3103448275863 0.895089285714334  18.4461206896551 0  17.3793103448277 0  L 12.2306034482758 0  C 11.1637931034483 0  10.2995689655172 0.895089285714334  10.2995689655172 1.99999999999989  L 10.2995689655172 7.33258928571445  C 10.2995689655172 8.4375  11.1637931034483 9.33258928571433  12.2306034482758 9.33258928571433  L 17.3793103448277 9.33258928571433  C 18.4461206896551 9.33258928571433  19.3103448275863 8.4375  19.3103448275863 7.33258928571445  L 19.3103448275863 1.99999999999989  Z M 18.0215517241379 6.66741071428589  L 18.0237068965517 6.66741071428589  C 18.0237068965517 7.40401785714312  17.4482758620691 8.00000000000011  16.7370689655172 8.00000000000011  L 12.8728448275863 8.00000000000011  C 12.1616379310344 8.00000000000011  11.5862068965517 7.40401785714312  11.5862068965517 6.66741071428589  L 11.5862068965517 2.66741071428555  C 11.5862068965517 1.93080357142833  12.1616379310344 1.33482142857133  12.8728448275863 1.33482142857133  L 16.7349137931035 1.33482142857133  C 17.4461206896551 1.33482142857133  18.0215517241379 1.93080357142833  18.0215517241379 2.66741071428555  L 18.0215517241379 6.66741071428589  Z M 9.01077586206907 1.99999999999989  C 9.01077586206907 0.895089285714334  8.14655172413791 0  7.07974137931046 0  L 1.93103448275861 0  C 0.864224137931046 0  0 0.895089285714334  0 1.99999999999989  L 0 7.33258928571445  C 0 8.4375  0.864224137931046 9.33258928571433  1.93103448275861 9.33258928571433  L 7.07974137931046 9.33258928571433  C 8.14655172413791 9.33258928571433  9.01077586206907 8.4375  9.01077586206907 7.33258928571445  L 9.01077586206907 1.99999999999989  Z M 7.72413793103453 2.66741071428555  L 7.72413793103453 6.66741071428589  C 7.72413793103453 7.40401785714312  7.14870689655174 8.00000000000011  6.4375 8.00000000000011  L 2.57543103448268 8.00000000000011  C 1.86422413793105 8.00000000000011  1.28879310344826 7.40401785714312  1.28879310344826 6.66741071428589  L 1.28879310344826 2.66741071428555  C 1.28879310344826 1.93080357142833  1.86422413793105 1.33482142857133  2.57543103448268 1.33482142857133  L 6.4375 1.33482142857133  C 7.14870689655174 1.33482142857133  7.72413793103453 1.93080357142833  7.72413793103453 2.66741071428555  Z " fill-rule="nonzero" fill="#ffffff" stroke="none" transform="matrix(1 0 0 1 816 378 )" />
  </g>
</svg>