<?xml version="1.0" encoding="utf-8"?>
<svg version="1.1" xmlns:xlink="http://www.w3.org/1999/xlink" width="11px" height="14px" xmlns="http://www.w3.org/2000/svg">
  <defs>
    <linearGradient gradientUnits="userSpaceOnUse" x1="5.5" y1="0" x2="5.5" y2="14" id="LinearGradient13">
      <stop id="Stop14" stop-color="#ff6699" offset="0" />
      <stop id="Stop15" stop-color="#ff9999" offset="1" />
    </linearGradient>
  </defs>
  <g transform="matrix(1 0 0 1 -798 -809 )">
    <path d="M 10.686192 6.88853760000006  C 10.757648 6.98512640000001  10.757296 7.11845119999998  10.684432 7.21432320000008  L 5.70926400000008 13.8035072  C 5.65945599999998 13.869632  5.58166399999993 13.9085184  5.5 13.9085184  C 5.41780800000004 13.9085184  5.34054400000002 13.869632  5.29073599999992 13.8035072  L 0.315215999999964 7.21432320000008  C 0.278783999999973 7.16593920000003  0.260479999999916 7.10823679999999  0.260479999999916 7.05035520000001  C 0.260479999999916 6.99354879999999  0.278080000000045 6.93656319999991  0.313807999999995 6.88853760000006  C 0.384911999999986 6.79212800000005  0.511103999999932 6.75610879999999  0.621455999999966 6.80037119999997  L 3.91600000000005 8.12537599999996  L 3.91564800000003 0.360281600000008  C 3.91600000000005 0.211724799999956  4.03392000000008 0.0914815999999519  4.18000000000006 0.0914815999999519  L 6.81964799999992 0.0914815999999519  C 6.96572800000001 0.0914815999999519  7.08364799999993 0.211724799999956  7.08399999999995 0.360281600000008  L 7.08364799999993 8.12537599999996  L 10.378192 6.80019200000004  C 10.488544 6.75592960000006  10.614736 6.7919488  10.686192 6.88853760000006  Z " fill-rule="nonzero" fill="url(#LinearGradient13)" stroke="none" transform="matrix(1 0 0 1 798 809 )" />
  </g>
</svg>