<?xml version="1.0" encoding="utf-8"?>
<svg version="1.1" xmlns:xlink="http://www.w3.org/1999/xlink" width="8px" height="10px" xmlns="http://www.w3.org/2000/svg">
  <g transform="matrix(1 0 0 1 -258 -227 )">
    <path d="M 7.8625429553264325 4.769539078156299  C 7.954180985108792 4.8363393453573735  8 4.913159652638569  8 5  C 8 5.086840347361431  7.954180985108792 5.1636606546426265  7.8625429553264325 5.230460921843701  L 1.457044673539599 9.899799599198445  C 1.365406643757126 9.96659986639952  1.260022909507427 10  1.1408934707903313 10  C 1.0217640320732926 10  0.9163802978235651 9.96659986639952  0.8247422680412626 9.899799599198445  L 0.13745704467353903 9.39879759519033  C 0.04581901489123652 9.331997327989257  0 9.25517702070806  0 9.168336673346744  C 0 9.081496325985313  0.04581901489123652 9.004676018704117  0.13745704467353903 8.937875751503043  L 5.53951890034358 5  L 0.13745704467353903 1.062124248496957  C 0.04581901489123652 0.9953239812958827  0 0.918503674014687  0 0.8316633266532563  C 0 0.7448229792919392  0.04581901489123652 0.6680026720107435  0.13745704467353903 0.6012024048096691  L 0.8247422680412626 0.10020040080155468  C 0.9163802978235651 0.03340013360048033  1.0217640320732926 0  1.1408934707903313 0  C 1.260022909507427 0  1.365406643757126 0.03340013360048033  1.457044673539599 0.10020040080155468  L 7.8625429553264325 4.769539078156299  Z " fill-rule="nonzero" fill="#cccccc" stroke="none" transform="matrix(1 0 0 1 258 227 )" />
  </g>
</svg>