<?xml version="1.0" encoding="utf-8"?>
<svg version="1.1" xmlns:xlink="http://www.w3.org/1999/xlink" width="80px" height="88px" xmlns="http://www.w3.org/2000/svg">
  <g transform="matrix(1 0 0 1 -214 -54 )">
    <path d="M 80 12.256508287055423  C 80 5.520869913742119  75.1221076737371 0  68.99069869334164 0  L 11.168568186801906 0  C 5.037159295957338 0  0 5.520869913742119  0 12.256508287055423  L 0 62.35335381645805  C 0 69.08899218977137  5.0372508170157175 74.49489847849743  11.168568186801906 74  L 26.665567070701627 74  L 38.12316153603814 87.08965343217847  C 38.66584192043996 87.68430315049977  39.37621995802226 88  40.08659799560462 88  C 40.798992003898206 88  41.51156932296146 87.71017492427268  42.0546163289024 87.11240452635016  C 43.13896911235031 85.91827306333303  43.13695314163897 83.9893611496196  42.050034455171044 82.79804835225823  L 29.778602500124236 69.29717502599104  C 29.25745705658659 68.72598116663127  28.551385971356638 68.35411119892774  27.81516604055787 68  L 11.168568186801906 68  C 8.102909501908755 68.35411110055182  5.589919892119042 65.72112263466518  6 62.35335381645805  L 6 12.256508287055423  C 5.589919802568147 8.888739370472422  8.102909501908755 6.04011875175813  11.168568097250954 6  L 68.99069860379075 6  C 72.05635728868378 6.04011875175813  74.41008001833 8.888638731949257  74 12.256508287055423  L 74 62.35335381645805  C 74.41008001833 65.72112273304108  72.05635719913289 68.35411110055182  68.99069860379075 68  L 46.19546387067862 68  C 44.6601603253722 68.35411110055182  43.41553258687429 69.73790230410057  43.41553258687429 71.42450478952466  C 43.41553258687429 73.11110727494876  44.6601603253722 74.49489847849743  46.19546387067862 74  L 68.99069869334164 74  C 75.12210758418621 74.49489847849743  79.99999991044899 69.08899218977137  80 62.35335381645805  L 80 12.256508287055423  Z " fill-rule="nonzero" fill="#ffffff" stroke="none" transform="matrix(1 0 0 1 214 54 )" />
  </g>
</svg>