<?xml version="1.0" encoding="utf-8"?>
<svg version="1.1" xmlns:xlink="http://www.w3.org/1999/xlink" width="56px" height="38px" xmlns="http://www.w3.org/2000/svg">
  <g transform="matrix(1 0 0 1 -228 -76 )">
    <path d="M 1.584260143011761 9.494997499874273  C 0.9128734466102627 14.508753157338617  0.8503698401821111 22.470833890465116  5.440019013385779 28.80985034382141  C 9.854999274044246 34.90792889994441  17.395760558198617 38  27.85261999221302 38  C 38.25149054650967 38  45.804090475694466 34.90455976286313  50.300335424972786 28.7997431321119  C 54.9573038215899 22.476857233140436  55.069870510823876 14.516716272956515  54.492991498772994 9.412404755473247  C 55.42613087111721 8.412818497772932  56 7.062340853161558  56 5.574651035403178  C 56 2.4957497994148525  53.54731120800636 0  50.521756548838766 0  C 47.49620188967128 0  45.043513097677646 2.495851861222178  45.043513097677646 5.574651035403178  C 45.043513097677646 7.928083975028926  46.47738339875514 9.939405536889042  48.504084700507406 10.75726740440578  C 48.88452383465335 14.81329461607794  48.68356932807967 20.68625944439607  45.41261536471018 25.108083556374424  C 42.124806545808156 29.55247011194379  36.21676315108732 31.80585255021947  27.85272028897134 31.80585255021947  C 19.45135585598868 31.80585255021947  13.564983129869233 29.569417360321708  10.357235046319772 25.158721377427867  C 7.099724868281328 20.679725493382563  7.0886888914430415 14.699563742089524  7.572163679568632 10.726741745429749  C 9.558533527285988 9.889788633210543  10.956486902322297 7.898681395002342  10.956486902322297 5.574753097210518  C 10.956486902322297 2.4958518612221923  8.503798110328717 0.00010206180733973724  5.478243451161177 0.00010206180733973724  C 2.4526887919935803 0.00010206180733973724  0 2.495953923029518  0 5.574753097210518  C 0 7.1033819710765735  0.6050708327385905 8.487856373785476  1.584260143011761 9.494997499874273  Z " fill-rule="nonzero" fill="#ffffff" stroke="none" transform="matrix(1 0 0 1 228 76 )" />
  </g>
</svg>