<?xml version="1.0" encoding="utf-8"?>
<svg version="1.1" xmlns:xlink="http://www.w3.org/1999/xlink" width="3px" height="12px" xmlns="http://www.w3.org/2000/svg">
  <g transform="matrix(1 0 0 1 -1056 -975 )">
    <path d="M 0 0.2057142857142935  C 0 0.1530656249999538  0.02469166959258473 0.10041562499998236  0.0740569039676302 0.06026116071427623  C 0.12342213834267568 0.020091964285711583  0.18812379301266446 0  0.2528089887639453 0  L 2.7471910112360547 0  C 2.811892665905816 0  2.8765959664676757 0.020077232142853063  2.92594309603237 0.06026116071427623  C 2.975308330407188 0.10043035714272719  3 0.1530790178570669  3 0.2057142857142935  L 3 11.794285714285706  C 3 11.846934375000046  2.975308330407188 11.899584375000018  2.92594309603237 11.939738839285724  C 2.8765778616573243 11.97989330357143  2.8118762069873355 12  2.7471910112360547 12  L 0.2528089887639453 12  C 0.18810733409395652 12  0.12340403353232432 11.979908035714288  0.0740569039676302 11.939738839285724  C 0.024709774403163465 11.899569642857273  0 11.846920982142933  0 11.794285714285706  L 0 0.20571449999999913  Z " fill-rule="nonzero" fill="#cccccc" stroke="none" transform="matrix(1 0 0 1 1056 975 )" />
  </g>
</svg>