<?xml version="1.0" encoding="utf-8"?>
<svg version="1.1" xmlns:xlink="http://www.w3.org/1999/xlink" width="16px" height="16px" xmlns="http://www.w3.org/2000/svg">
  <g transform="matrix(1 0 0 1 -13 -7 )">
    <path d="M 7.999466459323218 0  L 8.000065065936191 0.0005725811698620595  C 8.204710448450692 0.0005725811698620595  8.377057100238945 0.07055761598020237  8.517052968552006 0.210527685600883  L 12.153536089634839 3.847016721972769  C 12.293531957947872 3.9870388444270626  12.363516878917167 4.159385776563235  12.363516878917167 4.36405751838117  C 12.363516878917167 4.572451037803325  12.294442881054582 4.74573492094477  12.156294885329414 4.8838831413885195  C 12.018094836855305 5.022057388249017  11.844837261960341 5.0911314984709515  11.636522160644555 5.0911314984709515  C 11.43177267263211 5.0911314984709515  11.25942602084386 5.021146463660611  11.119430152530828 4.881124341206317  L 8.727632364447308 2.483414665885795  L 8.727632364447308 10.90944108269891  C 8.727632364447308 11.110104756327573  8.656580362124476 11.28154076387534  8.514398278355314 11.423801158175468  C 8.37213811546277 11.565931420391625  8.20072841315567 11.637009564708194  8.000065065936191 11.637009564708194  C 7.799297613218801 11.637009564708194  7.627861884537231 11.565931420391625  7.485705827142569 11.423801158175468  C 7.343445664249995 11.28154076387534  7.272367635552664 11.110104756327573  7.272367635552664 10.90944108269891  L 7.272367635552664 2.483414665885795  L 4.880647926592614 4.881124341206317  C 4.733026330557713 5.021146463660611  4.560653652394991 5.0911314984709515  4.363581944853358 5.0911314984709515  C 4.1628144921359675 5.0911314984709515  3.9913787634543976 5.020053354154381  3.8491966796852646 4.877897065521479  C 3.7069625431671906 4.735740776888457  3.6358845144698595 4.564278742924062  3.6358845144698595 4.363536990044921  C 3.6358845144698595 4.166464961936388  3.7058954618136255 3.9941180298002146  3.845891330126657 3.846444140802907  L 7.48237445120949 0.20995510443102094  C 7.622344293148052 0.06998503481034031  7.7947169713108035 0  7.999466459323218 0  Z M 15.273994283957512 10.181768495022402  L 15.272432701488885 10.181768495022402  C 15.473174127831804 10.181768495022402  15.644661909262286 10.252820612922106  15.786791940282477 10.395054980805487  C 15.92894799767714 10.537237295855254  16 10.708699329819769  16 10.90944108269891  L 16 13.818257531394288  C 16 14.424412778970622  15.78988907884529 14.937653718524205  15.369459025540015 15.358058429305748  C 14.941507350010815 15.786010800962961  14.430089091533121 16  13.835152197357994 16  L 2.1817389196777226 16  C 1.5872444738686864 16  1.0721044438407654 15.787858676556638  0.6365270405897548 15.363471924002807  C 0.21211495198945704 14.927867785802581  0 14.412752944238337  0 13.818257531394288  L 0 10.90944108269891  C 0 10.708699329819769  0.07105200232286034 10.537237295855254  0.21323408609199312 10.395054980805487  C 0.35546822261006733 10.252820612922106  0.5269039512916376 10.181768495022402  0.7276714040090277 10.181768495022402  C 0.928334751228535 10.181768495022402  1.0997704799100756 10.252820612922106  1.2420046164281795 10.395054980805487  C 1.3841867001973123 10.537237295855254  1.4552387025201725 10.708699329819769  1.4552387025201725 10.90944108269891  L 1.4552387025201725 13.818257531394288  C 1.4552387025201725 14.018999284273548  1.5262907048430032 14.190461318237944  1.6684727886121657 14.332617606870963  C 1.81070692513024 14.474799921920733  1.9821686801862808 14.545852039820318  2.1829101065292003 14.545852039820318  L 13.836245305086031 14.545852039820318  C 14.033343039002164 14.545852039820318  14.200952890635534 14.474799921920733  14.339178965484145 14.332617606870963  C 14.477326961209313 14.190461318237944  14.546426985446367 14.018999284273548  14.546426985446367 13.818257531394288  L 14.546426985446367 10.90944108269891  C 14.546426985446367 10.708699329819769  14.617452961394756 10.537237295855254  14.75963504516389 10.395054980805487  C 14.901895208056464 10.252820612922106  15.073330936738005 10.181768495022402  15.273994283957512 10.181768495022402  Z " fill-rule="nonzero" fill="#999999" stroke="none" transform="matrix(1 0 0 1 13 7 )" />
  </g>
</svg>