<?xml version="1.0" encoding="utf-8"?>
<svg version="1.1" xmlns:xlink="http://www.w3.org/1999/xlink" width="80px" height="80px" xmlns="http://www.w3.org/2000/svg">
  <g transform="matrix(1 0 0 1 -120 -134 )">
    <path d="M 80 40  C 80 17.906925697348925  62.092982812090895 0  40 0  C 17.908571455272977 0  0 17.906925697348925  0 40  C 0 62.093074302651075  17.908571455272977 80  40 80  C 62.09307430265085 80  80 62.093074302651075  80 40  Z M 76.66660568785119 40  C 76.66660568785119 48.89654848333379  73.47977139028626 57.060388473653006  68.19163426848763 63.41458280275617  C 64.5360456746248 61.887908508868236  55.90491425415803 58.89325710150467  50.56475429551165 57.3177599067111  C 50.10733714487105 57.17449131862912  50.03739430936116 57.15163422488689  50.03739430936116 55.25394274837936  C 50.03739430936116 53.68822843187888  50.680320006638794 52.11273132643163  51.30861713175659 50.777965629757375  C 51.990491450432955 49.326079954592046  52.79780567039643 46.888045588352156  53.08580571271091 44.70052559852479  C 53.89796571588704 43.759634178212536  55.00150858909387 41.904182749605866  55.709440026801076 38.36900556073641  C 56.3327085662786 35.2506512325308  56.041599989235465 34.117577011363494  55.62962291178428 33.05353125618399  C 55.58582859651892 32.93951981242145  55.54020581024838 32.82879979516122  55.50930290800443 32.718079867247184  C 55.35305150568706 31.989028405589636  55.56635433049314 28.19026271420472  56.100114367220385 25.243977022985746  C 56.46966868368986 23.22267420554232  56.00731434862246 18.925805582979933  53.224137205712395 15.367679899154552  C 51.46633148957039 13.121645620688469  48.10221716695173 10.361325571520865  41.95949719164855 9.977051371024686  L 38.59026288217615 9.980434198740681  C 32.55195427476929 10.361325660867067  29.18774864028319 13.121645620688469  27.429942924141415 15.367679899154552  C 24.646674380017885 18.925805582979933  24.184411535510662 23.22267420554232  24.55222860349545 25.243977022985746  C 25.087725710014865 28.190171312991083  25.300845732392645 31.988937004375884  25.1479771577915 32.7050970530118  C 25.11369142783178 32.828708483293724  25.068251443988174 32.93942850055396  25.02436572750935 33.0535313455303  C 24.61266285369925 34.11757710070981  24.32127998366923 35.25065132187706  24.944548612492554 38.3690056500825  C 25.652480050199756 41.904182749605866  26.75602292340659 43.759634178212366  27.568274327796644 44.70052568787105  C 27.856274370111123 46.888045677698415  28.663588590074824 49.326079954592046  29.345645711178577 50.77796571910363  C 29.845302820373718 51.83908574198199  30.078080000552063 53.28128002941418  30.078080000552063 55.322148603443736  C 30.078080000552063 57.220114283592466  30.008137165041944 57.24269717369356  29.58006855993426 57.37636577525598  C 24.05604572322909 59.007360035827105  15.263634314805131 62.18422865267132  11.98573715778025 63.61974859653907  C 6.593371470512238 57.23648001489005  3.3333029109353447 48.9940114827175  3.3333029109353447 40  C 3.3333029109353447 19.781942882541614  19.78194288254167 3.3333943121489256  40 3.3333943121489256  C 60.21805711745833 3.3333943121489256  76.66660568785119 19.781851481328033  76.66660568785119 40  Z " fill-rule="nonzero" fill="#cccccc" stroke="none" transform="matrix(1 0 0 1 120 134 )" />
  </g>
</svg>