<?xml version="1.0" encoding="utf-8"?>
<svg version="1.1" xmlns:xlink="http://www.w3.org/1999/xlink" width="50px" height="50px" xmlns="http://www.w3.org/2000/svg">
  <g transform="matrix(1 0 0 1 -383 -1246 )">
    <path d="M 50 25  C 50 11.191828560843078  38.80811425755678 0  25 0  C 11.19285715954561 0  0 11.191828560843078  0 25  C 0 38.80817143915692  11.19285715954561 50  25 50  C 38.80817143915681 50  50 38.80817143915692  50 25  Z M 47.91662855490699 25  C 47.91662855490699 30.560342802083596  45.92485711892891 35.66274279603317  42.61977141780477 39.63411425172262  C 40.3350285466405 38.67994281804272  34.94057140884877 36.80828568844049  31.602971434694783 35.82359994169451  C 31.31708571554441 35.734057074143266  31.273371443350754 35.71977139055434  31.273371443350754 34.53371421773704  C 31.273371443350754 33.55514276992426  31.675200004149247 32.57045707901966  32.06788570734784 31.73622851859841  C 32.494057156520626 30.82879997162013  32.99862854399777 29.305028492720115  33.17862857044429 27.937828499078023  C 33.6862285724294 27.349771361382864  34.37594286818364 26.190114218503595  34.81840001675067 23.980628475460207  C 35.20794285392412 22.03165702033175  35.025999993272194 21.32348563210212  34.768514319865176 20.658457035114907  C 34.7411428728243 20.587199882763343  34.71262863140521 20.51799987197569  34.69331431750277 20.44879991702942  C 34.59565719105444 19.99314275349343  34.72897145655821 17.618914196378  35.06257147951271 15.777485639365976  C 35.293542927306135 14.514171378463969  35.004571467889036 11.828628489362472  33.26508575357025 9.60479993697163  C 32.166457180981524 8.201028512930407  30.063885729344804 6.475828482200541  26.224685744780345 6.235657106890358  L 24.118914301360064 6.237771374213025  C 20.344971421730804 6.475828538041924  18.242342900176993 8.201028512930407  17.143714327588384 9.60479993697163  C 15.404171487511178 11.828628489362472  15.115257209694164 14.514171378463969  15.345142877184683 15.777485639365976  C 15.679828568759262 17.61885707061947  15.813028582745403 19.9930856277349  15.71748572361969 20.440685658132452  C 15.696057142394865 20.517942802058542  15.667657152492609 20.587142812846196  15.640228579693371 20.658457090956517  C 15.382914283562057 21.32348568794373  15.200799989793268 22.031657076173133  15.590342882807818 23.98062853130159  C 16.032800031374848 26.190114218503595  16.722514327129147 27.349771361382636  17.230171454872902 27.93782855491941  C 17.41017148131948 29.305028548561495  17.914742868796793 30.82879997162013  18.34102856948664 31.73622857443979  C 18.653314262733602 32.39942858873883  18.798800000345068 33.300800018383825  18.798800000345068 34.57634287715223  C 18.798800000345068 35.76257142724535  18.755085728151244 35.77668573355845  18.487542849958913 35.86022860953494  C 15.035028577018181 36.87960002239197  9.539771446753207 38.86514290791956  7.4910857236126285 39.762342872836825  C 4.120857169070177 35.772800009306366  2.0833143193345904 30.621257176698464  2.0833143193345904 25  C 2.0833143193345904 12.363714301588516  12.363714301588516 2.0833714450930074  25 2.0833714450930074  C 37.636285698411484 2.0833714450930074  47.91662855490699 12.363657175829985  47.91662855490699 25  Z " fill-rule="nonzero" fill="#cccccc" stroke="none" transform="matrix(1 0 0 1 383 1246 )" />
  </g>
</svg>