<?xml version="1.0" encoding="utf-8"?>
<svg version="1.1" xmlns:xlink="http://www.w3.org/1999/xlink" width="16px" height="16px" xmlns="http://www.w3.org/2000/svg">
  <g transform="matrix(1 0 0 1 -501 -313 )">
    <path d="M 9.239583333333314 4.09375  C 9.302083333333314 4.15625  9.333333333333314 4.236111111111086  9.333333333333314 4.333333333333371  L 9.333333333333314 9  C 9.333333333333314 9.097222222222172  9.302083333333314 9.177083333333371  9.239583333333314 9.239583333333371  C 9.177083333333314 9.302083333333371  9.097222222222285 9.333333333333371  9 9.333333333333371  L 5.666666666666686 9.333333333333371  C 5.569444444444457 9.333333333333371  5.489583333333314 9.302083333333371  5.427083333333314 9.239583333333371  C 5.364583333333314 9.177083333333371  5.333333333333314 9.097222222222172  5.333333333333314 9  L 5.333333333333314 8.333333333333371  C 5.333333333333314 8.236111111111086  5.364583333333314 8.15625  5.427083333333314 8.09375  C 5.489583333333314 8.03125  5.569444444444457 8  5.666666666666686 8  L 8 8  L 8 4.333333333333371  C 8 4.236111111111086  8.03125 4.15625  8.09375 4.09375  C 8.15625 4.03125  8.236111111111143 4  8.333333333333314 4  L 9 4  C 9.097222222222285 4  9.177083333333314 4.03125  9.239583333333314 4.09375  Z M 12.90625 10.84375  C 13.413194444444457 9.975694444444457  13.666666666666686 9.027777777777828  13.666666666666686 8  C 13.666666666666686 6.972222222222172  13.413194444444457 6.024305555555543  12.90625 5.15625  C 12.399305555555543 4.288194444444457  11.711805555555543 3.600694444444457  10.84375 3.09375  C 9.975694444444457 2.586805555555543  9.027777777777715 2.3333333333333712  8 2.3333333333333712  C 6.972222222222285 2.3333333333333712  6.024305555555543 2.586805555555543  5.15625 3.09375  C 4.288194444444457 3.600694444444457  3.600694444444457 4.288194444444457  3.09375 5.15625  C 2.586805555555543 6.024305555555543  2.3333333333333144 6.972222222222172  2.3333333333333144 8  C 2.3333333333333144 9.027777777777828  2.586805555555543 9.975694444444457  3.09375 10.84375  C 3.600694444444457 11.711805555555543  4.288194444444457 12.399305555555543  5.15625 12.90625  C 6.024305555555543 13.413194444444457  6.972222222222285 13.666666666666629  8 13.666666666666629  C 9.027777777777715 13.666666666666629  9.975694444444457 13.413194444444457  10.84375 12.90625  C 11.711805555555543 12.399305555555543  12.399305555555543 11.711805555555543  12.90625 10.84375  Z M 14.927083333333314 3.984375  C 15.642361111111143 5.210069444444457  16 6.548611111111086  16 8  C 16 9.451388888888914  15.642361111111143 10.789930555555543  14.927083333333314 12.015625  C 14.211805555555543 13.241319444444457  13.241319444444457 14.211805555555543  12.015625 14.927083333333371  C 10.789930555555543 15.642361111111086  9.451388888888857 16  8 16  C 6.548611111111143 16  5.210069444444457 15.642361111111086  3.984375 14.927083333333371  C 2.758680555555543 14.211805555555543  1.788194444444457 13.241319444444457  1.0729166666666856 12.015625  C 0.3576388888888573 10.789930555555543  0 9.451388888888914  0 8  C 0 6.548611111111086  0.3576388888888573 5.210069444444457  1.0729166666666856 3.984375  C 1.788194444444457 2.758680555555543  2.758680555555543 1.788194444444457  3.984375 1.0729166666666288  C 5.210069444444457 0.35763888888891415  6.548611111111143 0  8 0  C 9.451388888888857 0  10.789930555555543 0.35763888888891415  12.015625 1.0729166666666288  C 13.241319444444457 1.788194444444457  14.211805555555543 2.758680555555543  14.927083333333314 3.984375  Z " fill-rule="nonzero" fill="#999999" stroke="none" transform="matrix(1 0 0 1 501 313 )" />
  </g>
</svg>