<?xml version="1.0" encoding="utf-8"?>
<svg version="1.1" xmlns:xlink="http://www.w3.org/1999/xlink" width="47px" height="47px" xmlns="http://www.w3.org/2000/svg">
  <g transform="matrix(1 0 0 1 -593 -70 )">
    <path d="M 616.5 71  C 629.1 71  639 80.9  639 93.5  C 639 106.1  629.1 116  616.5 116  C 603.9 116  594 106.1  594 93.5  C 594 80.9  603.9 71  616.5 71  Z " fill-rule="nonzero" fill="#ffffff" stroke="none" />
    <path d="M 616.5 71  C 629.1 71  639 80.9  639 93.5  C 639 106.1  629.1 116  616.5 116  C 603.9 116  594 106.1  594 93.5  C 594 80.9  603.9 71  616.5 71  Z " stroke-width="2" stroke="#e4e4e4" fill="none" />
  </g>
</svg>