<?xml version="1.0" encoding="utf-8"?>
<svg version="1.1" xmlns:xlink="http://www.w3.org/1999/xlink" width="7px" height="10px" xmlns="http://www.w3.org/2000/svg">
  <g transform="matrix(1 0 0 1 -223 -62 )">
    <path d="M 6.87972508591065 4.769539078156299  C 6.959908361970179 4.8363393453573735  7 4.913159652638569  7 5  C 7 5.086840347361431  6.959908361970179 5.1636606546426265  6.87972508591065 5.230460921843701  L 1.274914089347135 9.899799599198445  C 1.1947308132874923 9.96659986639952  1.1025200458190056 10  0.9982817869415612 10  C 0.8940435280641168 10  0.8018327605956301 9.96659986639952  0.7216494845361012 9.899799599198445  L 0.1202749140893502 9.39879759519033  C 0.0400916380298213 9.331997327989257  0 9.25517702070806  0 9.168336673346744  C 0 9.081496325985313  0.0400916380298213 9.004676018704117  0.1202749140893502 8.937875751503043  L 4.847079037800654 5  L 0.1202749140893502 1.062124248496957  C 0.0400916380298213 0.9953239812958827  0 0.918503674014687  0 0.8316633266532563  C 0 0.7448229792919392  0.0400916380298213 0.6680026720107435  0.1202749140893502 0.6012024048096691  L 0.7216494845361012 0.10020040080155468  C 0.8018327605956301 0.03340013360048033  0.8940435280641168 0  0.9982817869415612 0  C 1.1025200458190056 0  1.1947308132874923 0.03340013360048033  1.274914089347135 0.10020040080155468  L 6.87972508591065 4.769539078156299  Z " fill-rule="nonzero" fill="#1abc9c" stroke="none" transform="matrix(1 0 0 1 223 62 )" />
  </g>
</svg>