<?xml version="1.0" encoding="utf-8"?>
<svg version="1.1" xmlns:xlink="http://www.w3.org/1999/xlink" width="50px" height="50px" xmlns="http://www.w3.org/2000/svg">
  <g transform="matrix(1 0 0 1 -615 -443 )">
    <path d="M 50 25.000142931016118  C 50.00000005587613 11.192888872840163  38.80716834426712 0  25.00008576978493 0  C 11.192888816964242 0  0 11.192888872840163  0 25.000142931016118  C 0 38.80711112715961  11.192888872840253 50  25.00008576978493 50  C 38.80716834426712 50  50 38.80711112715961  50 25.000142931016118  Z M 45.83341437227666 25.000142986892133  C 45.83341437227666 36.50596887075553  36.50602603198692 45.833357211045524  25.00008576978493 45.833357211045524  C 13.494088346351699 45.833357211045524  4.1667000060619594 36.50596887075553  4.1667000060619594 25.000142986892133  C 4.1667000060619594 13.494031185120486  13.494088346351699 4.166642900706738  25.00008576978493 4.166642900706738  C 36.50602603198692 4.166642900706738  45.83341437227666 13.494031240996499  45.83341437227666 25.000142986892133  Z M 38.973157072398614 23.559248763876987  L 28.556464190537067 13.1425558820153  C 27.742759200771243 12.328793731018349  26.424112344860458 12.328793731018349  25.610521733433256 13.1425558820153  C 24.796988283237294 13.95586057553426  24.796988283237294 15.274793349353413  25.610521733433256 16.088212421210873  L 32.471007734112405 23  L 12.500157235293019 23  C 11.349042907765892 22.948584099427435  10.416750043092788 23.880934125331784  10.416750043092788 25.031934130396426  C 10.416750043092788 26.183048457923558  11.349042907765892 27.115284161365416  12.500157235293019 27  L 32.471007734112405 27  L 25.610521733433256 33.97577010616869  C 25.20426959910662 34.3821365629577  25.00020014812343 34.91543894883915  25.00020014812343 35.448626956381865  C 25.00020014812343 35.982100881833304  25.203297634671184 36.51540326771452  25.610521733433256 36.92159818493377  C 26.424112344860458 37.73507441802248  27.74281641787862 37.73507441802248  28.556464190537067 36.92159818493377  L 38.973157072398614 26.504905303072324  C 39.78669052259457 25.691429069983617  39.78669052259457 24.37255345739571  38.973157072398614 23.559248763876987  Z " fill-rule="nonzero" fill="#cccccc" stroke="none" transform="matrix(1 0 0 1 615 443 )" />
  </g>
</svg>