<?xml version="1.0" encoding="utf-8"?>
<svg version="1.1" xmlns:xlink="http://www.w3.org/1999/xlink" width="50px" height="50px" xmlns="http://www.w3.org/2000/svg">
  <g transform="matrix(1 0 0 1 -301 -95 )">
    <path d="M 42.66237176256053 7.337460574688827  C 37.76950378488833 2.4458759952589197  31.882213962301464 0  25.00000006154503 0  C 18.117897768178498 0  12.230328927116535 2.4458759952589197  7.337460949444454 7.337460574688827  C 2.4445929717722548 12.229212565206666  -0.0012829801138293025 18.116614099585007  0 25.00000000000006  C 0.0012281861612077453 31.883385900414996  2.4469925306572775 37.7706200237054  7.337460949444454 42.66237201422324  C 12.227929368231512 47.55412400474108  18.11549820929336 50  25.00000006154503 50  C 31.884501913796587 50  37.77201495116337 47.55412400474108  42.66237176256053 42.66237201422324  C 47.55300759243267 37.7706200237054  49.99888354431876 31.883385900414996  49.99999961821878 25.00000000000006  C 50.001115692118816 18.116614099585007  47.55523974023273 12.229212565206666  42.66237176256053 7.337460574688827  Z M 40.150089413623455 40.15008962073574  C 35.9653703255117 44.33564583849521  30.915414946412202 46.42856345661491  25.00000006154503 46.42856345661491  C 19.08452937298268 46.42856345661491  14.034462386493166 44.33564583849521  9.850022316856508 40.15008962073574  C 5.665470639829722 35.96425438449646  3.5726646662138455 30.914298915845855  3.5714369849238015 25.00000000000006  C 3.5702093036338747 19.08570108415426  5.663071080944699 14.035745615503656  9.850022316856508 9.850021986656255  C 14.0369735527682 5.6642983578088515  19.086873128172755 3.5714365433850928  25.00000006154503 3.5714365433850928  C 30.91295958383223 3.5714365433850928  35.96319398140671 5.66435416150479  40.150089413623455 9.850021986656255  C 44.33698484584031 14.0356898118076  46.429679212066176 19.085645280458206  46.42856313816615 25.00000000000006  C 46.42744706426611 30.914354719541798  44.334529483260226 35.9643101881924  40.150089413623455 40.15008962073574  Z M 32.196500372546204 24.99810267433628  L 32.198062876006176 25.00000000000006  C 32.68132287471332 25.00000000000006  33.09985058721946 24.823269694798434  33.4536460135247 24.46958586961131  C 33.80716242135497 24.116069455512235  33.98378111603249 23.69770914667226  33.98378111603249 23.214281728307395  C 33.98378111603249 22.730854309942647  33.80716242135497 22.312494001102674  33.4536460135247 21.9589775870036  C 33.09985058721946 21.605349565512412  32.68132287471332 21.42856345661485  32.198062876006176 21.42856345661485  L 26.785662497876285 21.42856345661485  L 26.785662497876285 20.591117390887  L 33.426860239924345 13.671459088078294  C 33.761124372979246 13.298857809950505  33.91960686678156 12.87084346170418  33.90174968438132 12.387583454427363  C 33.88389250198108 11.904211839758554  33.70699478882846 11.49472431858109  33.37133556339843 11.158953479806923  C 33.185788277520786 10.97323877955079  32.98098871686778 10.842937149413315  32.757215899914385 10.767936982002148  C 32.533443082961114 10.69288101089516  32.31022830295779 10.655492534581573  32.087571559904546 10.655492534581573  C 31.864914816851297 10.655492534581573  31.64170003684798 10.701809602253611  31.417927219894704 10.794722756077615  C 31.194154402941308 10.887635909901618  31.007770061638613 11.026866131397663  30.858774195986378 11.212525027957621  L 25.16601605417246 17.183855321105575  L 19.19463006321932 11.157056154143145  C 18.822028791698887 10.822512996680791  18.394126058432576 10.655380927189578  17.910754452335418 10.655380927189578  C 17.42738284623826 10.655380927189578  16.999480112971945 10.822512996680791  16.626878841451397 11.157056154143145  C 16.47805038688424 11.342882461791154  16.357235387207485 11.54751461498795  16.264322235031116 11.771454846997448  C 16.17152069024476 11.995227667918899  16.115605387853854 12.218442451880495  16.096464720468624 12.441099198882124  C 16.077491464168357 12.663644338491874  16.114879939818934 12.886803318757417  16.2090765769803 13.110743550766799  C 16.3031058030567 13.334516371688366  16.44233602208377 13.539315935973095  16.626878841451397 13.724974832533054  L 23.212551906973662 20.310648014839376  L 23.212551906973662 21.426721934647126  L 17.910810256030366 21.426721934647126  C 17.427438649933208 21.426721934647126  17.009022544817086 21.603508043544693  16.65550613698682 21.957136065035876  C 16.301878121766656 22.31065247913495  16.125092016004047 22.729180199062977  16.125092016004047 23.212440206339792  C 16.125092016004047 23.695811821008483  16.301822318071707 24.114227933544512  16.65550613698682 24.46785595503558  C 17.009022544817086 24.82137236913477  17.42738284623826 24.99810267433628  17.910810256030366 24.99810267433628  L 23.212551906973662 24.99810267433628  L 23.212551906973662 28.569650825113484  L 17.910810256030366 28.569650825113484  C 17.427438649933208 28.569650825113484  17.009022544817086 28.746269522923  16.65550613698682 29.099785937022187  C 16.301878121766656 29.453581369601306  16.125092016004047 29.872109089529214  16.125092016004047 30.35536909680603  C 16.125092016004047 30.838629104082845  16.301822318071707 31.25715682401075  16.65550613698682 31.610673238109943  C 17.009022544817086 31.96418965220902  17.42738284623826 32.141087368498575  17.910810256030366 32.141087368498575  L 23.212551906973662 32.141087368498575  L 23.212551906973662 37.44271750606592  C 23.212551906973662 37.92625653182266  23.389338012736268 38.344505233270645  23.742966027956435 38.698021647369714  C 24.096482435786704 39.05181707994883  24.515010148292838 39.22843577775846  24.99827014699998 39.22843577775846  C 25.48169755679209 39.22843577775846  25.900169465603273 39.05181707994883  26.253685873433426 38.698021647369714  C 26.607202281263692 38.344505233270645  26.784099994416316 37.92625653182266  26.784099994416316 37.44271750606592  L 26.784099994416316 32.141087368498575  L 32.196500372546204 32.141087368498575  C 32.67976037125323 32.141087368498575  33.09828808375948 31.96418965220902  33.451804491589634 31.610673238109943  C 33.8053208994199 31.25715682401075  33.982218612572524 30.838629104082845  33.982218612572524 30.35536909680603  C 33.982218612572524 29.872109089529214  33.8053208994199 29.453581369601306  33.451804491589634 29.099785937022187  C 33.09828808375948 28.746269522923  32.67976037125323 28.569650825113484  32.196500372546204 28.569650825113484  L 26.784099994416316 28.569650825113484  L 26.784099994416316 24.99810267433628  L 32.196500372546204 24.99810267433628  Z " fill-rule="nonzero" fill="#1abc9c" stroke="none" transform="matrix(1 0 0 1 301 95 )" />
  </g>
</svg>