<?xml version="1.0" encoding="utf-8"?>
<svg version="1.1" xmlns:xlink="http://www.w3.org/1999/xlink" width="46px" height="48px" xmlns="http://www.w3.org/2000/svg">
  <g transform="matrix(1 0 0 1 -303 -252 )">
    <path d="M 46 7.531914893617021  C 46 4.085106382978723  43.84985835694051 1.4680851063829787  39.875354107648725 1.4680851063829787  L 36.813031161473084 1.4680851063829787  C 35.96600566572238 1.4680851063829787  34.98866855524079 1.978723404255319  34.98866855524079 2.8085106382978724  C 34.98866855524079 3.638297872340426  35.96600566572238 4.468085106382978  36.813031161473084 4.468085106382978  L 39.875354107648725 4.468085106382978  C 41.69971671388102 4.468085106382978  42.93767705382436 5.680851063829787  43 7.468085106382979  L 43 42  C 42.93767705382436 43.787234042553195  41.69971671388102 45  39.875354107648725 45  L 6.906515580736545 45  C 5.082152974504249 45  3.0623229461756374 43.787234042553195  3 42  L 3 7.468085106382979  C 3.0623229461756374 5.680851063829787  4.30028328611898 4.468085106382978  6.124645892351275 4.468085106382978  L 9.968838526912181 4.468085106382978  C 10.81586402266289 4.468085106382978  11.141643059490086 3.638297872340426  11.141643059490086 2.8085106382978724  C 11.141643059490086 1.978723404255319  10.81586402266289 1.4680851063829787  9.968838526912181 1.4680851063829787  L 6.124645892351275 1.4680851063829787  C 1.8243626062322946 1.4680851063829787  0 4.085106382978723  0 7.531914893617021  L 0 41.680851063829785  C 0 45.38297872340426  2.2804532577903682 48  6.45042492917847 48  L 39.54957507082153 48  C 43.71954674220963 48  46 45.829787234042556  46 41.680851063829785  L 46 7.531914893617021  Z M 11.53257790368272 14  C 10.685552407932011 13.46808510638298  9.968838526912181 14.170212765957448  9.968838526912181 15  C 9.968838526912181 15.829787234042552  10.685552407932011 16.53191489361702  11.53257790368272 17  L 34.53257790368272 17  C 35.37960339943343 16.53191489361702  36.096317280453256 15.829787234042552  36.096317280453256 15  C 36.096317280453256 14.170212765957448  35.37960339943343 13.46808510638298  34.53257790368272 14  L 11.53257790368272 14  Z M 36.096317280453256 23.29787234042553  C 36.03116147308782 22.404255319148934  35.31444759206799 21.76595744680851  34.46742209631728 22  L 11.53257790368272 22  C 10.685552407932011 21.76595744680851  9.968838526912181 22.46808510638298  9.968838526912181 23.29787234042553  C 9.968838526912181 24.127659574468083  10.685552407932011 24.829787234042552  11.53257790368272 24  L 34.53257790368272 24  C 35.37960339943343 24.829787234042552  36.096317280453256 24.127659574468083  36.096317280453256 23.29787234042553  Z M 36.096317280453256 32.29787234042553  C 36.03116147308782 31.404255319148938  35.31444759206799 30.76595744680851  34.46742209631728 30  L 11.53257790368272 30  C 10.685552407932011 30.76595744680851  9.968838526912181 31.46808510638298  9.968838526912181 32.29787234042553  C 9.968838526912181 33.12765957446808  10.685552407932011 33.829787234042556  11.53257790368272 33  L 34.53257790368272 33  C 35.37960339943343 33.829787234042556  36.096317280453256 33.12765957446808  36.096317280453256 32.29787234042553  Z M 15.376770538243626 2.617021276595745  C 15.376770538243626 4.0212765957446805  16.41926345609065 5.23404255319149  17.722379603399432 6  L 28.407932011331447 6  C 29.64589235127479 5.23404255319149  30.68838526912181 4.0212765957446805  30.68838526912181 2.617021276595745  C 30.68838526912181 1.2127659574468084  29.64589235127479 0  28.342776203966007 0  L 17.722379603399432 0  C 16.41926345609065 0  15.376770538243626 1.2127659574468084  15.376770538243626 2.617021276595745  Z " fill-rule="nonzero" fill="#999999" stroke="none" transform="matrix(1 0 0 1 303 252 )" />
  </g>
</svg>