<?xml version="1.0" encoding="utf-8"?>
<svg version="1.1" xmlns:xlink="http://www.w3.org/1999/xlink" width="11px" height="11px" xmlns="http://www.w3.org/2000/svg">
  <g transform="matrix(1 0 0 1 -479 -285 )">
    <path d="M 11 5.499999999999939  C 11 8.524999990332061  8.524999990332025 11  5.5 11  C 2.475000009667973 11  0 8.524999990332061  0 5.499999999999939  C 0 2.475000009667939  2.475000009667973 0  5.5 0  C 8.524999990332025 0  11 2.475000009667939  11 5.499999999999939  Z M 8.250000032226577 5.499999999999939  C 8.250000032226577 3.849999993554687  6.874999983886711 2.749999967773373  5.5 2.749999967773373  C 3.8499999935546847 2.749999967773373  2.749999967773423 3.849999993554687  2.749999967773423 5.499999999999939  C 2.749999967773423 7.150000006445313  3.8499999935546847 8.250000032226506  5.5 8.250000032226506  C 7.150000006445316 8.250000032226506  8.250000032226577 7.150000006445313  8.250000032226577 5.499999999999939  Z " fill-rule="nonzero" fill="#999999" stroke="none" transform="matrix(1 0 0 1 479 285 )" />
  </g>
</svg>