<?xml version="1.0" encoding="utf-8"?>
<svg version="1.1" xmlns:xlink="http://www.w3.org/1999/xlink" width="14px" height="15px" xmlns="http://www.w3.org/2000/svg">
  <g transform="matrix(1 0 0 1 -13 -144 )">
    <path d="M 14 2.3537234042553337  C 14 1.2765957446808613  13.345609065155827 0.45877659574469476  12.13597733711049 0.45877659574469476  L 11.203966005665734 0.45877659574469476  C 10.946175637393765 0.45877659574469476  10.64872521246457 0.6183510638297776  10.64872521246457 0.8776595744680833  C 10.64872521246457 1.136968085106389  10.946175637393765 1.3962765957446663  11.203966005665734 1.3962765957446663  L 12.13597733711049 1.3962765957446663  C 12.691218130311597 1.3962765957446663  13.067988668555245 1.7752659574468055  13 2.3337765957446948  L 13 13.125  C 13.067988668555245 13.68351063829786  12.691218130311597 14.0625  12.13597733711049 14  L 2.101983002832867 14  C 1.5467422096317307 14.0625  0.9320113314447552 13.68351063829786  1 13.125  L 1 2.3337765957446948  C 0.9320113314447552 1.7752659574468055  1.3087818696883744 1.3962765957446663  1.8640226628895105 1.3962765957446663  L 3.0339943342776223 1.3962765957446663  C 3.2917847025495632 1.3962765957446663  3.3909348441926284 1.136968085106389  3.3909348441926284 0.8776595744680833  C 3.3909348441926284 0.6183510638297776  3.2917847025495632 0.45877659574469476  3.0339943342776223 0.45877659574469476  L 1.8640226628895105 0.45877659574469476  C 0.5552407932011363 0.45877659574469476  0 1.2765957446808613  0 2.3537234042553337  L 0 13.025265957446805  C 0 14.182180851063833  0.6940509915014275 15  1.9631728045325756 15  L 12.036827195467424 15  C 13.305949008498601 15  14 14.321808510638277  14 13.025265957446805  L 14 2.3537234042553337  Z M 3.5099150141643065 4.208776595744695  C 3.252124645892337 4.208776595744695  3.0339943342776223 4.428191489361723  3.0339943342776223 4.6875  C 3.0339943342776223 4.946808510638306  3.252124645892337 5.166223404255334  3.5099150141643065 5.166223404255334  L 10.509915014164278 5.166223404255334  C 10.767705382436247 5.166223404255334  10.98583569405099 4.946808510638306  10.98583569405099 4.6875  C 10.98583569405099 4.428191489361723  10.767705382436247 4.208776595744695  10.509915014164278 4.208776595744695  L 3.5099150141643065 4.208776595744695  Z M 10.98583569405099 7.280585106382972  C 10.966005665722378 7.001329787234056  10.747875354107634 6.801861702127667  10.490084985835665 6.801861702127667  L 3.5099150141643065 6.801861702127667  C 3.252124645892337 6.801861702127667  3.0339943342776223 7.021276595744695  3.0339943342776223 7.280585106382972  C 3.0339943342776223 7.539893617021278  3.252124645892337 7.759308510638306  3.5099150141643065 7.759308510638306  L 10.509915014164278 7.759308510638306  C 10.767705382436247 7.759308510638306  10.98583569405099 7.539893617021278  10.98583569405099 7.280585106382972  Z M 10.98583569405099 10.093085106382972  C 10.966005665722378 9.813829787234056  10.747875354107634 9.614361702127667  10.490084985835665 9.614361702127667  L 3.5099150141643065 9.614361702127667  C 3.252124645892337 9.614361702127667  3.0339943342776223 9.833776595744666  3.0339943342776223 10.093085106382972  C 3.0339943342776223 10.352393617021278  3.252124645892337 10.571808510638277  3.5099150141643065 10.571808510638277  L 10.509915014164278 10.571808510638277  C 10.767705382436247 10.571808510638277  10.98583569405099 10.352393617021278  10.98583569405099 10.093085106382972  Z M 4.679886685552418 0.8178191489361666  C 4.679886685552418 1.2566489361702224  4.997167138810198 1.6356382978723616  5.393767705382459 1.6356382978723616  L 8.645892351274767 1.6356382978723616  C 9.022662889518415 1.6356382978723616  9.339943342776223 1.2566489361702224  9.339943342776223 0.8178191489361666  C 9.339943342776223 0.37898936170213915  9.022662889518415 0  8.626062322946154 0  L 5.393767705382459 0  C 4.997167138810198 0  4.679886685552418 0.37898936170213915  4.679886685552418 0.8178191489361666  Z " fill-rule="nonzero" fill="#ffffff" stroke="none" transform="matrix(1 0 0 1 13 144 )" />
  </g>
</svg>