<?xml version="1.0" encoding="utf-8"?>
<svg version="1.1" xmlns:xlink="http://www.w3.org/1999/xlink" width="10px" height="7px" xmlns="http://www.w3.org/2000/svg">
  <g transform="matrix(1 0 0 1 -14 -108 )">
    <path d="M 8.971244964500102 0.1784416999503975  L 3.6666652399314126 5.529278274730586  L 1.026478741649977 2.7574457150826674  C 0.7906050392076134 2.5196396028922408  0.41267411393234266 2.5218797667988184  0.17680041148997905 2.7597854528226122  C -0.0589499171687935 2.997716014637291  -0.0589499171687935 3.381083152845335  0.176899107013905 3.619013714660028  L 3.2276129560961193 6.821854279886793  C 3.453468388543027 7.049554743371843  3.8109679391874947 7.058789209372463  4.048075414495197 6.850627972925253  C 4.074478262404862 6.831462112427673  4.1001408500982715 6.810553886520552  4.1240267957579215 6.78645965129455  L 9.823020701525287 1.037669961787799  C 10.058993099491573 0.7997393999731202  10.058993099491573 0.41637226176507625  9.823020701525287 0.17834212611701616  C 9.587270372866513 -0.05946396840593593  9.2070939886828 -0.05946396840593593  8.971244964500102 0.1784416999503975  Z " fill-rule="nonzero" fill="#ffffff" stroke="none" transform="matrix(1 0 0 1 14 108 )" />
  </g>
</svg>