<?xml version="1.0" encoding="utf-8"?>
<svg version="1.1" xmlns:xlink="http://www.w3.org/1999/xlink" width="14px" height="16px" xmlns="http://www.w3.org/2000/svg">
  <g transform="matrix(1 0 0 1 -12 -102 )">
    <path d="M 12.372766628100472 2.484147734375  L 10.505631373882643 2.484147734375  C 10.076468575492171 1.0537287656249958  8.66715413054586 0  7.000035384146133 0  C 5.332940227177172 0  3.923625765488898 1.0537287656249958  3.4944393944096355 2.484147734375  L 1.6271154414877067 2.484147734375  C 0.7289752719827822 2.484147734375  0 3.1644882812500015  0 4.002729640625006  L 0 14.481352046875003  C 0 15.319571390625  0.7290696129638468 16  1.6271154414877067 16  L 12.372766611358507 16  C 13.271024728017224 16  14 15.319571406250006  14 14.481352046875003  L 14 4.002729640625006  C 14 3.1644882812500015  13.271024728017224 2.484147734375  12.372766628100472 2.484147734375  Z M 7.000035384146133 1.1325801093749988  C 7.991791774987341 1.1325801093749988  8.843678143592014 1.689272406249998  9.22033659486811 2.4841477187499947  L 4.780205911813422 2.484147734375  C 5.157689909456206 1.689272406249998  6.010779188351835 1.1325801093749988  7.000035384146133 1.1325801093749988  Z M 12.915264235485115 14.481352046875003  C 12.915264235485115 14.759004781249999  12.670291178038774 14.987568031249992  12.372766628100472 15  L 1.6271154414877067 15  C 1.329708821961228 14.987568031249992  1.0848065160651936 14.759004781249999  1 14.481352046875003  L 1 4.002729640625006  C 1.0848065328071588 3.725142953125001  1.329708821961228 3.4964916406249955  1.6271154582296727 3.4964916406249955  L 3.359475438027811 3.4964916406249955  L 3.359475438027811 5.020576859374998  L 4.601276061443395 5.020576859374998  L 4.601276061443395 3.4964916406249955  L 9.424339281193168 3.4964916406249955  L 9.426273396869746 3.4964916406249955  L 9.426273396869746 5.020576859374998  L 10.668074020285328 5.020576859374998  L 10.668074020285328 3.4964916406249955  L 12.372766628100479 3.4964916406249955  C 12.67038553576181 3.4964916406249955  12.915264235485118 3.725142953125001  13 4.002729640625006  L 13 14.481352046875003  L 12.915264235485115 14.481352046875003  Z " fill-rule="nonzero" fill="#ffffff" stroke="none" transform="matrix(1 0 0 1 12 102 )" />
  </g>
</svg>