<?xml version="1.0" encoding="utf-8"?>
<svg version="1.1" xmlns:xlink="http://www.w3.org/1999/xlink" width="14px" height="16px" xmlns="http://www.w3.org/2000/svg">
  <g transform="matrix(1 0 0 1 -13 -184 )">
    <path d="M 0.6164575414369992 4.162355758895671  C 0.560514284783038 4.190716618501796  0.5045710281290751 4.219077495244932  0.4206561346972134 4.219077495244932  C 0.2807980015131968 4.219077495244932  0.1129682315513098 4.133994899289547  0.057024974897348674 3.9921905498479475  C -0.05486153841057538 3.793664481194128  0.029053355021286295 3.538438817193878  0.2528263647353282 3.4249731863555155  L 6.686300863039165 0.050029899280986  C 6.882102252877142 -0.06341357341753451  7.133846916270858 0.02166903967486178  7.245733429578843 0.24855596793483414  C 7.357619942886768 0.4754428961948065  7.273705049454906 0.7023298587287741  7.049932039740865 0.8157954895671935  L 0.6164575414369992 4.162355758895671  Z M 7.245733429578843 15.79651561264896  C 7.161818553048791 15.938319944953605  7.021960402962934 15.995041681302808  6.88210226977895 15.995041698439792  C 6.798187393248891 15.995041698439792  6.742244136594962 15.966680838833753  6.658329243163102 15.93829780395069  L 0.19688310808136705 11.939437558037383  C 0.001081718243387539 11.825994085338863  -0.05486153841057538 11.542385403592647  0.057024974897348674 11.343859334938799  C 0.16891148820527274 11.145333266284979  0.44862777147511396 11.088589371795791  0.6444291613130615 11.202054985497227  L 7.105875296394796 15.200915231410534  C 7.301676686232776 15.314358704108997  7.357619942886768 15.59798954399514  7.245733429578843 15.79651561264896  Z M 13.941638620207613 11.256295147273534  C 14.026558731395738 11.3982545865575  14.010846546075982 11.552400334443831  13.945441001641687 11.680467391174943  C 13.90623701899516 11.757263305506342  13.855232502611152 11.7954618479815  13.791160003279522 11.859251636808125  L 7.270164899474702 15.938187013251195  C 7.079324087034538 16.06534562052036  6.804896191607174 15.986289695877986  6.683416283242856 15.79261600280745  C 6.561936374878538 15.598942292599844  6.64301039657331 15.31677382139921  6.83385120901347 15.189637355132987  L 13.35491185800541 11.110701978689917  C 13.545687108356649 10.983565529560678  13.820115003784018 11.062643595205913  13.941638620207613 11.256295147273534  Z " fill-rule="nonzero" fill="#ffffff" stroke="none" transform="matrix(1 0 0 1 13 184 )" />
  </g>
</svg>