<?xml version="1.0" encoding="utf-8"?>
<svg version="1.1" xmlns:xlink="http://www.w3.org/1999/xlink" width="14px" height="13px" xmlns="http://www.w3.org/2000/svg">
  <g transform="matrix(1 0 0 1 -13 -187 )">
    <path d="M 7.461281048272262 12.55388353366655  C 7.461281048272262 12.791801476236998  7.2671213261173975 13  7.045224491220378 13  C 6.823327656323357 13  6.629167934168496 12.791801476236998  6.629167917408402 12.55386029595249  L 6.629167917408402 4.315146955558134  C 6.629167917408402 4.0772057752735975  6.823327639563264 3.8690072515105385  7.045224491220378 3.869007233538582  C 7.2671213261173975 3.869007233538582  7.461281048272262 4.077205757301641  7.461281048272262 4.315146955558134  L 7.461281048272262 12.55388353366655  Z M 0.8321131308638599 8.270919068802698  C 0.8321131308638599 8.508860249087206  0.6379534087089986 8.717058772850208  0.41605655705188305 8.717058772850208  C 0.19415972215486121 8.717058772850208  0 8.508860249087206  0 8.270919068802698  L 0 0.5080880710054032  C 0 0.2701468907208664  0.19415972215486121 0.06194836695786421  0.41605655705188305 0.06194836695786421  C 0.6379533919489031 0.06194836695786421  0.8321131141037643 0.2701468907208664  0.8321131308638599 0.5080880710054032  L 0.8321131308638599 8.270919068802698  Z M 14 8.208970701844805  C 14 8.446911882129342  13.805840277845139 8.655110405892344  13.58396511374589 8.655110405892344  C 13.36206827884887 8.655110405892344  13.167886885896298 8.446911882129342  13.167886885896298 8.208970701844805  L 13.167886885896298 0.4461397220195238  C 13.167886885896298 0.20819854173498697  13.36206827884887 0  13.58396511374589 0  C 13.805840277845139 0  14 0.20819852376300219  14 0.4461397220195238  L 14 8.208970701844805  Z M 5.824791899286765 6.188933741312894  C 5.741580594580412 6.337646970004812  5.602895064389742 6.397132265075896  5.464209534199075 6.397132265075896  C 5.380998229492722 6.397132265075896  5.325524020768434 6.36738962652629  5.242312699302055 6.337623732290751  L 2.135757027503793 4.404351651464822  C 1.9415973053489637 4.285381061322511  1.8583859838825167 4.017697242488367  1.997071497313124 3.779756062203831  C 2.108019914761634 3.5715575384408567  2.357653845640751 3.4823295868481523  2.579550697297867 3.6310660532540733  L 5.686106369096095 5.564338152051931  C 5.880266091250956 5.683308742194242  5.963477412717339 5.950992561028386  5.824791899286765 6.188933741312894  Z " fill-rule="nonzero" fill="#ffffff" stroke="none" transform="matrix(1 0 0 1 13 187 )" />
  </g>
</svg>