<?xml version="1.0" encoding="utf-8"?>
<svg version="1.1" xmlns:xlink="http://www.w3.org/1999/xlink" width="16px" height="16px" xmlns="http://www.w3.org/2000/svg">
  <g transform="matrix(1 0 0 1 -11 -263 )">
    <path d="M 8.361009346968963 15.481996419897484  C 8.027092228888236 15.815984061273866  7.583109939047296 16  7.110957309847904 16  C 6.638675715016986 16  6.194840827329487 15.815910296656796  5.861200059029268 15.481682888736088  L 0.517918016575445 10.138249395732885  C 0.18381664130183675 9.804243299685538  -0.00014729565922522172 9.360211248851328  0 8.887999564386803  C 0.00014747263877801234 8.416193612349502  0.18414826463931358 7.972696368505751  0.5181206742814625 7.639188224173608  C 0.5788094374560516 7.578476610217365  6.617653884978309 1.538961965448209  7.329042549764359 0.8266332601680233  C 8.055686302176248 0.10086021902202447  8.832775061269523 0.0008483381517976341  9.564264342147474 0.0008483381517976341  C 10.133216831515004 0.0008483381517976341  14.232729423782153 0  14.232729423782153 0  C 14.70462412171856 0  15.1483300437746 0.18375775355525548  15.482191888298363 0.5174134451437453  C 15.81653277631743 0.8514933058080487  16.000423021203996 1.2956729038986055  15.999999269270049 1.7680505722681232  C 15.999999269270049 1.7678108237460037  15.998746431985793 5.645571526322556  15.998746431985793 6.322103991254892  C 15.998120022345894 7.075411185081805  15.89955144436314 7.943281136989526  15.173386717442167 8.671193460163806  C 14.807467056075659 9.035610673135409  8.42543816747002 15.417559485523839  8.361009346968963 15.481996419897484  Z M 14.869500767126521 1.131795786964858  C 14.699354859322938 0.9617959004367549  14.473236733174978 0.8681650283982663  14.232839970896084 0.8681650283982663  C 14.232913662970645 0.8681650283982663  10.133290523589565 0.8690133665500639  9.564301197186914 0.8690133665500639  C 8.899451643080496 0.8690133665500639  8.420887443310775 0.96255203732278  7.942065312278063 1.4407943081379244  C 7.230879305197965 2.1528832648959906  1.1918506184872497 8.192637658187323  1.1309223425672015 8.25355212934602  C 0.9609238189126384 8.423293830703301  0.8673850085844369 8.64865711710587  0.8673297350274362 8.888257749557681  C 0.8672560429529456 9.128282551085476  0.960850108833725 9.354051569915214  1.1308670690102363 9.52405145644326  L 6.474462334288364 14.867761589288307  C 6.6445161314999295 15.038148771594877  6.870486873498904 15.131834971601734  7.110957309847904 15.131834971601734  C 7.351575148350277 15.131834971601734  7.577840658647289 15.038056552306841  7.748097131569259 14.867780025937009  C 7.8125443885922286 14.80334309156342  14.195181250315855 8.420785689545312  14.560769288344886 8.056737317681325  C 15.033437798074633 7.582884284881516  15.130919341439707 7.020305970378217  15.131508896040167 6.321735114103035  C 15.131508896040167 5.645516180332038  15.132761733324422 1.7675341658821253  15.132761733324422 1.7675341658821253  C 15.133001246069881 1.527343380449281  15.039480872263596 1.301666580907579  14.869500767126521 1.131795786964858  Z M 12.90142743642999 6.081950061097359  C 12.533702184204977 6.449262711005417  12.045889133963389 6.651259770869046  11.527307959202751 6.651259770869046  C 11.008689929402607 6.651259770869046  10.520858442639039 6.449281165676325  10.153685943988272 6.082540214078392  C 9.786642410969034 5.715135362904562  9.58480716469969 5.227100294001673  9.585009822405638 4.708008609203034  C 9.585249335151097 4.188880051106992  9.78758204343334 3.700697434947813  10.154754542084106 3.3334216943815704  C 10.521226939020409 2.966570104869106  11.00894786066559 2.76446238906874  11.52800807892153 2.76446238906874  C 12.046957750063541 2.76446238906874  12.534807655344636 2.9665147769006808  12.90166694917545 3.3333663664132587  C 13.658526126545304 4.090140695486696  13.658452416466424 5.32316554258108  12.90142743642999 6.081950061097359  Z M 12.288736297253763 3.9476011970223794  C 12.085629777178184 3.7444791771872588  11.8154782149191 3.632627417467006  11.528008060917145 3.632627417467006  C 11.24064845402912 3.632627417467006  10.970681130958532 3.7444422678455567  10.767924688746795 3.9474167764685717  C 10.564486545333736 4.150889200762492  10.452450016057284 4.421103843385481  10.452321050425823 4.70835903168404  C 10.452210503311825 4.995429799428791  10.563823280654326 5.265330910890441  10.766635014427486 5.468323856162215  C 10.969741534503068 5.671187690826457  11.239985207354167 5.783094760492929  11.527307959202684 5.783094760492929  C 11.814593874016218 5.783094760492929  12.084874383902367 5.671187690826457  12.288275690280372 5.467991888352117  C 12.706851246594354 5.048414150730707  12.70731183556336 4.366109284618574  12.288736297253763 3.9476011970223794  Z " fill-rule="nonzero" fill="#ffffff" stroke="none" transform="matrix(1 0 0 1 11 263 )" />
  </g>
</svg>