<?xml version="1.0" encoding="utf-8"?>
<svg version="1.1" xmlns:xlink="http://www.w3.org/1999/xlink" width="15px" height="16px" xmlns="http://www.w3.org/2000/svg">
  <g transform="matrix(1 0 0 1 -13 -343 )">
    <path d="M 6.127694859038112 1.3201320132013166  C 6.127694859038112 1.0121012101210454  5.895522388059709 0.7744774477447436  5.613598673300142 0.7744774477447436  L 0.5140961857379659 0.7744774477447436  C 0.23217247097843258 0.7744774477447436  0 1.020902090209006  0 1.3201320132013166  L 0 7.04070407040706  C 0 7.339933993399313  0.23217247097843258 7.586358635863576  0.5140961857379659 7.586358635863576  L 5.613598673300142 7.586358635863576  C 5.895522388059709 7.586358635863576  6.127694859038112 7.348734873487331  6.127694859038112 7.04070407040706  L 6.127694859038112 1.3201320132013166  Z M 6.127694859038112 10.05060506050603  C 6.127694859038112 9.760176017601736  5.895522388059709 9.51375137513753  5.613598673300142 9.51375137513753  L 0.5140961857379659 9.51375137513753  C 0.23217247097843258 9.51375137513753  0 9.760176017601736  0 10.05060506050603  L 0 15.463146314631501  C 0 15.762376237623755  0.23217247097843258 16  0.5140961857379659 16  L 5.613598673300142 16  C 5.895522388059709 16  6.127694859038112 15.753575357535794  6.127694859038112 15.463146314631501  L 6.127694859038112 10.05060506050603  Z M 14.270315091210602 10.05060506050603  C 14.278606965174085 9.760176017601736  14.046434494195687 9.51375137513753  13.764510779436119 9.51375137513753  L 8.665008291873942 9.51375137513753  C 8.383084577114438 9.51375137513753  8.15920398009946 9.760176017601736  8.15920398009946 10.05060506050603  L 8.15920398009946 15.463146314631501  C 8.15920398009946 15.762376237623755  8.391376451077925 16  8.665008291873942 16  L 13.764510779436119 16  C 14.046434494195687 16  14.270315091210602 15.762376237623755  14.270315091210602 15.463146314631501  L 14.270315091210602 10.05060506050603  Z M 11.177446102819188 8.11441144114417  L 7.363184079601993 4.057205720572028  L 11.185737976782738 0  L 15 4.057205720572028  L 11.177446102819188 8.11441144114417  Z " fill-rule="nonzero" fill="#ffffff" stroke="none" transform="matrix(1 0 0 1 13 343 )" />
  </g>
</svg>