<?xml version="1.0" encoding="utf-8"?>
<svg version="1.1" xmlns:xlink="http://www.w3.org/1999/xlink" width="14px" height="16px" xmlns="http://www.w3.org/2000/svg">
  <g transform="matrix(1 0 0 1 -12 -301 )">
    <path d="M 2.5240780816624997 10.11212703150138  L 1.6811018456204292 10.55715423252362  L 0.10079652583402585 6.416770273274642  C -0.037865361556693615 6.0346526765854165  -0.0334633968776263 5.6152553143654504  0.11400241987122782 5.230807732330542  C 0.25486528960149635 4.8626700477152385  0.5079782586480868 4.571421879506984  0.8293216802202261 4.405992919964644  L 9.21286341151054 0.1374597667040684  C 9.892966954426939 -0.2097080498002121  10.672114702622459 0.12347985463009037  10.949438477403962 0.8807250919715526  L 12.545150673567118 5.249447615095884  L 11.695571490506463 5.6828248893898285  L 10.099859294343306 1.3164323516111789  C 10.025025894799075 1.116053611883895  9.789520784468786 1.0368341101312202  9.5804274622129 1.1416834506862261  L 1.1968857309226522 5.410216603946859  C 1.0868366139458838 5.466136252242828  1.0031992850435487 5.561665651415106  0.9569786559132962 5.680494904044147  C 0.934968832517929 5.738744537685741  0.9041550797644287 5.8552438049691  0.9481747265551635 5.9764030429437085  L 2.5240780816624997 10.11212703150138  Z M 14 14.359690316650989  C 14 15.263724630769504  13.377121997911434 16  12.611180143753153 16  L 3.0281030374160944 16  C 2.2621611832577764 16  1.639283181169246 15.263724630769504  1.639283181169246 14.36202030199667  L 1.639283181169246 6.731318294939659  C 1.639283181169246 5.827283980821087  2.2621611832577764 5.093338596936217  3.0281030374160944 5.093338596936217  L 12.611180143753153 5.093338596936217  C 13.377121997911434 5.093338596936217  14 5.829613966166712  14 6.731318294939659  L 14 14.359690316650989  Z M 12.611180143753153 6.186101724053663  L 3.0281030374160944 6.186101724053663  C 2.7727890860299884 6.186101724053663  2.56589674611365 6.43075018534862  2.56589674611365 6.731318294939659  L 2.56589674611365 14.359690316650989  C 2.56589674611365 14.660258426241915  2.7727890860299884 14.904906887536871  3.0281030374160944 14.904906887536871  L 12.611180143753153 14.904906887536871  C 12.866494095139224 14.904906887536871  13.073386435055594 14.660258426241915  13.073386435055594 14.359690316650989  L 13.073386435055594 6.731318294939659  C 13.073386435055594 6.43075018534862  12.864293112799709 6.186101724053663  12.611180143753153 6.186101724053663  Z M 5.405163964114317 11.23284998276684  C 5.354541370304998 11.263139792260533  5.30171779415613 11.277119704334511  5.248894218007296 11.277119704334511  C 5.121237242314227 11.277119704334511  5.000183213639809 11.195570217236156  4.938555708132807 11.051111125804841  C 4.850516414551371 10.848402400731874  4.920947849416506 10.603753939436919  5.092624471900277 10.501234584227594  L 9.065397594761652 8.131639487685021  C 9.234873234905841 8.029120132475697  9.443966557161728 8.110669619574054  9.532005850743133 8.313378344646962  C 9.617844161985015 8.516087069719985  9.549613709459463 8.760735531014884  9.377937086975692 8.863254886224265  L 5.405163964114317 11.23284998276684  Z M 6.879822131603016 13.385756442162412  C 6.826998555454151 13.420706222347471  6.76977301462625 13.439346105112756  6.708145509119246 13.439346105112756  C 6.587091480444828 13.439346105112756  6.468238434109926 13.364786574051445  6.40440994626334 13.231977409348485  C 6.3097677056633215 13.036258640312564  6.369194228830805 12.786950208326243  6.53426790429596 12.672780926388624  L 10.59508032073877 9.956018013341712  C 10.757953013864341 9.844178716749774  10.973649283138846 9.911748291774039  11.068291523738864 10.11212703150138  C 11.162933764338886 10.307845800537356  11.1035072411714 10.55715423252362  10.936232583366728 10.67132351446124  L 6.879822131603016 13.385756442162412  Z " fill-rule="nonzero" fill="#ffffff" stroke="none" transform="matrix(1 0 0 1 12 301 )" />
  </g>
</svg>