<?xml version="1.0" encoding="utf-8"?>
<svg version="1.1" xmlns:xlink="http://www.w3.org/1999/xlink" width="16px" height="16px" xmlns="http://www.w3.org/2000/svg">
  <g transform="matrix(1 0 0 1 -11 -224 )">
    <path d="M 16 7.999990839705021  C 16 5.8631156999661584  15.167866046846363 3.8541565128824686  13.656859503025125 2.343171751658815  C 12.145852959203953 0.8321320107566521  10.136889187105059 0  8.000009151361578 0  C 5.8631290977093276 0  3.8541470228873784 0.8321320286653986  2.343158799698033 2.3431717695674763  C 0.8321522558767924 3.85415653079113  0 5.863134020556089  0 8.000009160294923  C 0 9.556827434950861  0.44765203249558816 11.06610786196049  1.2945568025919805 12.36473008722487  C 1.4624423453307394 12.622119797847233  1.8072482065486035 12.694636059561759  2.0646751481655876 12.526860860838099  C 2.3221204104145006 12.358975702757505  2.3947101566232227 12.014170631556453  2.2268246138844674 11.756707620665736  C 1.498159930488887 10.639440216524207  1.112999967363594 9.340359851151135  1.112999967363594 8.000009160294923  C 1.112999967363594 4.202516853048309  4.20250814330711 1.1130157557644225  7.999990830729686 1.1130157557644225  C 11.797510159416113 1.1130157557644225  14.886981694095809 4.202535191546872  14.886981694095809 8.000009160294923  C 14.886981694095809 11.797483129042973  11.797510141507342 14.887002564825508  8.000009151361578 14.887002564825508  C 6.742526090497151 14.887002564825508  5.512275619185836 14.54505636526821  4.442305371878575 13.8982009459408  C 4.179288954114272 13.739148962685107  3.8371587110453156 13.823485550815008  3.678161325265613 14.086483027459337  C 3.5191456188540506 14.349517163192132  3.6034457589520343 14.691646622374662  3.8664438381757087 14.850625323270776  C 5.110163985482268 15.602544114327884  6.539509366090613 16  7.999990830729686 16  C 10.13688920501383 16  12.145852959203953 15.167867971334601  13.656859520933896 13.656828230432524  C 15.16784774412324 12.14584346920887  16 10.136865979443911  16 7.999990839705021  Z " fill-rule="nonzero" fill="#ffffff" stroke="none" transform="matrix(1 0 0 1 11 224 )" />
  </g>
</svg>