<?xml version="1.0" encoding="utf-8"?>
<svg version="1.1" xmlns:xlink="http://www.w3.org/1999/xlink" width="9px" height="11px" xmlns="http://www.w3.org/2000/svg">
  <g transform="matrix(1 0 0 1 -14 -225 )">
    <path d="M 2.707703378807709 6.125808278816606  C 1.1157753775485677 6.848667752095565  0 8.503415663446674  0 10.424777303984257  C 0 10.742459649751567  0.2472509478514855 11  0.5522410631125094 11  C 0.8572311783735653 11  1.1044821262250188 10.742459649751567  1.1044821262250188 10.424777303984257  C 1.1044821262250188 8.474547497452818  2.627705093153729 6.887973146223317  4.500000000000014 6.887973146223317  C 6.372294906846239 6.887973146223317  7.895517873774917 8.474566434146624  7.895517873774917 10.424777303984257  C 7.895517873774917 10.742459649751567  8.142768821626404 11  8.447758936887489 11  C 8.752749052148516 11  9 10.742459649751567  9 10.424777303984257  C 9 8.503415663446674  7.8842246224513985 6.848667752095565  6.292296585649481 6.125808278816606  C 7.149382287488454 5.5238579110917385  7.714189583801922 4.503357093142853  7.714189583801922 3.3479677431485584  C 7.714189583801922 1.501883051674014  6.272310640443269 0  4.49999998222863 0  C 2.727689324013923 0  1.2858103806553025 1.501883051674014  1.2858103806553025 3.3479677431485584  C 1.2858103806553025 4.503338156449047  1.8506176769687386 5.5238579110917385  2.707703378807709 6.125808278816606  Z M 4.499963639752039 5.545509030959437  C 3.3366512010225797 5.545509030959437  2.3902561821751522 4.559710639240905  2.3902561821751522 3.3479677431485584  C 2.3902561821751522 2.136243802260992  3.336669381146571 1.1504264553377084  4.499981819876027 1.1504264553377084  C 5.663294258605482 1.1504264553377084  6.609689277452912 2.136243802260992  6.609689277452912 3.3479677431485584  C 6.609689277452912 4.559691684036125  5.663276078481495 5.545509030959437  4.499963639752039 5.545509030959437  Z " fill-rule="nonzero" fill="#ffffff" stroke="none" transform="matrix(1 0 0 1 14 225 )" />
  </g>
</svg>