<?xml version="1.0" encoding="utf-8"?>
<svg version="1.1" xmlns:xlink="http://www.w3.org/1999/xlink" width="16px" height="9px" xmlns="http://www.w3.org/2000/svg">
  <g transform="matrix(1 0 0 1 -12 -430 )">
    <path d="M 8.146305857978165 4.718353456083294  C 8.566713579832028 4.767291760842541  8.988418322629498 4.80267485287837  9.504027381744 4.853606571273505  C 9.317083429739048 4.515423947957146  9.179772145842717 4.288075122792092  9.061224431597209 4.048367133085063  C 8.78357548160283 3.486922182557259  8.727198304587459 2.9069384852160924  9.069611833699183 2.361839526501925  C 9.390148942895484 1.8515256357326397  9.86944141558905 1.770991724845669  10.352106142735998 1.939136165026822  C 10.774416161973797 2.086349762031957  11.191883969688838 2.2900766356125506  11.574505148052381 2.543240167361221  C 12.779956413038994 3.340505951006456  14.035645622574615 3.985474932875004  15.392761869900124 4.348276214593766  C 15.802101679701916 4.4578142938820235  16.006252776225367 4.721144235173456  15.999854139570218 5.222288423217923  C 15.987402738511587 6.201951554540283  16.000978224387993 7.182113039271701  15.994320183544179 8.161975511957616  C 15.990515588776244 8.730796092938077  15.773913091194228 8.982663905823642  15.278624026862882 8.983461271277918  C 12.483284489205062 8.987846781276687  9.686907334792364 9.03279825876433  6.893210690329759 8.952862371968024  C 6.172412917936916 8.932230540837452  5.432765107830359 8.588566030022546  4.749235070550453 8.261347181703112  C 2.7641877503942145 7.311585254917919  1.2388911207145492 5.754430193299279  0.2854077910389601 3.5018727848257862  C -0.031929999829767325 2.752149916394916  -0.07040828782339409 1.966744943882885  0.09976085997761439 1.171871256600703  C 0.32267552615186396 0.13091065597694834  1.0699325257942638 -0.2995670186777507  1.8852398909444348 0.2217106470885156  C 2.390991590887557 0.5450423388180105  2.8126098656221417 1.0459871854989795  3.263022005304742 1.4794549806073385  C 3.382693804368052 1.5946742887576406  3.485850203416107 1.743881299398606  3.568600139618119 1.8974738200382268  C 4.623596975146549 3.8561023879105067  6.285253740030551 4.502367088642501  8.146305857978165 4.718353456083294  Z M 7.8754014168904805 8.10336915106455  C 8.883878434574951 8.083435014706419  9.89296072869975 8.099980347883724  10.901697150572943 8.099980347883724  C 12.19871809417809 8.099980347883724  13.49582550584613 8.090511633113573  14.792673513325441 8.10685762492721  C 15.098597519890458 8.110645110835316  15.238329909548174 8.036988476991887  15.223803274979836 7.643289283917957  C 15.198727536736808 6.963435563422523  15.204088556637007 6.280990405200424  15.222679190162001 5.600638331296047  C 15.230720720012368 5.307805868194441  15.12938015028536 5.194978656407248  14.899202166826878 5.12381378960848  C 13.556699022132653 4.708785070631309  12.294957048193552 4.07507887580496  11.101265439762294 3.252696080348606  C 10.832436232184385 3.067507953581147  10.534813159658455 2.920394027257903  10.234250172993702 2.821022357512465  C 10.076878298502931 2.768894590935833  9.769051994553982 2.799094807518447  9.731784259441104 2.895875039537334  C 9.657162321152347 3.089634844938834  9.669008445770581 3.3795768582683863  9.741555150549571 3.58430043866681  C 9.842895720276578 3.8704549660884267  10.047392689051636 4.105378763069521  10.180985846242985 4.379572808676101  C 10.48881215019194 5.010787236457734  10.14821445040126 5.702601438768036  9.519072824689848 5.727120426488548  C 9.275146419229126 5.736688811940533  9.029577120573256 5.709977069220635  8.78530484286093 5.691039639680277  C 6.366620187226069 5.503459416549823  4.173357771589751 4.800282756515318  2.794278636285837 2.221702547903945  C 2.705302999554544 2.0552525093132332  2.5744768203762445 1.9112283741254836  2.443391237009191 1.7835502307513704  C 2.180268921583183 1.5272969078669785  1.9212970731766832 1.2554949586232818  1.6281703399219043 1.052266438451802  C 1.1978187908337086 0.7539520878517058  0.9047785256418794 0.8823279259982597  0.8599880690560198 1.4457662901621213  C 0.8181375266090469 1.9727251847903755  0.8180510585461291 2.565765741446017  0.9890848869761876 3.0386034558618658  C 1.2286878892915274 3.7008154656803303  1.5796617566310913 4.344688070049272  1.9954002030879694 4.880417984675293  C 3.5564081427482437 6.8925697086692574  5.449453443971417 8.151310749006024  7.8754014168904805 8.10336915106455  Z " fill-rule="nonzero" fill="#ffffff" stroke="none" transform="matrix(1 0 0 1 12 430 )" />
  </g>
</svg>