<?xml version="1.0" encoding="utf-8"?>
<svg version="1.1" xmlns:xlink="http://www.w3.org/1999/xlink" width="14px" height="11px" xmlns="http://www.w3.org/2000/svg">
  <g transform="matrix(1 0 0 1 -14 -423 )">
    <path d="M 13.91071376380349 6.345791352817888  C 13.952054749247036 6.659677253889731  13.970752539343891 6.97683374611595  14 7.292536642273528  C 13.977871422729372 8.466860566225577  13.710441562536634 9.569140635025512  13.207573932546119 10.610278819188464  C 13.081749812949354 10.87083591449209  12.924791299750899 11.106409327365839  12.613275824375568 10.94951180170716  C 12.297814943750472 10.790615581454006  12.372005716382567 10.526606195487371  12.505206028402869 10.258236021314925  C 14.40749174656059 6.4251940380674215  12.27122634315401 1.7111819874701926  8.019966416818088 0.891717203774765  C 4.515074240128603 0.21615843087465805  1.1191953258845806 2.944649101464919  0.7796331653639993 6.719638091721072  C 0.7768885356249883 6.749709360391002  0.7748300633207377 6.780053178323932  0.7746585239620715 6.810306146502548  C 0.7729431303751867 7.098663266618851  0.6950642615313861 7.339142566224249  0.3733421943142034 7.3293307927610085  C 0.012251844278422309 7.318337972491841  -0.03003260763788521 7.033887391810119  0.014396086262005186 6.744440074642205  C 0.09887922041525431 6.193981413399375  0.15874645659696024 5.630894636310331  0.31742036338230084 5.10305756388564  C 1.2921069994409122 1.859903035242847  4.21024879974209 -0.22964131342621505  7.3904169704374105 0.020195510871133242  C 10.89196412963252 0.2952885668611899  13.447729034707725 2.8355385465626606  13.91071376380349 6.345791352817888  Z " fill-rule="nonzero" fill="#ffffff" stroke="none" transform="matrix(1 0 0 1 14 423 )" />
  </g>
</svg>