<?xml version="1.0" encoding="utf-8"?>
<svg version="1.1" xmlns:xlink="http://www.w3.org/1999/xlink" width="5px" height="7px" xmlns="http://www.w3.org/2000/svg">
  <g transform="matrix(1 0 0 1 -17 -425 )">
    <path d="M 2.0803123426013848 3.553691528717997  C 2.0546180913577015 3.368993302568075  2.075918530121073 3.1787594017047875  2.075918530121073 2.919373500851021  C 1.5427389373994373 2.919373500851021  1.0833944978798709 2.920427915082169  0.6239545406976692 2.9190220294407236  C 0.3193487146157551 2.9179676152095757  0.008247687475943621 2.876581856638339  0.0008928274545240247 2.526604199761482  C -0.0066530678921335965 2.1672246826572215  0.30559417119907345 2.1334834272616456  0.6112506915697479 2.1340985022296977  C 0.9722119385950222 2.134889312903091  1.3332687032828994 2.1342742379349104  1.8321574551254336 2.1342742379349104  C 1.3901017125393382 1.610054629366682  1.015481439759985 1.185652901343735  0.668943359789709 0.742623188571194  C 0.5675991197543091 0.6130181059969171  0.4740873280534074 0.4183908125039536  0.5025515915129283 0.27463900566230076  C 0.5677901550795471 -0.05398676303461535  1.0157679927478582 -0.09809642503619967  1.2816891654703593 0.1988090488747662  C 1.6844871487213604 0.6484288505916921  2.0646474459323882 1.1151828835643534  2.497533492907417 1.6254315035704185  C 2.9101697954078007 1.1395222787325254  3.271608630746154 0.6812035596087903  3.675934896599027 0.25759264225923617  C 3.7993437166986856 0.12825116324271402  4.051605863667108 0.014110822724844112  4.225734562615816 0.034056825263340564  C 4.543139755488222 0.07025838053150865  4.610193154644586 0.40283820259500447  4.376270398898362 0.691835569772554  C 4.0085273978273825 1.146200235529581  3.625310535412612 1.5898450232703023  3.167112307844441 2.135065048608303  C 3.6721141900943968 2.135065048608303  4.061539700579159 2.1364709342497483  4.450965211063987 2.1345378414926652  C 4.732646798118088 2.13313195585122  4.987296886651936 2.2037777093358146  4.9995231474667134 2.4979592798163046  C 5.012609067245078 2.814635020560554  4.7545203428570755 2.914365033253293  4.452589011328396 2.917440408094066  C 3.963920649385754 2.922448875691794  3.4750612521179063 2.918758425882969  2.9592658739923774 2.918758425882969  C 2.9592658739923774 3.2860460497205173  2.9592658739923774 3.601579508381077  2.9592658739923774 3.9877587205261023  C 3.439337646299601 3.9877587205261023  3.9115769702722947 3.9902190203986954  4.383625258919782 3.986880042000167  C 4.691765238518518 3.9846833456854576  5.004012477609661 4.021499975921807  4.999141076816238 4.374640875491979  C 4.994460711348085 4.7148652007310075  4.693675591770833 4.774263869083786  4.380091105402993 4.7718914370637355  C 3.920651148220824 4.768288855107453  3.4612111910385894 4.770924890685258  2.930801610532856 4.770924890685258  C 2.930801610532856 5.368162684758003  2.928222633642224 5.9334165804871715  2.9319478224842195 6.498758344068753  C 2.9339536933991694 6.782571507943363  2.8454088201542937 7.003559157214124  2.4883637972962522 6.9999565752578405  C 2.1560578490557365 6.996617596859313  2.073721623880917 6.785998354194432  2.075440941807962 6.520110232248823  C 2.0789750953247514 5.953626186583422  2.0764916360967547 5.3870542730654805  2.0764916360967547 4.770661287127504  C 1.5418792784358826 4.770661287127504  1.0686847778370319 4.770749154980046  0.5955857949007511 4.770661287127504  C 0.28190579087034034 4.770573419274832  -0.009232044782732901 4.705990547619242  0.00022420381620722891 4.355309947921534  C 0.009011828776863141 4.024751086467663  0.29852586416549465 3.9866164384424123  0.5884219702045695 3.9876708526735607  C 0.9226382716974002 3.988988870462463  1.258287338129467 3.9695700750394765  1.5906888040325853 3.9919763774505657  C 1.9544200632737294 4.016403640471408  2.1309367037877998 3.915443477842308  2.0803123426013848 3.553691528717997  Z " fill-rule="nonzero" fill="#ffffff" stroke="none" transform="matrix(1 0 0 1 17 425 )" />
  </g>
</svg>