<?xml version="1.0" encoding="utf-8"?>
<svg version="1.1" xmlns:xlink="http://www.w3.org/1999/xlink" width="16px" height="16px" xmlns="http://www.w3.org/2000/svg">
  <g transform="matrix(1 0 0 1 -12 -462 )">
    <path d="M 14.00002328694017 9.99996106058586  C 15.103058139560627 9.99996106058586  16 9.102527660410999  16 7.999991321001971  C 16 6.8969603144197436  15.10305635375233 5.999984079574631  14.00002328694017 5.999984079574631  L 13.653326178670998 5.999984079574631  C 13.583013548641837 5.800276048390913  13.502461093844751 5.604975376713753  13.412636722376007 5.416001801767209  L 13.656763859640325 5.1713826343490155  C 14.03323189227887 4.794933772391801  14.240767817563004 4.292473359036421  14.240767817563004 3.7573345536195006  C 14.240767817563004 3.2216832230088244  14.03323189227887 2.719733549045145  13.656763859640325 2.343266829067204  C 13.2803136850847 1.9662875838953937  12.777851519754975 1.7592470494163308  12.242691204529809 1.7592470494163308  C 11.707477315055812 1.7592470494163308  11.205050865891991 1.9662875838953937  10.828656051393569 2.343266829067204  L 10.584528914129251 2.5874109731348653  C 10.395042153290497 2.497531554999739  10.200197967564424 2.4169793810712576  10.000014215034021 2.346666996206636  L 10.000014215034021 1.9999893834066143  C 10.000014215034021 0.8969780206472819  9.10301699453752 0  7.999999999999982 0  C 6.897020507436729 0  6.000023286940156 0.8969762348451127  6.000023286940156 1.9999893834066143  L 6.000023286940156 2.346666996206636  C 5.799802032435542 2.4169793810712576  5.604957846709501 2.497531554999739  5.415488943953703 2.5874109731348653  L 5.171343948606431 2.343266829067204  C 4.7949491341079735 1.9662875838953937  4.292504826861233 1.7592470494163308  3.757290937387202 1.7592470494163308  C 3.2221502660532924 1.7592470494163308  2.71975953305542 1.9662875838953937  2.3432182822767196 2.343266829067204  C 1.9668413258612176 2.719715691024419  1.759233968245331 3.2216832230088244  1.759233968245331 3.7573345536195006  C 1.759233968245331 4.292493002859146  1.966843111669517 4.794935558193913  2.3432182822767196 5.1713826343490155  L 2.5873632776239575 5.415508920396064  C 2.49755676423824 5.604977162515752  2.4169864513581967 5.799802810842607  2.346673821329002 5.99998586537663  L 1.99997671305983 5.99998586537663  C 0.8969972204965391 5.99998586537663  0 6.896962100221742  0 7.999993106804084  C 0 9.102529446213168  0.8969972204965391 9.999962846387973  1.99997671305983 9.999962846387973  L 2.346673821329002 9.999962846387973  C 2.4169864513581967 10.20018340276539  2.49755676423824 10.395009051092302  2.5873632776239575 10.584439791368538  L 2.3432182822767196 10.828583935436313  C 1.9668413258612176 11.20505065541414  1.759233968245331 11.707036045419215  1.759233968245331 12.24266951800928  C 1.759233968245331 12.778338706640682  1.966843111669517 13.280270522583578  2.3432182822767196 13.656717598738851  C 2.71975953305542 14.033128958852615  3.222148480244993 14.240737378389667  3.757290937387202 14.240737378389667  C 4.29252447075249 14.240737378389667  4.794950919916273 14.033128958852615  5.171343948606431 13.656717598738851  L 5.415488943953703 13.412591312691745  C 5.604957846709501 13.50243322898342  5.799802032435542 13.582455019697477  6.000023286940156 13.653297787776523  L 6.000023286940156 14.00003026041611  C 6.000023286940156 15.102511239961018  6.897020507436729 16  7.999999999999982 16  C 9.103015208729218 16  10.000014215034021 15.102511239961018  10.000014215034021 14.00003026041611  L 10.000014215034021 13.653297787776523  C 10.200197967564424 13.582455019697477  10.395042153290497 13.50243322898342  10.584528914129251 13.41213414736211  L 10.828656051393569 13.656699740718125  C 11.205050865891991 14.033111100831889  11.707495173138732 14.240719520368941  12.242691204529809 14.240719520368941  C 12.777851519754975 14.240719520368941  13.2803136850847 14.033111100831889  13.656763859640325 13.656699740718125  C 14.03323189227887 13.280250878760853  14.240767817563004 12.778320848619956  14.240767817563004 12.242651659988553  C 14.240767817563004 11.70701818739849  14.03323189227887 11.205032797393528  13.656763859640325 10.828566077415587  L 13.412636722376007 10.583946909997394  C 13.502461093844751 10.394516169721157  13.583013548641837 10.199653019550851  13.653326178670998 9.999944988367247  L 14.000022429752164 9.999944988367247  Z M 12.1801703418244 10.76560405386715  L 12.949691208744362 11.535597260988652  C 13.137695748697624 11.723108264040661  13.24072438670521 11.974109888053476  13.24072438670521 12.242667732207167  C 13.24072438670521 12.510730909187657  13.137697534505925 12.761752177023368  12.949691208744362 12.949682843561618  C 12.57377141925258 13.32519773103678  11.911611561265751 13.32519773103678  11.535673913691046 12.949682843561618  L 10.765658377873152 12.17919496926703  L 10.435566000867365 12.364255851880273  C 10.102566327955955 12.550286425017191  9.74220807195351 12.699193744742502  9.363764935339844 12.80659009537294  L 9.00000650034221 12.909671948204561  L 9.00000650034221 14.000029546095334  C 9.00000650034221 14.551261999758424  8.551270377590605 14.999959056023158  7.999980641838054 14.999959056023158  C 7.448690906085567 14.999959056023158  6.999954783333962 14.551260213956425  6.999954783333962 14.000029546095334  L 6.999954783333962 12.909671948204561  L 6.6362320645022415 12.80659009537294  C 6.257313902881865 12.698699077569358  5.896444905706797 12.550266781194296  5.56446850094893 12.364255851880273  L 5.23435826586012 12.179669992617448  L 4.464307013876347 12.949664985540892  C 4.088333650135731 13.325179873016054  3.4262273663977663 13.325179873016054  3.050254002657118 12.949664985540892  C 2.8622673207868115 12.761734319002642  2.7592761847534355 12.510713051167102  2.7592761847534355 12.24264987418644  C 2.7592761847534355 11.97409203003275  2.8622673207868115 11.723090406019935  3.050254002657118 11.535579402967926  L 3.8202516803920226 10.76560405386715  L 3.6352633706502786 10.435494969799606  C 3.449689315787527 10.103501864549287  3.301220785694211 9.743144865036186  3.193347249780194 9.363277977918813  L 3.0902471794407855 8.999960118575245  L 1.9999406397322375 8.999960118575245  C 1.4486705478709752 8.999960118575245  0.9999701412852797 8.551225560467174  0.9999701412852797 7.9999752487833575  C 0.9999701412852797 7.448689221058089  1.4486526897880196 6.999952877147905  1.9999406397322375 6.999952877147905  L 3.0902471794407855 6.999952877147905  L 3.193347249780194 6.6361778524746455  C 3.301220785694211 6.256785988707634  3.449689315787527 5.895953965844285  3.6352633706502786 5.564418025923544  L 3.8202516803920226 5.234344657897395  L 3.050254002657118 4.464331806953226  C 2.8622673207868115 4.276327922530072  2.7592761847534355 4.025362014558709  2.7592761847534355 3.757298837578162  C 2.7592761847534355 3.488723135403802  2.8622673207868115 3.2377393694115426  3.050254002657118 3.0502658682029846  C 3.4262470102890212 2.674750980727822  4.088351508218654 2.674750980727822  4.464307013876347 3.0502658682029846  L 5.23435826586012 3.820260861126542  L 5.56446850094893 3.6352374803566363  C 5.896444905706797 3.4496837163723058  6.257331760964853 3.3007388948033736  6.6362320645022415 3.1933229003502106  L 6.999954783333962 3.09027854936204  L 6.999954783333962 1.9999392380844938  C 6.999954783333962 1.4482139030503163  7.448690906085567 0.9999543682926628  7.999980641838054 0.9999543682926628  C 8.551270377590605 0.9999543682926628  9.00000650034221 1.4482139030503163  9.00000650034221 1.9999392380844938  L 9.00000650034221 3.09027854936204  L 9.363764935339844 3.1933229003502106  C 9.74220807195351 3.3007567528240997  10.102564542147661 3.4491890491991626  10.435566000867365 3.6356946456863284  L 10.765658377873152 3.820260861126542  L 11.535673913691046 3.0502658682029846  C 11.911629419348738 2.674750980727822  12.573791063143801 2.674750980727822  12.949691208744362 3.0502658682029846  C 13.137695748697624 3.2377393694115426  13.24072438670521 3.488723135403802  13.24072438670521 3.757298837578162  C 13.24072438670521 4.025362014558709  13.137697534505925 4.276327922530072  12.949691208744362 4.464331806953226  L 12.1801703418244 5.234344657897395  L 12.364244317718704 5.564418025923544  C 12.550823782651975 5.897893346891237  12.699676261528886 6.2587610857960385  12.806599747429587 6.6361778524746455  L 12.909699817768995 6.999952877147905  L 14.000006357477542 6.999952877147905  C 14.551276449338808 6.999952877147905  15.000012572090412 7.448687435255977  15.000012572090412 7.9999752487833575  C 15.000012572090412 8.551225560467174  14.551276449338808 8.999960118575245  14.000006357477542 8.999960118575245  L 12.909699817768995 8.999960118575245  L 12.806599747429587 9.363277977918813  C 12.699658403445966 9.74117155374995  12.550823782651975 10.10156426930439  12.364244317718704 10.435494969799606  L 12.1801703418244 10.76560405386715  Z M 10.99998321340204 7.999989535199916  C 10.99998321340204 6.345672500892476  9.65430344440276 4.999979565959848  7.999980641838054 4.999979565959848  C 6.345657839273411 4.999979565959848  4.999978070274132 6.345672500892476  4.999978070274132 7.999989535199916  C 4.999978070274132 9.654269067663847  6.345657839273411 10.999981646419315  7.999980641838054 10.999981646419315  C 9.65430344440276 10.999981646419315  10.99998321340204 9.654269067663847  10.99998321340204 7.999989535199916  Z M 9.999994856872092 7.999991321001971  C 9.999994856872092 9.102525874609  9.10301549445851 9.99996106058586  7.999980641838054 9.99996106058586  C 6.8970011492747965 9.99996106058586  6.000003928778224 9.102527660410999  6.000003928778224 7.999991321001971  C 6.000003928778224 6.8969603144197436  6.8970011492747965 5.999984079574631  7.999980641838054 5.999984079574631  C 9.10299585056729 5.999984079574631  9.999994856872092 6.8969603144197436  9.999994856872092 7.999991321001971  Z " fill-rule="nonzero" fill="#ffffff" stroke="none" transform="matrix(1 0 0 1 12 462 )" />
  </g>
</svg>