<?xml version="1.0" encoding="utf-8"?>
<svg version="1.1" xmlns:xlink="http://www.w3.org/1999/xlink" width="15px" height="16px" xmlns="http://www.w3.org/2000/svg">
  <g transform="matrix(1 0 0 1 -13 -501 )">
    <path d="M 7.499939672851561 1.5998658276474884  C 9.570901378720402 1.5998658276474884  11.249989942626957 3.032400577219868  11.249989942626957 4.799689295442397  L 13.12494474426269 4.799689295442397  C 13.12494474426269 2.1490135931085357  10.60661343160593 0  7.499939672851561 0  C 4.393265914097251 0  1.8750351922607098 2.1490135931085357  1.8750351922607098 4.799689295442397  L 3.7499497131347845 4.799689295442397  C 3.7499497302246336 3.032400577219868  5.429058408877244 1.5998658276474884  7.499939672851561 1.5998658276474884  Z M 13.749963122965488 5.86664031074899  L 13.749963122965488 6  L 1.2500167451985449 6  C 0.5596492649545184 5.86664031074899  0 6.344292873106315  0 6.933039810430663  L 0 14.933030604917796  C 0 15.522347432866919  0.5596492649545184 15.999999995224243  1.2500167451985449 16  L 13.749963122965488 16  C 14.440250246764236 16.000055151474385  15 15.522347432866919  15 14.933030604917796  L 15 6.933039779180652  C 14.999979868164099 6.344292841856418  14.440250246764236 5.86664031074899  13.749963122965488 5.86664031074899  Z M 13.954575993992654 14.957848964285283  C 13.954575993992654 15.079183214249149  13.845996116098323 15.178456698594568  13.713287241629818 15  L 1.3459692622571524 15  C 1.2132604219683196 15.17845671421946  1.1046804586247705 15.07918324549916  1.1046804586247705 14.957848979910402  L 1.1046804586247705 7.07029457601464  C 1.1046804586247705 6.948960310425882  1.2132604219683196 6.849686826080577  1.3459692622571524 7  L 13.713287241629818 7  C 13.845996116098323 6.849686826080577  13.954575993992654 6.948960310425882  13.954575993992654 7.07029457601464  L 13.954575993992654 14.957848964285283  Z M 7.499939672851561 8.533457091202937  C 6.4641471609817485 8.533457091202937  5.624984922485343 9.249457934739164  5.624984922485343 10.133341278225503  C 5.624984922485343 10.72379790304918  6.004652856932069 11.23441293414677  6.562512575988791 11.511183746564225  L 6.562512575988791 13.033505917984805  C 6.562512575988791 13.493270855347514  6.9823550929419556 13.866631073986111  7.500040229492171 13.866631073986111  C 8.017544384597127 13.866631073986111  8.437567882995616 13.49327083972251  8.437567882995616 13.033505917984805  L 8.437567882995616 11.511183746564225  C 8.995387389649919 11.23441293414677  9.374994979858386 10.72379793429919  9.374994979858386 10.133341278225503  C 9.374974865112302 9.249549872239138  8.535832741362048 8.533549028702911  7.500040229492171 8.533549028702911  Z " fill-rule="nonzero" fill="#ffffff" stroke="none" transform="matrix(1 0 0 1 13 501 )" />
  </g>
</svg>