<?xml version="1.0" encoding="utf-8"?>
<svg version="1.1" xmlns:xlink="http://www.w3.org/1999/xlink" width="30px" height="30px" xmlns="http://www.w3.org/2000/svg">
  <g transform="matrix(1 0 0 1 -20 -12 )">
    <path d="M 30 15  C 30 6.71509713650585  23.28486855453417 0  15 0  C 6.715714295727409 0  0 6.71509713650585  0 15  C 0 23.284902863494153  6.715714295727409 30  15 30  C 23.284902863494196 30  30 23.284902863494153  30 15  Z M 28.749977132944153 15  C 28.749977132944153 18.336205681250167  27.55491427135739 21.397645677619852  25.571862850682948 23.780468551033586  C 24.201017127984386 23.20796569082559  20.964342845309346 22.084971413064235  18.961782860816996 21.49415996501666  C 18.790251429326688 21.440434244485942  18.764022866010478 21.431862834332605  18.764022866010478 20.72022853064226  C 18.764022866010478 20.1330856619546  19.005120002489548 19.542274247411854  19.24073142440868 19.04173711115903  C 19.496434293912273 18.49727998297203  19.79917712639866 17.58301709563208  19.90717714226659 16.762697099446807  C 20.211737143457682 16.409862816829673  20.625565720910288 15.714068531102214  20.891040010050403 14.38837708527614  C 21.124765712354474 13.218994212199064  21.015599995963342 12.794091379261332  20.861108591919148 12.395074221069002  C 20.84468572369468 12.35231992965805  20.827577178843143 12.310799923185456  20.815988590501746 12.269279950217694  C 20.757394314632776 11.995885652096128  20.837382873934843 10.571348517826797  21.03754288770773 9.466491383619642  C 21.17612575638357 8.708502827078405  21.002742880733337 7.097177093617503  19.95905145214219 5.762879962182945  C 19.299874308589025 4.920617107758154  18.038331437606942 3.8854970893203054  15.734811446868207 3.741394264134252  L 14.471348580815928 3.7426628245277467  C 12.206982853038483 3.885497122825145  10.945405740106153 4.920617107758154  10.286228596552988 5.762879962182945  C 9.242502892506707 7.097177093617503  9.06915432581637 8.7085028270784  9.207085726310709 9.46649138361964  C 9.40789714125549 10.571314242371649  9.487817149647242 11.995851376640983  9.43049143417177 12.264411394879408  C 9.417634285436918 12.310765681235152  9.40059429149565 12.35228568770775  9.384137147816006 12.395074254573846  C 9.22974857013726 12.794091412766173  9.120479993875833 13.218994245703904  9.35420572968475 14.38837711878098  C 9.619680018824909 15.714068531102207  10.033508596277429 16.40986281682967  10.338102872923741 16.76269713295165  C 10.446102888791629 17.58301712913692  10.748845721277974 18.49727998297202  11.004617141691881 19.041737144663873  C 11.19198855764023 19.439657153243257  11.279280000206938 19.980480011030323  11.279280000206938 20.7458057262914  C 11.279280000206938 21.45754285634716  11.253051436890772 21.46601144013508  11.092525709975348 21.51613716572099  C 9.021017146210951 22.12776001343517  5.723862868051924 23.319085744751757  4.494651434167466 23.857405723702136  C 2.472514301442068 21.463680005583775  1.2499885916007116 18.37275430601906  1.2499885916007116 15  C 1.2499885916007116 7.4182285809531265  7.418228580953169 1.250022867055839  15 1.250022867055839  C 22.581771419046873 1.250022867055839  28.749977132944153 7.4181943054979875  28.749977132944153 15  Z " fill-rule="nonzero" fill="#ffffff" stroke="none" transform="matrix(1 0 0 1 20 12 )" />
  </g>
</svg>