<?xml version="1.0" encoding="utf-8"?>
<svg version="1.1" xmlns:xlink="http://www.w3.org/1999/xlink" width="17px" height="17px" xmlns="http://www.w3.org/2000/svg">
  <g transform="matrix(1 0 0 1 -26 -89 )">
    <path d="M 11.59042693359375 14.005229941406249  L 6.346006875 14.005229941406249  L 6.163400156249999 14.005229941406249  C 6.08060755859375 14.005229941406249  6.1044862304687495 14.109938867187498  6.233757324218749 14.318276328124998  C 6.363028417968749 14.526525605468748  6.560385664062499 14.755390332031247  6.825807031249999 15.005862734375  C 7.088957382812499 15.2562248828125  7.4030180078124985 15.485067578125001  7.76258701171875 15.693338886718749  C 8.12323638671875 15.901676347656249  8.50891095703125 16.00640732421875  8.9171633203125 16.00640732421875  C 8.9341628125 16.00640732421875  8.950126015624999 15.999550195312498  8.96710345703125 15.998425722656247  C 8.984125 15.999572246093749  8.99995591796875 16.00640732421875  9.0169994921875 16.00640732421875  C 9.425273906249998 16.00640732421875  9.80980193359375 15.900529824218747  10.1727002734375 15.693338886718749  C 10.531122734375 15.483965136718748  10.846440136718748 15.255100390624996  11.1095684375 15.005862734374997  C 11.373821210937502 14.755412382812498  11.572236796875 14.526547656249996  11.70040546875 14.318276328124995  C 11.829764765625 14.108814374999994  11.854701757812503 14.005229941406249  11.770740585937501 14.005229941406249  L 11.59042693359375 14.005229941406249  Z M 16.834913125 12.232895234375  C 16.576282734375 11.8709008984375  16.287070917968748 11.4395415625  15.9661531640625 10.93983150390625  C 15.64622759765625 10.4401214453125  15.34460240234375 9.8880458984375  15.05653708984375 9.283582812499999  C 14.772969707031251 8.678017304687499  14.527987421875 8.03823232421875  14.323795097656248 7.36552873046875  C 14.119668925781248 6.690465937499999  14.017583769531251 6.00863423828125  14.017583769531251 5.3120519921875  C 14.017583769531251 4.631344765624999  13.923480234375003 4.010940527343749  13.74195388671875 3.4577184374999987  C 13.55939126953125 2.901144960937499  13.31443103515625 2.4082038476562495  13.0070511328125 1.9768224609374991  C 12.7008177734375 1.5453528906249994  12.341292871093751 1.1856736523437492  11.926205429687501 0.8931765820312494  C 11.511117988281251 0.6005913085937493  11.072173945312501 0.3797302343749993  10.60937328125 0.22836640624999927  C 10.12392869140625 0.0895041601562494  9.572735078125001 0.013260019531249334  9.009084003906253 0.00865185546874958  C 8.996626523437502 0.00865185546874958  8.983044570312503 0.0064028906249995465  8.969352382812502 0.0064028906249995465  L 8.968271992187503 0.0064028906249995465  L 8.967125468750002 0.0064028906249995465  C 8.953565566406251 0.0064028906249995465  8.941063984375003 0.00865185546874958  8.927393847656251 0.00865185546874958  C 8.364845195312503 0.013260019531249334  7.812549160156252 0.0895041601562494  7.328206992187502 0.22836640624999927  C 6.864325957031251 0.37975226562499964  6.42542599609375 0.6017157812499994  6.009214082031251 0.8943010546874994  C 5.595162929687501 1.1867981249999993  5.234513554687501 1.5465214648437495  4.930617343750001 1.9779910156249993  C 4.622046816406251 2.4093282812499988  4.377086582031251 2.9022694140624985  4.194501914062501 3.458864941406249  C 4.011917246093751 4.0120649609375  3.918894082031252 4.63249125  3.918894082031252 5.313198496093749  C 3.918894082031252 6.00865625  3.8167868945312513 6.691700644531249  3.6126607226562513 7.366653183593749  C 3.407388007812502 8.03946701171875  3.162339589843752 8.678039316406249  2.878882441406252 9.2835827734375  C 2.591941621093752 9.888045859375001  2.2902282226562516 10.44012140625  1.9703908593750015 10.93983146484375  C 1.650597578125002 11.438394999999998  1.3612975585937517 11.869776367187502  1.1027553710937519 12.23174865234375  L 1.1016308984375018 12.23289517578125  C 1.0074832617187517 12.358109316406251  0.9621512890625017 12.4810965625  0.9700226562500016 12.598329101562499  C 0.9768797851562516 12.716708183593749  1.0074832812500016 12.815684453125  1.0630237695312519 12.901078789062499  C 1.1163593945312518 12.983033535156249  1.1844675976562518 13.050193652343749  1.2682964843750018 13.099141601562497  C 1.2695091601562516 13.100288124999999  1.2717581250000016 13.099141601562497  1.2728825976562517 13.100288124999999  C 1.3170900976562518 13.127628417968747  1.372652636718752 13.13554388671875  1.4283033593750019 13.147009160156248  C 1.4554672656250016 13.152653613281249  1.4838438476562517 13.170887812499998  1.5110077539062514 13.170887812499998  L 1.5314468359375013 13  L 16.40730205078125 13  L 16.42769703125 13.170887812499998  C 16.456095664062502 13.170887812499998  16.48213509765625 13.151529121093748  16.5105116796875 13.147009160156248  C 16.56607421875 13.135521816406248  16.621702910156248 13.127628417968747  16.665932441406248 13.100288124999999  C 16.668203457031247 13.099141601562497  16.66930587890625 13.100288124999999  16.67155484375 13.099141601562497  C 16.7543694921875 13.050171601562498  16.8224776953125 12.983011484374998  16.87689369140625 12.901078789062499  C 16.93130970703125 12.816808945312498  16.961935234374998 12.717810605468749  16.9687041796875 12.598329101562499  C 16.974392734375 12.4810745703125  16.929038710937498 12.358087324218749  16.834913125 12.232895234375  Z " fill-rule="nonzero" fill="#ffffff" stroke="none" transform="matrix(1 0 0 1 26 89 )" />
  </g>
</svg>