<?xml version="1.0" encoding="utf-8"?>
<svg version="1.1" xmlns:xlink="http://www.w3.org/1999/xlink" width="18px" height="18px" xmlns="http://www.w3.org/2000/svg">
  <g transform="matrix(1 0 0 1 -26 -136 )">
    <path d="M 10 10.000000007812503  L 10 0  L 8 0  L 8 10.000000007812503  L 10 10.000000007812503  Z M 18 9  C 18 6.259999992187492  16.769999999999982 3.8200000078124994  14.830000007812487 2.17000000781249  L 13.409999999999968 3.58999999218749  C 14.989999992187506 4.8600000000000065  16.000000007812503 6.809999999999995  16.000000007812503 9  C 16.000000007812503 12.870000000000012  12.870000000000005 16.0000000078125  9 16.0000000078125  C 5.1299999999999955 16.0000000078125  1.9999999921874974 12.870000000000012  1.9999999921874974 9  C 1.9999999921874974 6.809999999999995  3.0100000078124935 4.8600000000000065  4.579999992187481 3.5800000078124867  L 3.1699999921875133 2.17000000781249  C 1.2300000000000182 3.8200000078124994  0 6.259999992187492  0 9  C 0 13.96999999218751  4.030000007812532 18  9 18  C 13.969999992187468 18  18 13.96999999218751  18 9  Z " fill-rule="nonzero" fill="#ffffff" stroke="none" transform="matrix(1 0 0 1 26 136 )" />
  </g>
</svg>