<?xml version="1.0" encoding="utf-8"?>
<svg version="1.1" xmlns:xlink="http://www.w3.org/1999/xlink" width="13px" height="13px" xmlns="http://www.w3.org/2000/svg">
  <g transform="matrix(1 0 0 1 -567 -20 )">
    <path d="M 12.693602693602713 9.717171717171695  C 12.897867564534295 9.92143658810329  13 10.169472502805853  13 10.46127946127946  C 13 10.753086419753075  12.897867564534295 11.001122334455637  12.693602693602713 11.205387205387225  L 11.205387205387126 12.693602693602685  C 11.001122334455658 12.897867564534202  10.75308641975306 13  10.461279461279446 13  C 10.169472502805888 13  9.921436588103234 12.897867564534202  9.71717171717171 12.693602693602685  L 6.5 9.47643097643099  L 3.282828282828291 12.693602693602685  C 3.0785634118967664 12.897867564534202  2.8305274971941685 13  2.538720538720554 13  C 2.246913580246826 13  1.9988776655443414 12.897867564534202  1.794612794612874 12.693602693602685  L 0.3063973063972867 11.205387205387225  C 0.10213243546576223 11.001122334455637  0 10.753086419753075  0 10.46127946127946  C 0 10.169472502805853  0.10213243546576223 9.92143658810329  0.3063973063972867 9.717171717171695  L 3.523569023569053 6.5  L 0.3063973063972867 3.282828282828302  C 0.10213243546576223 3.0785634118967096  0 2.830527497194147  0 2.5387205387205363  C 0 2.246913580246929  0.10213243546576223 1.9988776655443627  0.3063973063972867 1.794612794612771  L 1.794612794612874 0.3063973063973151  C 1.9988776655443414 0.1021324354657942  2.246913580246826 0  2.538720538720554 0  C 2.8305274971941685 0  3.0785634118967664 0.1021324354657942  3.282828282828291 0.3063973063973151  L 6.5 3.523569023569013  L 9.71717171717171 0.3063973063973151  C 9.921436588103234 0.1021324354657942  10.169472502805888 0  10.461279461279446 0  C 10.75308641975306 0  11.001122334455658 0.1021324354657942  11.205387205387126 0.3063973063973151  L 12.693602693602713 1.794612794612771  C 12.897867564534295 1.9988776655443627  13 2.246913580246929  13 2.5387205387205363  C 13 2.830527497194147  12.897867564534295 3.0785634118967096  12.693602693602713 3.282828282828302  L 9.476430976430947 6.5  L 12.693602693602713 9.717171717171695  Z " fill-rule="nonzero" fill="#1abc9c" stroke="none" transform="matrix(1 0 0 1 567 20 )" />
  </g>
</svg>