<?xml version="1.0" encoding="utf-8"?>
<svg version="1.1" xmlns:xlink="http://www.w3.org/1999/xlink" width="16px" height="16px" xmlns="http://www.w3.org/2000/svg">
  <g transform="matrix(1 0 0 1 -13 -7 )">
    <path d="M 16 11.850661171217556  C 15.99974039038796 13.16022668727459  15.008550891596773 14.22194744976816  13.78812610536906 14.22194744976816  L 12.604825493663915 14.22194744976816  C 12.356638704548013 15.242452344152483  11.499926984796602 16  10.471094092258767 16  L 5.5286462981291935 16  C 4.499294186367278 16  3.6423228570038275 15.241902799244372  3.395953335172264 14.22194744976816  L 2.21213350424304 14.22194744976816  C 0.9901510603430281 14.22194744976816  0 13.16022668727459  0 11.8503863987635  L 0 10.66529280439637  C 0 9.35600206079339  0.9898914507309884 8.294830843207993  2.21213350424304 8.294830843207993  L 3.3165127938862127 8.294830843207993  L 3.3165127938862127 2.3715610510046594  C 3.3165127938862127 1.0622703074016786  4.30718307345332 0  5.528127078905114 0  L 10.470834482646728 0  C 11.692816926546739 0  12.682448767665628 1.0622703074016786  12.682448767665628 2.3715610510046594  L 12.682448767665628 8.295105615662049  L 13.788385714981098 8.295105615662049  C 15.009329720432893 8.295105615662049  16 9.356276833247446  16 10.665567576850426  L 16 11.850661171217556  Z M 4.421930521977604 13.628988493903513  C 4.421930521977604 14.284320796840142  4.917525271373168 14.81545595054098  5.527867469293074 14.81545595054098  L 10.470574873034687 14.81545595054098  C 11.081695899790713 14.81545595054098  11.577290649186278 14.284320796840142  11.577290649186278 13.628988493903513  C 11.577290649186278 12.97557959814527  11.082215119014792 12.443894899536321  10.470574873034687 12.443894899536321  L 5.527867469293074 12.443894899536321  C 4.918044490597306 12.443894899536321  4.421930521977604 12.97557959814527  4.421930521977604 13.628988493903513  Z M 11.577290649186278 8.295105615662049  L 11.577290649186278 2.3715610510046594  C 11.577290649186278 1.7170530654301965  11.082215119014792 1.1864674566374673  10.470574873034687 1.1864674566374673  L 5.527867469293074 1.1864674566374673  C 4.918044490597306 1.1864674566374673  4.421930521977604 1.7170530654301965  4.421930521977604 2.3715610510046594  L 4.421930521977604 8.295105615662049  L 11.577290649186278 8.295105615662049  Z M 14.89302461423637 10.66529280439637  C 14.89302461423637 10.011334363730018  14.398468303288906 9.480199210029179  13.78760688614498 9.480199210029179  L 2.2116142850189013 9.480199210029179  C 1.6004932582629345 9.480199210029179  1.1061965569275691 10.011334363730018  1.1061965569275691 10.66529280439637  L 1.1061965569275691 11.8503863987635  C 1.1061965569275691 12.5062682466083  1.6007528678749743 13.036029538038804  2.2116142850189013 13.036029538038804  L 3.394914896724046 13.036029538038804  C 3.6412844185556095 12.015524643654482  4.4987749671431985 11.257976987806963  5.5276078596810345 11.257976987806963  L 10.469536434586528 11.257976987806963  C 11.500186594408643 11.257976987806963  12.356379094935974 12.015524643654482  12.603267835991616 13.036029538038804  L 13.7870876669209 13.036029538038804  C 14.397689474452788 13.036029538038804  14.892505395012233 12.505993474154184  14.892505395012233 11.8503863987635  L 14.892505395012233 10.66529280439637  Z " fill-rule="nonzero" fill="#999999" stroke="none" transform="matrix(1 0 0 1 13 7 )" />
  </g>
</svg>