<?xml version="1.0" encoding="utf-8"?>
<svg version="1.1" xmlns:xlink="http://www.w3.org/1999/xlink" width="100px" height="100px" xmlns="http://www.w3.org/2000/svg">
  <g transform="matrix(1 0 0 1 -500 -162 )">
    <path d="M 100 50  C 100 22.383657121686156  77.61622851511356 0  50 0  C 22.385714319091335 0  0 22.383657121686156  0 50  C 0 77.61634287831384  22.385714319091335 100  50 100  C 77.61634287831362 100  100 77.61634287831384  100 50  Z M 95.83325710981387 50  C 95.83325710981387 61.1206856041673  91.84971423785777 71.32548559206623  85.23954283560954 79.26822850344524  C 80.67005709328112 77.35988563608532  69.88114281769748 73.61657137688076  63.20594286938973 71.6471998833888  C 62.634171431089044 71.46811414828642  62.54674288670139 71.43954278110868  62.54674288670139 69.0674284354742  C 62.54674288670139 67.11028553984863  63.35040000829867 65.14091415803955  64.1357714146958 63.472457037196705  C 64.98811431304108 61.65759994324003  65.99725708799531 58.61005698544023  66.35725714088869 55.87565699815593  C 67.37245714485891 54.699542722765614  68.75188573636729 52.38022843700742  69.6368000335014 47.96125695092053  C 70.41588570784813 44.0633140406635  70.05199998654439 42.64697126420435  69.53702863973058 41.31691407023004  C 69.48228574564865 41.1743997655268  69.42525726281053 41.03599974395149  69.38662863500576 40.89759983405895  C 69.19131438210894 39.98628550698709  69.4579429131162 35.23782839275589  70.12514295902542 31.55497127873218  C 70.58708585461204 29.028342756927938  70.00914293577796 23.657256978724945  66.53017150714055 19.209599873943148  C 64.3329143619631 16.402057025860472  60.127771458689786 12.951656964401081  52.44937148956051 12.471314213780943  L 48.23782860271996 12.475542748425823  C 40.68994284346172 12.951657076083734  36.48468580035404 16.402057025860472  34.287428655176655 19.209599873943148  C 30.808342975022303 23.657256978724945  30.23051441938827 29.028342756927938  30.690285754369313 31.55497127873218  C 31.35965713751841 35.237714141238826  31.626057165490696 39.98617125546991  31.434971447239317 40.881371316264676  C 31.39211428478973 41.0358856041172  31.33531430498539 41.174285625692505  31.280457159386515 41.31691418191281  C 30.76582856712406 42.64697137588723  30.401599979586425 44.06331415234638  31.180685765615753 47.96125706260318  C 32.06560006274981 52.38022843700742  33.44502865425824 54.69954272276551  34.46034290974592 55.87565710983882  C 34.82034296263873 58.61005709712299  35.82948573759353 61.65759994324003  36.68205713897322 63.47245714887958  C 37.30662852546726 64.79885717747754  37.59760000069008 66.60160003676765  37.59760000069008 69.15268575430468  C 37.59760000069008 71.52514285449058  37.51017145630243 71.5533714671169  36.975085699917884 71.72045721906989  C 30.070057154036476 73.75920004478394  19.0795428935063 77.73028581583924  14.982171447225143 79.52468574567376  C 8.241714338140298 71.54560001861262  4.166628638669238 61.242514353396814  4.166628638669238 50  C 4.166628638669238 24.72742860317703  24.72742860317709 4.1667428901861285  50 4.1667428901861285  C 75.27257139682291 4.1667428901861285  95.83325710981387 24.72731435165997  95.83325710981387 50  Z " fill-rule="nonzero" fill="#cccccc" stroke="none" transform="matrix(1 0 0 1 500 162 )" />
  </g>
</svg>