<?xml version="1.0" encoding="utf-8"?>
<svg version="1.1" xmlns:xlink="http://www.w3.org/1999/xlink" width="48px" height="48px" xmlns="http://www.w3.org/2000/svg">
  <g transform="matrix(1 0 0 1 -860 -96 )">
    <path d="M 1.3804437187499747 47.999637826044285  C 2.1072895781251493 48.005272866873895  36.13381851562512 47.94328694894681  36.849395484375066 47.94328694894681  C 37.55933798437506 47.94328694894681  38.13405332812514 47.323427816556496  38.15659115625002 46.528881105804544  L 38.16786009375012 46.03299380926831  L 38.19039796875011 46.03299380926831  C 38.207301375000156 45.67234847712552  38.218570312500034 45.356783846660655  38.218570312500034 45.05248934473519  C 38.218570312500034 36.526608625032964  33.49125492187503 28.981232369863903  26.17208596875013 25.825585830814827  L 25.349454187500182 25.470575586381774  L 26.076300046875126 24.946512851296838  C 29.58093675000007 22.410725444638025  31.671322921875177 18.173142956040703  31.671322921875177 13.619995836978577  C 31.671322921875177 6.108430061187826  26.0368587656251 0  19.106467875000178 0  C 12.176076984375023 0  6.541612828125176 6.108430061187826  6.541612828125176 13.619995836978577  C 6.541612828125176 18.173143002920895  8.631999046875151 22.410725491518214  12.136635703124995 24.946512851296838  L 12.86348156250017 25.470575586381774  L 12.040849781249992 25.825585830814827  C 4.727315390625001 28.98686741069351  0 36.532243665862566  0 45.05248934473519  C 0 45.356783846660655  0.011268937500105825 45.666713389415776  0.028172343750150652 46.03299380926831  L 0.061979109375140506 46.03299380926831  L 0.06761357812507951 46.54015128122403  C 0.06761357812507951 47.34596816739551  0.6592323281251948 47.999637826044285  1.3804437187499747 47.999637826044285  Z M 33.62084751562505 26.704658763452677  C 36.911374593749976 27.09911457497378  39.88637165625017 28.800909656912346  42.021833531250145 31.511384641932782  C 44.14602651562511 34.210589451533686  45.317995031250135 37.75505671439413  45.317995031250135 41.49111681874548  C 45.317995031250135 42.313838968046184  45.920882671875034 42.9787787552343  46.65899751562518 42.9787787552343  C 47.374574484375124 42.9787787552343  47.9605587187502 42.353284535134236  47.98873106250012 41.55310273667255  L 47.99436553125006 41.5080220818747  C 47.99436553125006 41.50238699416496  47.99436553125006 41.49111681874548  48 41.48548173103573  C 47.98873106250012 34.39091211760511  44.05587510937515 28.119064606594947  37.97065382812505 25.498750978050346  L 37.148022046875106 25.143740733617292  L 37.87486790625005 24.619677998532357  C 40.78788585937511 22.51779201736289  42.52893529687513 19.00150014617102  42.52893529687513 15.214724299312135  C 42.52893529687513 9.97409699534268  39.26658056250013 5.47730070649783  34.584340874999995 4.243217529426927  L 34.55616853125008 4.254487704846408  L 34.426575843750086 4.243217529426927  C 34.398403500000164 4.243217529426927  34.37023120312511 4.237582441717185  34.34205885937519 4.231947354007444  C 34.33078992187508 4.231947354007444  34.319520984374975 4.226312266297703  34.3082520937502 4.226312266297703  C 33.55886835937504 4.226312266297703  32.95034624999998 4.908157316615043  32.95034624999998 5.736514553625495  C 32.95034624999998 6.485980609579706  33.43491018750009 7.11147482967977  34.10541140625006 7.224176490114379  L 34.16739051562497 7.2354466655338605  L 34.22373515625018 7.257987016372825  C 34.29134873437503 7.2861624549215875  34.38713460937515 7.3199729342999  34.51109282812498 7.353783413678212  C 34.53926517187514 7.359418501387953  34.55616853125008 7.365053589097695  34.567437468750185 7.370688676807435  C 37.643854874999995 8.49770528115347  39.71170321874998 11.608271165404755  39.71170321874998 15.10202268575766  C 39.71170321874998 19.0071352807609  37.14238757812517 22.360009702130487  33.59267517187513 23.115110845794383  L 33.53633053125016 23.148921325172694  L 33.41800678125004 23.15455641288244  C 32.578471640625146 23.21090724309977  31.91923931250018 23.982913649892886  31.91923931250018 24.90706723732859  C 31.91923931250018 25.85376117560326  32.59537500000009 26.625767582396378  33.457448015625204 26.66521314948443  L 33.570137296875146 26.67084823719417  L 33.62084751562505 26.704658763452677  Z " fill-rule="nonzero" fill="#1abc9c" stroke="none" transform="matrix(1 0 0 1 860 96 )" />
  </g>
</svg>