<?xml version="1.0" encoding="utf-8"?>
<svg version="1.1" xmlns:xlink="http://www.w3.org/1999/xlink" width="46px" height="36px" xmlns="http://www.w3.org/2000/svg">
  <g transform="matrix(1 0 0 1 -581 -96 )">
    <path d="M 11.416058394160572 8.305980955424761  L 11.751824817518282 7.969536157230326  L 19.810218978102235 1.577084991536342  C 22.160583941605847 -0.10513899943574835  24.846715328467162 -0.44158379763018396  27.53284671532848 0.5677505969530936  L 40.29197080291977 5.614422569869394  C 41.29927007299266 5.9508673680638005  41.97080291970808 5.9508673680638005  42.97810218978098 5.9508673680638005  L 44.992700729926995 5.9508673680638005  C 45.66423357664229 5.9508673680638005  46 6.2873121662582365  46 6.9602017626470785  L 46 22.77310727778482  C 46 23.445996874173666  45.3284671532847 23.78244167236807  44.992700729926995 23.78244167236807  L 42.306569343065675 23.78244167236807  C 41.97080291970808 23.78244167236807  41.635036496350374 23.78244167236807  41.29927007299266 24.118886470562504  L 40.62773722627736 24.791776066951346  L 39.95620437956206 24.791776066951346  L 25.182481751824874 6.623756964452642  C 24.846715328467162 5.9508673680638005  24.17518248175186 5.9508673680638005  23.839416058394157 6.2873121662582365  L 17.12408759124092 9.988204946396854  C 15.445255474452608 10.9975393409801  13.766423357664298 10.9975393409801  12.423357664233581 10.324649744591259  C 11.416058394160572 9.988204946396854  11.080291970802982 9.31531535000801  11.416058394160572 8.305980955424761  Z M 0 23.109552075979256  C 0 23.445996874173666  0.671532846715417 24.118886470562504  1.3430656934307175 24.118886470562504  L 3.693430656934327 24.118886470562504  L 5.372262773722636 22.10021768139598  C 7.051094890510946 20.081548892229485  9.737226277372264 19.74510409403505  11.416058394160572 21.42732808500717  C 12.08759124087599 22.10021768139598  12.759124087591289 22.77310727778482  12.759124087591289 23.445996874173666  C 14.102189781021892 23.78244167236807  15.445255474452608 25.128220865145757  15.7810218978102 26.474000057923437  C 16.788321167883208 26.810444856117872  17.795620437956217 27.483334452506718  18.131386861313924 28.492668847089963  C 19.138686131386933 28.492668847089963  19.810218978102235 29.165558443478808  20.481751824817536 29.83844803986765  C 21.824817518248253 31.184227232645334  22.160583941605847 33.53934082000627  21.153284671532838 35.221564810978386  L 20.817518248175244 35.55800960917279  C 21.824817518248253 36.23089920556163  23.503649635036563 36.23089920556163  24.17518248175186 34.88512001278395  C 24.510948905109455 34.2122304163951  24.846715328467162 33.53934082000627  24.510948905109455 32.866451223617425  L 24.846715328467162 33.20289602181186  C 25.85401459854017 34.2122304163951  27.197080291970774 34.2122304163951  28.204379562043783 33.53934082000627  C 28.875912408759085 32.866451223617425  29.5474452554745 31.857116829034176  29.21167883211679 31.184227232645334  L 29.5474452554745 31.52067203083977  C 30.55474452554751 32.53000642542302  31.5620437956204 32.53000642542302  32.905109489051114 31.857116829034176  C 33.576642335766415 31.184227232645334  34.24817518248172 30.174892838062085  33.912408759124126 29.502003241673243  L 34.24817518248172 29.83844803986765  C 34.91970802919713 30.51133763625649  36.26277372262774 30.847782434450895  37.27007299270075 30.174892838062085  C 38.61313868613134 29.502003241673243  38.948905109489054 27.819779250701124  38.27737226277375 26.810444856117872  L 37.94160583941605 26.474000057923437  L 36.26277372262774 24.45533126875694  L 24.17518248175186 8.978870551813603  C 24.17518248175186 8.978870551813603  23.839416058394157 8.642425753619198  23.503649635036563 8.978870551813603  L 17.459854014598626 12.343318533757815  C 15.7810218978102 13.352652928341064  13.430656934306592 13.352652928341064  11.416058394160572 12.67976333195222  C 10.40875912408768 12.343318533757815  9.401459854014671 11.333984139174536  9.065693430656962 10.324649744591289  C 8.729927007299372 8.978870551813603  9.065693430656962 7.969536157230326  9.401459854014671 6.9602017626470785  C 9.401459854014671 6.623756964452672  9.401459854014671 6.2873121662582365  9.065693430656962 6.2873121662582365  L 1.0072992700730088 6.2873121662582365  C 0.3357664233577085 6.2873121662582365  0 6.623756964452642  0 7.2966465608415145  L 0 23.109552075979256  Z M 10.072992700729973 25.128220865145757  C 11.080291970802982 24.791776066951346  10.744525547445273 23.445996874173666  9.737226277372264 22.77310727778482  C 8.729927007299255 22.436662479590414  7.722627737226363 22.436662479590414  7.051094890510946 23.445996874173666  L 5.372262773722636 25.46466566334019  C 4.700729927007336 26.474000057923437  4.700729927007336 27.819779250701124  5.708029197080345 28.492668847089963  L 6.043795620437936 28.82911364528437  C 6.715328467153353 29.502003241673215  7.722627737226363 29.502003241673215  8.394160583941662 29.165558443478808  C 8.394160583941662 29.83844803986765  8.394160583941662 30.847782434450895  9.065693430656962 31.184227232645334  L 9.401459854014671 31.184227232645334  C 10.072992700729973 31.52067203083974  10.744525547445273 31.857116829034176  11.751824817518282 31.52067203083974  C 11.751824817518282 32.193561627228576  12.08759124087599 32.866451223617425  12.423357664233581 33.53934082000627  C 13.094890510948881 34.2122304163951  14.102189781021892 34.2122304163951  14.773722627737309 33.875785618200666  C 14.773722627737309 34.548675214589515  15.1094890510949 34.88512001278395  15.445255474452608 35.22156481097836  C 16.452554744525617 35.89445440736719  17.795620437956217 35.89445440736719  18.467153284671518 34.88512001278395  C 18.467153284671518 34.88512001278395  18.467153284671518 34.548675214589544  18.80291970802923 34.548675214589544  L 19.138686131386933 33.875785618200666  C 19.810218978102235 32.866451223617425  19.474452554744527 31.857116829034176  18.80291970802923 31.184227232645334  C 18.131386861313924 30.51133763625649  17.12408759124092 30.51133763625649  16.452554744525617 30.847782434450895  C 16.452554744525617 29.83844803986765  15.445255474452608 28.82911364528437  14.437956204379601 28.492668847089963  L 13.430656934306592 28.492668847089963  C 13.094890510948881 28.492668847089963  13.094890510948881 28.156224048895528  13.094890510948881 28.156224048895528  C 13.430656934306592 27.146889654312282  13.094890510948881 25.801110461534595  12.08759124087599 25.46466566334019  C 11.416058394160572 25.128220865145757  10.744525547445273 25.128220865145757  10.40875912408768 25.46466566334019  C 10.072992700729973 25.46466566334019  10.072992700729973 25.128220865145757  10.072992700729973 25.128220865145757  Z " fill-rule="nonzero" fill="#1abc9c" stroke="none" transform="matrix(1 0 0 1 581 96 )" />
  </g>
</svg>