<?xml version="1.0" encoding="utf-8"?>
<svg version="1.1" xmlns:xlink="http://www.w3.org/1999/xlink" width="43px" height="37px" xmlns="http://www.w3.org/2000/svg">
  <g transform="matrix(1 0 0 1 -303 -99 )">
    <path d="M 42.04577896875 34.667377515625  C 42.04050253125 35.912037624999996  41.256761906250006 36.919978234375  40.292135953125 37  L 1.8534453749999997 37  C 0.886181203125 36.919978234375  0.10503079687499993 35.912037624999996  0.10503079687499993 34.667377515625  L 0.10503079687499993 3.1006997031250005  C 0.10503079687499993 1.8526338906250004  0.8861811562500002 0.8447412343750003  1.8534453749999997 0.8447412812500001  C 2.8207095937499993 0.844741328125  3.601859953125 1.8526339375000003  4 3.1006997031250005  L 4 32  L 40.297364390625 32  C 41.261990390625 32.411419046875  42.04577896875 33.42271740625  42.04577896875 34.667377515625  Z M 39.770441625000004 10.328631203125  C 39.678727828125005 10.450324703125002  39.581737546875004 10.545060484375002  39.479518875 10.636390515625  L 30.097895625 22.738105562499996  C 29.429468812499998 23.597203093749997  28.344252609374998 23.597203093749997  27.675825796874996 22.738105562499996  C 27.594568875 22.633248671874995  27.550007109375 22.494574656249995  27.489711984374996 22.372833203124998  L 19.324352109375 11.837064484375002  L 10.8785743125 22.738105562500003  C 10.210147500000001 23.59720309375  9.124931296875001 23.59720309375  8.456504484375001 22.738105562500003  C 7.790715890625002 21.875650328125  7.790715890625002 20.475383687500003  8.456504484375001 19.61628615625  L 17.956079765625 7.3589646250000005  C 18.00327975 7.284567062499999  18.021603328125 7.200000390625  18.071393578125 7.132366234375002  C 18.755553703125003 6.24957278125  19.866960187500002 6.24957278125  20.548530093750003 7.132366234375002  C 20.569491890625002 7.1628255625  20.577358546875 7.203406046875001  20.59832034375 7.233817468750001  L 28.939289156250002 17.992826875  L 37.17799134375 7.3589646250000005  C 37.225191328125 7.284567062499999  37.24351490625 7.200000390625  37.29330515625 7.132366234375002  C 37.97746528125 6.24957278125  39.088871765625 6.24957278125  39.770441625000004 7.132366234375002  C 40.45201148437501 8.0151596875  40.45460175 9.449243406250002  39.770441625000004 10.328631203125  Z " fill-rule="nonzero" fill="#1abc9c" stroke="none" transform="matrix(1 0 0 1 303 99 )" />
  </g>
</svg>