<?xml version="1.0" encoding="utf-8"?>
<svg version="1.1" xmlns:xlink="http://www.w3.org/1999/xlink" width="43px" height="43px" xmlns="http://www.w3.org/2000/svg">
  <g transform="matrix(1 0 0 1 -20 -99 )">
    <path d="M 37.4453125 41.575  C 37.4453125 40.796875  36.79375 40.16875  35.9921875 40  L 2.3921875000000004 40  C 1.5906249999999997 40.16875  0.9437500000000002 40.796875  0.9437500000000002 41.575  C 0.9437500000000002 42.353125000000006  1.5906250000000002 42.98125  2.3921875000000004 43  L 35.9921875 43  C 36.79375 42.98125  37.4453125 42.353125000000006  37.4453125 41.575  Z M 5.425000000000001 8.823437499999999  C 5.228125000000002 9.573437499999999  5.692187500000001 10.342187499999998  6.465625 10.5390625  C 6.5874999999999995 10.571874999999999  6.709375 10.5859375  6.831250000000001 10.5859375  C 7.4734375 10.5859375  8.0640625 10.168750000000001  8.232812500000001 9.5359375  C 8.701562500000001 7.806249999999999  9.348437500000001 7.375  10.1640625 6.831249999999999  C 11.195312499999998 6.146875  12.484375 5.2984374999999995  12.887500000000001 2.5749999999999993  C 13 1.8062499999999995  12.451562500000001 1.0937499999999987  11.659375 0.9812499999999993  C 10.867187500000004 0.8734374999999991  10.131250000000001 1.403124999999999  10.01875 2.1718749999999982  C 9.793750000000001 3.6718749999999982  9.343750000000002 3.971874999999999  8.528125000000001 4.510937499999999  C 7.529687500000001 5.171874999999998  6.165625 6.071874999999999  5.425000000000001 8.823437499999999  Z M 39.8546875 19.796875  C 40.103125 21.207812500000003  40.318749999999994 23.143749999999997  39.23125 24.6015625  C 38.678125 25.342187499999998  37.782812500000006 25.834374999999998  36.6203125 26.096874999999997  C 37.1359375 24.53125  37.389062499999994 22.857812499999998  37.389062499999994 21.123437499999998  L 37.389062499999994 19.796875  L 39.8546875 19.796875  Z M 34.4875 17  L 34.4875 21.128124999999997  L 34.4875 21  L 4.046875 21  L 4.046875 17  L 34.4875 17  Z M 41.5890625 26.204687500000002  C 44.05 22.88125  42.428124999999994 18.132812500000004  42.357812499999994 17.93125  L 42.025 16.9984375  L 37.389062499999994 16.9984375  L 37.389062499999994 15.353124999999999  C 37.389062499999994 14.575  36.793749999999996 14.190624999999997  35.9921875 15  L 2.3921875000000004 15  C 1.5906249999999997 14.190624999999997  1.1453124999999997 14.575  1.1453124999999997 15.353124999999999  L 1.1453124999999997 21.1328125  C 1.1453124999999997 30.128124999999997  8.4953125 37.365624999999994  17.78125 37.365624999999994  L 20.598437500000003 37.365624999999994  C 26.903125000000006 37.365624999999994  32.401562500000004 34.0328125  35.2890625 29.0546875  C 38.162499999999994 28.8953125  40.2859375 27.9625  41.5890625 26.204687500000002  Z M 25.703124999999993 8.823437499999999  C 25.501562499999995 9.573437499999999  25.965624999999992 10.342187499999998  26.739062500000003 10.5390625  C 26.860937500000002 10.571874999999999  26.987499999999997 10.5859375  27.104687499999997 10.5859375  C 27.7515625 10.5859375  28.337500000000002 10.168750000000001  28.506249999999998 9.5359375  C 28.974999999999994 7.806249999999999  29.621875 7.375  30.4421875 6.831249999999999  C 31.473437499999996 6.146875  32.75781249999999 5.2984374999999995  33.165625 2.5749999999999993  C 33.278124999999996 1.8062499999999995  32.7296875 1.0937499999999987  31.937499999999993 0.9812499999999993  C 31.140624999999993 0.8734374999999991  30.414062499999993 1.403124999999999  30.29687499999999 2.1718749999999982  C 30.071875 3.6718749999999982  29.621875 3.971874999999999  28.80625 4.510937499999999  C 27.807812499999997 5.171874999999998  26.443749999999998 6.0765625000000005  25.703124999999993 8.823437499999999  Z M 15.55 8.823437499999999  C 15.353125000000002 9.573437499999999  15.817187500000003 10.342187499999998  16.590625000000003 10.5390625  C 16.712500000000002 10.571874999999999  16.8390625 10.5859375  16.95625 10.5859375  C 17.598437500000003 10.5859375  18.189062500000002 10.168750000000001  18.3578125 9.5359375  C 18.8265625 7.806249999999999  19.473437500000003 7.375  20.2890625 6.831249999999999  C 21.3203125 6.146875  22.609375 5.2984374999999995  23.012500000000003 2.5749999999999993  C 23.129687500000003 1.8062499999999995  22.5765625 1.0937499999999987  21.784375 0.9812499999999993  C 20.992187500000004 0.8734374999999991  20.25625 1.403124999999999  20.14375 2.1718749999999982  C 19.918750000000003 3.6718749999999982  19.468750000000004 3.971874999999999  18.653125000000003 4.510937499999999  C 17.6546875 5.171874999999998  16.290625000000002 6.0765625000000005  15.55 8.823437499999999  Z " fill-rule="nonzero" fill="#1abc9c" stroke="none" transform="matrix(1 0 0 1 20 99 )" />
  </g>
</svg>